<svg width="22" height="22" viewBox="0 0 22 22" fill="none" xmlns="http://www.w3.org/2000/svg">
<path fill-rule="evenodd" clip-rule="evenodd" d="M18.704 8.87177C20.1656 7.41012 20.1656 5.04031 18.704 3.57866C17.2423 2.11701 14.8725 2.11701 13.4108 3.57866L4.03874 12.9508C3.63846 13.351 3.35072 13.8497 3.20449 14.3966L2.26005 17.9285C1.92015 19.1997 3.08295 20.3625 4.35409 20.0226L7.88603 19.0781C8.43289 18.9319 8.93157 18.6442 9.33185 18.2439L18.704 8.87177ZM4.30291 14.6903L3.35847 18.2222C3.24454 18.6483 3.6343 19.0381 4.06038 18.9241L7.59231 17.9797C7.94617 17.8851 8.26885 17.6989 8.52786 17.4399L17.9 8.06778C18.9176 7.05016 18.9176 5.40027 17.9 4.38265C16.8823 3.36503 15.2325 3.36503 14.2148 4.38265L4.84273 13.7548C4.58372 14.0138 4.39753 14.3364 4.30291 14.6903Z" fill="black"/>
<path d="M3.35847 18.2222L4.30291 14.6903C4.39753 14.3364 4.58372 14.0138 4.84273 13.7548L14.2148 4.38265C15.2325 3.36503 16.8823 3.36503 17.9 4.38265C18.9176 5.40027 18.9176 7.05016 17.9 8.06778L8.52786 17.4399C8.26885 17.6989 7.94617 17.8851 7.59231 17.9797L4.06038 18.9241C3.6343 19.0381 3.24454 18.6483 3.35847 18.2222Z" fill="white"/>
<path fill-rule="evenodd" clip-rule="evenodd" d="M10.815 0.560706C11.5642 0.436552 12.2721 0.94323 12.3963 1.6924C12.4837 2.21996 12.5717 2.74845 12.6599 3.27758C12.8835 4.62013 13.1078 5.96685 13.3248 7.31322C13.3383 7.35272 13.3602 7.41873 13.3768 7.4795C13.3992 7.56139 13.464 7.8049 13.4301 8.10356C13.3872 8.48162 13.1808 8.94153 12.6989 9.21611C12.255 9.46912 11.8328 9.40059 11.7061 9.3764C11.5367 9.34406 11.4041 9.28885 11.3393 9.2601C11.2646 9.227 11.2035 9.19412 11.1708 9.17617C11.1585 9.16938 11.1496 9.16452 11.1436 9.16116C10.9944 9.08492 10.8808 9.0241 10.7794 8.96979C10.638 8.89411 10.5203 8.83109 10.3629 8.75666C10.1005 8.63264 9.82504 8.52495 9.49501 8.39591L9.47842 8.38942C9.15688 8.2637 8.78167 8.11662 8.40936 7.93556C8.29388 7.8794 8.19677 7.82057 8.13304 7.78088C8.1068 7.76453 8.07996 7.74746 8.05994 7.73472C8.05596 7.73218 8.05224 7.72982 8.04886 7.72767C8.03838 7.72101 8.02957 7.71544 8.02191 7.71063C7.35202 7.52094 6.92098 6.85122 7.04384 6.15053C7.17499 5.40255 7.88767 4.90251 8.63565 5.03367C9.01031 5.09936 9.29173 5.26392 9.42701 5.34624C9.46764 5.37096 9.56068 5.42998 9.58242 5.44377C9.5852 5.44553 9.58681 5.44656 9.58701 5.44668C9.60497 5.45787 9.6144 5.46335 9.61763 5.4652C9.82229 5.56446 10.038 5.65384 10.283 5.75089C10.1722 5.0799 10.0604 4.40875 9.94842 3.73657C9.86002 3.20583 9.77152 2.67445 9.68328 2.14201C9.55912 1.39283 10.0658 0.68486 10.815 0.560706ZM12.4951 6.76602L12.4947 6.76578C12.496 6.76652 12.4962 6.76665 12.4951 6.76602ZM13.3075 7.26237C13.3076 7.26255 13.3088 7.26612 13.3107 7.27255C13.3083 7.2654 13.3074 7.26219 13.3075 7.26237Z" fill="black"/>
<path fill-rule="evenodd" clip-rule="evenodd" d="M10.9499 1.37467C11.2496 1.32501 11.5328 1.52768 11.5824 1.82735C11.6701 2.35639 11.7583 2.88577 11.8465 3.41541C12.0737 4.77966 12.3012 6.14566 12.5213 7.51223C12.5225 7.51615 12.5255 7.52608 12.5318 7.54437C12.5331 7.54822 12.5348 7.55307 12.5368 7.55874C12.5476 7.58985 12.567 7.6457 12.581 7.69705C12.5964 7.75312 12.6261 7.87253 12.6104 8.01062C12.5911 8.18048 12.5005 8.37971 12.2905 8.4994C12.1046 8.60536 11.9243 8.57822 11.8609 8.56611C11.7804 8.55074 11.7133 8.52352 11.6737 8.50596C11.6301 8.48665 11.5924 8.46651 11.5682 8.45319C11.556 8.44653 11.5446 8.44006 11.5389 8.43686C11.5377 8.43619 11.5367 8.43565 11.5359 8.43521C11.4102 8.37111 11.2988 8.31172 11.1926 8.25508C11.0324 8.16965 10.8839 8.09049 10.7155 8.01085C10.427 7.8745 10.1282 7.7577 9.80853 7.63272L9.77891 7.62114C9.45437 7.49424 9.10865 7.35829 8.77024 7.19371C8.69315 7.15622 8.6244 7.11501 8.56929 7.08068C8.53818 7.0613 8.51637 7.04738 8.49704 7.03504C8.47386 7.02024 8.45424 7.00772 8.42643 6.99079C8.34188 6.93935 8.31213 6.93136 8.30325 6.9298C8.00405 6.87734 7.80404 6.59227 7.8565 6.29308C7.90896 5.99389 8.19403 5.79387 8.49323 5.84634C8.71112 5.88454 8.88468 5.982 8.99822 6.05109C9.05343 6.08468 9.09294 6.10997 9.12488 6.13041C9.17528 6.16267 9.20681 6.18284 9.25133 6.20449C9.54456 6.3471 9.85094 6.46821 10.1795 6.59667C10.1934 6.6021 10.2073 6.60755 10.2213 6.61301C10.5315 6.73424 10.862 6.8634 11.1855 7.01635C11.2359 7.04013 11.2872 7.06524 11.3389 7.09115C11.1496 5.92679 10.9559 4.76346 10.7619 3.59891C10.6736 3.06866 10.5852 2.53816 10.4972 2.00719C10.4476 1.70752 10.6502 1.42433 10.9499 1.37467ZM12.1195 7.50034C12.1193 7.50024 12.119 7.50011 12.1186 7.49995C12.1208 7.50083 12.1211 7.50107 12.1195 7.50034Z" fill="white"/>
<path fill-rule="evenodd" clip-rule="evenodd" d="M20.4554 8.86314C20.6021 9.60824 20.1169 10.3311 19.3718 10.4778C19.0637 10.5384 18.7148 10.6185 18.3422 10.704C17.8559 10.8156 17.3293 10.9364 16.8006 11.0353C17.189 11.7445 17.5913 12.3535 18.0795 12.8348C18.6202 13.368 18.6264 14.2386 18.0932 14.7793C17.56 15.3201 16.6895 15.3262 16.1487 14.7931C15.0244 13.6846 14.3004 12.2379 13.7214 11.0516C13.7707 11.1526 13.6112 10.8441 13.5284 10.6606C13.4806 10.5547 13.4119 10.3943 13.3629 10.2272C13.3404 10.1506 13.3009 10.0035 13.2902 9.82638C13.2848 9.7366 13.2831 9.5861 13.3231 9.40818C13.3631 9.2304 13.4632 8.94646 13.7219 8.69717C14.0079 8.42164 14.3274 8.34512 14.4968 8.32187C14.6716 8.29787 14.8133 8.31238 14.8876 8.32284C15.037 8.34386 15.1533 8.38464 15.1996 8.40139C15.2616 8.42385 15.3191 8.44885 15.365 8.47018C15.3801 8.46856 15.3966 8.4668 15.4129 8.46513C16.1259 8.39213 16.7658 8.24358 17.4869 8.07619C17.9016 7.97993 18.3431 7.87744 18.8408 7.7795C19.5859 7.63288 20.3088 8.11804 20.4554 8.86314ZM14.2006 10.9615C14.2005 10.9614 14.2021 10.9621 14.2054 10.9637C14.2023 10.9623 14.2006 10.9615 14.2006 10.9615Z" fill="black"/>
<path fill-rule="evenodd" clip-rule="evenodd" d="M19.6458 9.02214C19.7045 9.32018 19.5104 9.60933 19.2124 9.66798C18.8515 9.73899 18.4725 9.82619 18.083 9.9158C17.2801 10.1005 16.4328 10.2954 15.6089 10.3798C15.5938 10.3814 15.5766 10.3834 15.5577 10.3856C15.5519 10.3863 15.5459 10.387 15.5397 10.3877C16.1045 11.5363 16.6851 12.6184 17.5001 13.422C17.7164 13.6353 17.7188 13.9835 17.5056 14.1998C17.2923 14.4161 16.9441 14.4186 16.7278 14.2053C15.7178 13.2095 15.0478 11.8882 14.4627 10.6894C14.4807 10.7263 14.3616 10.5013 14.2802 10.3209C14.2369 10.2251 14.1871 10.1061 14.1544 9.99462C14.1388 9.94167 14.1188 9.86307 14.1136 9.77648L14.1135 9.77541C14.1106 9.72691 14.0958 9.48214 14.2942 9.29099C14.4097 9.17973 14.5391 9.14848 14.6088 9.1389C14.6808 9.12902 14.7399 9.13491 14.7725 9.1395C14.838 9.1487 14.8917 9.16709 14.9184 9.17677C14.9777 9.19824 15.0357 9.22638 15.0738 9.24547C15.1115 9.26441 15.1488 9.2843 15.1746 9.29806C15.1772 9.29946 15.1797 9.30079 15.1821 9.30206C15.1822 9.30212 15.1823 9.30218 15.1824 9.30224C15.199 9.30537 15.222 9.30745 15.256 9.30685C15.3049 9.30598 15.3503 9.30111 15.4214 9.29349C15.4437 9.2911 15.4686 9.28844 15.4968 9.28554C16.2564 9.20776 16.9814 9.04019 17.7408 8.8647C18.1472 8.77078 18.5634 8.67459 19 8.58868C19.298 8.53003 19.5872 8.7241 19.6458 9.02214ZM15.2075 9.67642C15.2072 9.67505 15.2071 9.6744 15.2071 9.67442C15.2071 9.67443 15.2073 9.67511 15.2075 9.67642Z" fill="white"/>
<path fill-rule="evenodd" clip-rule="evenodd" d="M10.0684 12.5036C10.0515 12.5717 10.0351 12.6324 10.0162 12.6892C9.96982 12.8285 9.98264 12.9548 9.9929 13.0233C9.99835 13.0596 10.0054 13.093 10.0098 13.1138C10.0152 13.1392 10.0171 13.148 10.0183 13.1554C10.0211 13.1722 10.0229 13.1909 10.0268 13.2307C10.0272 13.2354 10.0277 13.2405 10.0282 13.246C10.0323 13.2881 10.0387 13.3521 10.0525 13.419C10.0806 13.555 10.1528 13.7681 10.3723 13.9105C10.4682 13.9726 10.5796 14.0095 10.7028 14.0081C10.8028 14.007 10.8869 13.9794 10.9209 13.9682L10.9232 13.9675C10.9246 13.967 10.931 13.9651 10.9468 13.9628C10.964 13.9604 10.9847 13.9586 11.0191 13.9561C11.2586 13.9389 11.4181 13.8094 11.5128 13.7C11.5757 13.6272 11.6402 13.5215 11.6637 13.4831C11.6676 13.4766 11.6704 13.472 11.6718 13.4699C11.7084 13.4138 11.757 13.361 11.8403 13.2706C11.8455 13.265 11.8508 13.2592 11.8563 13.2532C11.9371 13.1655 12.0531 13.0385 12.1397 12.8804C12.1425 12.8752 12.1506 12.8624 12.1786 12.8317C12.1903 12.8189 12.2018 12.8069 12.217 12.7909C12.2211 12.7866 12.2255 12.782 12.2302 12.777C12.2505 12.7557 12.2759 12.7287 12.3018 12.6988C12.3353 12.6601 12.3696 12.6234 12.4104 12.5797C12.419 12.5705 12.4278 12.561 12.437 12.5511C12.4869 12.4975 12.5448 12.4345 12.6011 12.3648C12.7574 12.171 12.7271 11.8871 12.5333 11.7307C12.3395 11.5743 12.0556 11.6047 11.8992 11.7985C11.8644 11.8416 11.8251 11.8848 11.7769 11.9366C11.7697 11.9444 11.7621 11.9525 11.7544 11.9608C11.7135 12.0046 11.6658 12.0556 11.6203 12.1081C11.6002 12.1312 11.5899 12.1419 11.5756 12.1565C11.562 12.1706 11.5448 12.1883 11.5122 12.2241C11.4645 12.2764 11.4017 12.3504 11.3487 12.4471C11.3212 12.4973 11.2764 12.5516 11.1929 12.6423C11.1856 12.6502 11.1778 12.6586 11.1696 12.6674C11.0982 12.7445 10.9969 12.8537 10.9162 12.9774C10.9126 12.983 10.9091 12.9885 10.9056 12.9939C10.9035 12.9819 10.9013 12.9707 10.8993 12.9611L10.892 12.9265C10.8913 12.923 10.8907 12.9199 10.8901 12.9171C10.9225 12.8112 10.9476 12.7062 10.9686 12.6181L10.9689 12.6169C10.9832 12.5573 11.0116 12.4881 11.0588 12.3961C11.0809 12.3531 11.1045 12.31 11.1312 12.261L11.1361 12.252C11.1637 12.2014 11.1949 12.1443 11.2243 12.0856C11.2482 12.0379 11.269 11.99 11.2842 11.9549C11.2855 11.9519 11.2868 11.9489 11.288 11.9461C11.3054 11.9061 11.3168 11.8806 11.3284 11.8584C11.3302 11.8548 11.333 11.8496 11.3365 11.8431C11.3547 11.8095 11.3917 11.7408 11.4173 11.6769C11.4543 11.5846 11.4637 11.5019 11.4681 11.4595L11.4707 11.4319L11.4723 11.4162M11.4723 11.4162C11.4723 11.4162 11.4728 11.414 11.4731 11.4128C11.4761 11.4012 11.481 11.3819 11.4853 11.3612L11.4856 11.36C11.4878 11.35 11.4994 11.2961 11.4987 11.2366C11.4985 11.2186 11.4972 11.1752 11.4831 11.1225C11.4736 11.0868 11.4307 10.9365 11.2691 10.8447C11.0745 10.7341 10.8943 10.8046 10.8261 10.8423C10.7609 10.8783 10.7202 10.9221 10.7054 10.9386C10.7054 10.9386 10.7028 10.941 10.6996 10.9436C10.6957 10.9468 10.6905 10.9509 10.6827 10.9568L10.6537 10.9784C10.5812 11.0324 10.5237 11.0908 10.4834 11.1333C10.4638 11.154 10.4495 11.1694 10.4377 11.1822C10.4197 11.2016 10.4074 11.215 10.3901 11.2319C10.31 11.3102 10.2565 11.3998 10.2364 11.4334C10.2342 11.4371 10.2324 11.4402 10.231 11.4424C10.2295 11.445 10.2281 11.4472 10.2268 11.4491C10.2119 11.4604 10.1977 11.4715 10.1857 11.4807C10.1817 11.4838 10.1779 11.4868 10.1745 11.4894C10.1543 11.505 10.1404 11.5154 10.1281 11.524C10.1059 11.5395 10.0973 11.5424 10.0973 11.5424C10.0785 11.5488 10.0533 11.5568 10.0237 11.5661C9.91536 11.6003 9.748 11.6532 9.61863 11.7185C9.57714 11.7395 9.52788 11.7693 9.48316 11.7978C9.50087 11.7353 9.50872 11.6796 9.51321 11.6462C9.51474 11.6349 9.51591 11.626 9.51685 11.6189C9.52582 11.6005 9.53842 11.5727 9.54958 11.5384C9.57373 11.4643 9.58084 11.3966 9.58293 11.3465C9.58495 11.2978 9.5825 11.2529 9.58111 11.2276C9.581 11.2255 9.58089 11.2236 9.58079 11.2217C9.57969 11.2018 9.57914 11.1917 9.57893 11.1844C9.59463 11.1179 9.61065 11.0624 9.62917 10.9984C9.64268 10.9516 9.65752 10.9003 9.67452 10.8368C9.71177 10.6975 9.74884 10.532 9.75485 10.344C9.7628 10.0951 9.56746 9.88683 9.31854 9.87888C9.06962 9.87093 8.86139 10.0663 8.85343 10.3152C8.85064 10.4026 8.83329 10.4915 8.80329 10.6037C8.7954 10.6332 8.78489 10.6699 8.77319 10.7108C8.74794 10.7991 8.71719 10.9066 8.69556 11.0014C8.68004 11.0694 8.67709 11.1304 8.67696 11.1744C8.67685 11.2112 8.67896 11.2482 8.68017 11.2694C8.68028 11.2713 8.68038 11.2731 8.68047 11.2748C8.66699 11.3045 8.65041 11.3472 8.63982 11.397C8.63352 11.4267 8.62929 11.4535 8.62626 11.4747C8.62447 11.4873 8.62228 11.504 8.62077 11.5155C8.62019 11.5199 8.61971 11.5236 8.6194 11.5259C8.61702 11.5436 8.61566 11.5506 8.61535 11.5522C8.61151 11.5648 8.6068 11.5788 8.59932 11.6009L8.59883 11.6023C8.59189 11.6228 8.58235 11.651 8.57343 11.6807C8.55531 11.7409 8.53225 11.8304 8.53024 11.9353C8.53005 11.9451 8.52953 11.9564 8.52862 11.9762C8.52842 11.9806 8.52819 11.9854 8.52795 11.9907C8.5268 12.0161 8.52537 12.0498 8.52514 12.0853C8.52478 12.1425 8.52565 12.2632 8.56739 12.3815C8.65344 12.6253 8.8548 12.721 8.96879 12.7569C9.02557 12.7748 9.07796 12.784 9.11051 12.7892C9.1363 12.7933 9.14727 12.7948 9.1545 12.7958C9.16091 12.7967 9.16436 12.7972 9.17259 12.7987C9.17615 12.7994 9.17897 12.8 9.18564 12.8014C9.19004 12.8024 9.19612 12.8037 9.20518 12.8056C9.22279 12.8093 9.24973 12.8148 9.27974 12.8193C9.32653 12.8263 9.44468 12.8422 9.57349 12.802C9.69177 12.7651 9.77114 12.7024 9.812 12.668C9.82098 12.6605 9.82944 12.6531 9.83479 12.6485L9.83579 12.6476L9.84551 12.6392C9.89671 12.6068 9.9277 12.5854 9.95099 12.5694C9.97964 12.5497 9.99664 12.538 10.0253 12.5235C10.0396 12.5163 10.0539 12.5097 10.0684 12.5036" fill="black"/>
<path fill-rule="evenodd" clip-rule="evenodd" d="M12.5903 12.655C12.6018 12.3515 12.8573 12.1148 13.1608 12.1264C13.9248 12.1555 14.7377 12.2317 15.5261 12.5184C16.1583 12.7483 16.7095 13.1179 17.1912 13.4756C17.2576 13.5249 17.3292 13.576 17.4042 13.6296C17.7595 13.8834 18.1915 14.192 18.5132 14.621C18.6955 14.864 18.6462 15.2087 18.4032 15.391C18.1602 15.5732 17.8155 15.524 17.6332 15.281C17.4227 15.0003 17.1598 14.8109 16.8162 14.5633C16.7281 14.4997 16.6346 14.4324 16.5354 14.3587C16.0761 14.0177 15.6285 13.7261 15.1502 13.5522C14.525 13.3248 13.8496 13.2534 13.1189 13.2256C12.8154 13.214 12.5787 12.9586 12.5903 12.655Z" fill="#A7DC22"/>
<path fill-rule="evenodd" clip-rule="evenodd" d="M12.3329 12.9521C12.5463 12.736 12.8946 12.7339 13.1107 12.9474C13.2271 13.0625 13.3564 13.184 13.4919 13.3114C13.8837 13.6797 14.328 14.0974 14.6673 14.5509C14.7262 14.6297 14.7797 14.694 14.841 14.7678C14.8777 14.812 14.9172 14.8596 14.9624 14.9157C15.0719 15.0516 15.1925 15.2122 15.2965 15.4084C15.3108 15.4354 15.3252 15.4625 15.3396 15.4897C15.5361 15.8594 15.7497 16.2613 15.8999 16.7187C15.9081 16.7437 15.9182 16.7713 15.9318 16.8083C15.9331 16.8117 15.9345 16.8153 15.9358 16.819C15.9478 16.8514 15.9626 16.8913 15.9765 16.9317C16.007 17.0207 16.0449 17.1449 16.058 17.2857L16.0631 17.3435C16.0644 17.3575 16.0653 17.365 16.066 17.3696C16.1705 17.6514 16.0292 17.9656 15.7479 18.0739C15.4644 18.1831 15.1461 18.0418 15.037 17.7583C14.9803 17.611 14.9694 17.4722 14.9643 17.407C14.9637 17.3992 14.9631 17.3924 14.9626 17.3869C14.9616 17.3759 14.9567 17.3489 14.936 17.2886C14.9267 17.2616 14.9167 17.2345 14.9039 17.2001L14.9002 17.1901C14.8868 17.1537 14.8702 17.1086 14.8548 17.0619C14.7351 16.6973 14.5633 16.3736 14.3577 15.986C14.3467 15.9654 14.3357 15.9446 14.3246 15.9236C14.2685 15.8178 14.1979 15.7201 14.1059 15.6059C14.081 15.5751 14.0514 15.5393 14.0192 15.5004C13.9465 15.4127 13.8606 15.3089 13.7865 15.2098C13.509 14.839 13.1727 14.5227 12.8049 14.177C12.6538 14.0349 12.4974 13.8878 12.3376 13.7299C12.1215 13.5164 12.1194 13.1682 12.3329 12.9521Z" fill="#A7DC22"/>
<path fill-rule="evenodd" clip-rule="evenodd" d="M3.29861 5.71859C3.44187 5.45073 3.77514 5.34972 4.043 5.49298C4.17987 5.56619 4.33057 5.6421 4.48884 5.72182C4.94775 5.95299 5.47033 6.21622 5.90421 6.53855C5.97885 6.594 6.0443 6.63768 6.11985 6.6881C6.1654 6.71849 6.21462 6.75133 6.27173 6.79068C6.40879 6.88511 6.56386 6.99982 6.71318 7.15167C6.73351 7.17234 6.75401 7.19314 6.77466 7.21409C7.05239 7.4959 7.3567 7.80466 7.61667 8.18029C7.63032 8.20001 7.64638 8.22171 7.66869 8.25148C7.67078 8.25427 7.67295 8.25716 7.67517 8.26012C7.69469 8.28615 7.71902 8.3186 7.74267 8.35181C7.79458 8.42471 7.86441 8.52998 7.9151 8.6584L7.93488 8.70895C7.93806 8.71698 7.94023 8.7222 7.94171 8.72566C8.11879 8.96583 8.07203 9.30466 7.83449 9.48761C7.59384 9.67296 7.2485 9.62812 7.06315 9.38747C6.96837 9.26441 6.91993 9.13618 6.89843 9.07926C6.8959 9.07259 6.89375 9.06689 6.89194 9.0623C6.89016 9.05778 6.8809 9.03799 6.84661 8.98983C6.83129 8.96831 6.81519 8.94683 6.79435 8.91903L6.78839 8.91108C6.76648 8.88184 6.73899 8.84504 6.71217 8.80629C6.50828 8.5117 6.26698 8.26651 5.9749 7.96972C5.95969 7.95427 5.94435 7.93868 5.92887 7.92293C5.85139 7.84414 5.76222 7.77544 5.64766 7.69651C5.61715 7.67549 5.58073 7.65112 5.54097 7.6245C5.45068 7.56405 5.34312 7.49205 5.24822 7.42155C4.89642 7.16019 4.50503 6.96301 4.0753 6.74651C3.89809 6.65723 3.71437 6.56467 3.52422 6.46297C3.25636 6.31971 3.15536 5.98644 3.29861 5.71859Z" fill="#A7DC22"/>
<path fill-rule="evenodd" clip-rule="evenodd" d="M5.76087 5.24222C5.98479 5.03697 6.3327 5.0521 6.53796 5.27601C6.59784 5.34134 6.66747 5.40376 6.7593 5.48346C6.76797 5.49098 6.7769 5.49872 6.78608 5.50666C6.86717 5.57685 6.9669 5.66317 7.06089 5.75847C7.38149 6.08352 7.60535 6.48418 7.7774 6.80491C7.96321 7.1513 8.15106 7.49093 8.34669 7.82883C8.58332 8.23757 8.75009 8.70179 8.89359 9.10124C8.93 9.2026 8.96492 9.29979 8.9991 9.39084C9.10584 9.67523 8.96184 9.9923 8.67746 10.099C8.39307 10.2058 8.076 10.0618 7.96926 9.7774C7.92302 9.65423 7.88021 9.53557 7.83885 9.42092C7.6996 9.03492 7.57674 8.69437 7.39472 8.37997C7.19195 8.02973 6.99825 7.67945 6.80806 7.32489C6.63517 7.0026 6.47527 6.73119 6.27773 6.53091C6.21585 6.46817 6.14917 6.41035 6.06287 6.33553C6.05485 6.32858 6.04667 6.32148 6.0383 6.31422C5.94646 6.23451 5.83382 6.13575 5.72709 6.01931C5.52183 5.79539 5.53696 5.44748 5.76087 5.24222Z" fill="#A7DC22"/>
<path fill-rule="evenodd" clip-rule="evenodd" d="M3.62505 8.04966C3.62619 7.74591 3.87336 7.50059 4.17711 7.50173C4.65887 7.50354 5.16935 7.55964 5.66996 7.74123C6.2515 7.95217 6.80247 8.34136 7.22438 8.66614C7.79218 9.10322 8.19866 9.59531 8.60157 10.1138C8.78795 10.3537 8.7446 10.6992 8.50475 10.8856C8.26489 11.072 7.91936 11.0286 7.73298 10.7888C7.34012 10.2832 7.00433 9.88491 6.5534 9.53779C6.14301 9.22188 5.70575 8.92434 5.29487 8.7753C4.95083 8.65051 4.57564 8.60323 4.17298 8.60172C3.86923 8.60058 3.62391 8.35342 3.62505 8.04966Z" fill="#A7DC22"/>
<path fill-rule="evenodd" clip-rule="evenodd" d="M12.5354 12.8505C12.5943 12.5525 12.8836 12.3586 13.1816 12.4175C13.7488 12.5295 14.3338 12.7181 14.883 13.0631C15.5189 13.4624 16.0961 14.0858 16.5416 14.6076C17.1279 15.2943 17.5215 16.0165 17.9152 16.7895C18.053 17.0602 17.9453 17.3914 17.6747 17.5292C17.404 17.667 17.0728 17.5594 16.935 17.2887C16.5472 16.5272 16.2018 15.9038 15.705 15.3218C15.2657 14.8072 14.7806 14.2977 14.298 13.9946C13.8953 13.7417 13.4478 13.5913 12.9685 13.4966C12.6705 13.4378 12.4766 13.1485 12.5354 12.8505Z" fill="#A7DC22"/>
</svg>
