<svg width="20" height="20" viewBox="0 0 20 20" fill="none" xmlns="http://www.w3.org/2000/svg">
<path d="M12.5 12.4997H13.3333C14.2174 12.4997 15.0652 12.8509 15.6903 13.476C16.3154 14.1011 16.6666 14.949 16.6666 15.833C16.6666 16.275 16.491 16.699 16.1785 17.0115C15.8659 17.3241 15.442 17.4997 15 17.4997H6.77663C6.48882 17.4997 6.20591 17.4251 5.95546 17.2833C5.70501 17.1415 5.49554 16.9373 5.34746 16.6905L3.51913 13.643C3.40024 13.445 3.33605 13.2189 3.33311 12.9879C3.33017 12.757 3.38859 12.5294 3.5024 12.3284C3.6162 12.1274 3.78132 11.9602 3.98089 11.8439C4.18045 11.7275 4.40731 11.6663 4.6383 11.6663H4.99996C5.2587 11.6663 5.51389 11.7266 5.74532 11.8423C5.97674 11.958 6.17805 12.126 6.3333 12.333L8.3333 14.9997V7.49967C8.3333 7.05765 8.50889 6.63372 8.82145 6.32116C9.13401 6.0086 9.55794 5.83301 9.99996 5.83301C10.442 5.83301 10.8659 6.0086 11.1785 6.32116C11.491 6.63372 11.6666 7.05765 11.6666 7.49967V11.6663C11.6666 11.8874 11.7544 12.0993 11.9107 12.2556C12.067 12.4119 12.2789 12.4997 12.5 12.4997Z" fill="#A7DC22" stroke="#A7DC22" stroke-width="1.66667" stroke-linecap="round" stroke-linejoin="round"/>
<path d="M9.99984 3.33333V2.5M14.9998 8.33333H15.8332M4.1665 8.33333H4.99984M6.119 4.4525L5.52984 3.86333M13.8807 4.4525L14.4698 3.86333" stroke="#A7DC22" stroke-width="1.66667" stroke-linecap="round" stroke-linejoin="round"/>
</svg>
