<svg width="800" height="800" viewBox="0 0 800 800" fill="none" xmlns="http://www.w3.org/2000/svg">
<path fill-rule="evenodd" clip-rule="evenodd" d="M680.137 322.604C733.288 269.453 733.288 183.278 680.137 130.127C626.986 76.9759 540.811 76.9759 487.66 130.127L146.856 470.931C132.301 485.486 121.837 503.62 116.52 523.506L82.1766 651.94C69.8166 698.163 112.1 740.447 158.324 728.087L286.758 693.744C306.643 688.426 324.777 677.963 339.333 663.408L680.137 322.604ZM156.462 534.187L122.119 662.621C117.976 678.114 132.149 692.287 147.643 688.145L276.077 653.801C288.945 650.361 300.678 643.59 310.097 634.172L650.901 293.368C687.905 256.363 687.905 196.367 650.901 159.363C613.896 122.358 553.9 122.358 516.896 159.363L176.092 500.167C166.674 509.585 159.903 521.319 156.462 534.187Z" fill="black"/>
<path d="M122.119 662.621L156.462 534.187C159.903 521.319 166.674 509.585 176.092 500.167L516.896 159.363C553.9 122.358 613.896 122.358 650.901 159.363C687.905 196.367 687.905 256.363 650.901 293.368L310.097 634.172C300.678 643.59 288.945 650.361 276.077 653.801L147.643 688.145C132.149 692.287 117.976 678.114 122.119 662.621Z" fill="white"/>
<path fill-rule="evenodd" clip-rule="evenodd" d="M366.117 454.672C365.5 457.151 364.904 459.359 364.218 461.421C362.532 466.487 362.998 471.081 363.371 473.57C363.569 474.892 363.827 476.107 363.987 476.863C364.183 477.786 364.251 478.106 364.296 478.377C364.397 478.986 364.463 479.665 364.602 481.112C364.619 481.286 364.637 481.472 364.656 481.669C364.804 483.2 365.036 485.528 365.538 487.96C366.559 492.906 369.185 500.657 377.168 505.832C380.653 508.092 384.707 509.435 389.185 509.384C392.823 509.344 395.881 508.339 397.117 507.933L397.201 507.905C397.251 507.889 397.484 507.818 398.058 507.737C398.683 507.649 399.435 507.583 400.687 507.493C409.396 506.868 415.196 502.157 418.638 498.178C420.928 495.532 423.274 491.687 424.126 490.291C424.27 490.055 424.372 489.889 424.423 489.81C425.752 487.77 427.521 485.851 430.548 482.566C430.737 482.361 430.931 482.15 431.131 481.934C434.07 478.742 438.287 474.125 441.437 468.374C441.539 468.187 441.834 467.721 442.852 466.605C443.276 466.14 443.693 465.702 444.246 465.121C444.396 464.964 444.555 464.796 444.728 464.615C445.464 463.84 446.388 462.86 447.331 461.772C448.55 460.366 449.798 459.029 451.279 457.442C451.591 457.107 451.914 456.762 452.248 456.403C454.063 454.454 456.169 452.161 458.213 449.628C463.9 442.58 462.797 432.256 455.749 426.569C448.701 420.882 438.377 421.986 432.69 429.034C431.426 430.601 429.998 432.173 428.245 434.057C427.981 434.339 427.707 434.633 427.424 434.936C425.937 436.528 424.203 438.384 422.551 440.29C421.82 441.133 421.442 441.522 420.925 442.054C420.429 442.564 419.805 443.207 418.617 444.509C416.882 446.412 414.6 449.103 412.675 452.618C411.674 454.444 410.045 456.418 407.006 459.718C406.74 460.006 406.458 460.311 406.161 460.631C403.563 463.433 399.879 467.406 396.947 471.904C396.816 472.106 396.687 472.306 396.562 472.503C396.483 472.065 396.403 471.661 396.332 471.311L396.067 470.051C396.041 469.926 396.017 469.813 395.995 469.709C397.174 465.86 398.087 462.04 398.852 458.839L398.864 458.792C399.382 456.625 400.416 454.109 402.131 450.766C402.935 449.199 403.791 447.632 404.764 445.851L404.942 445.525C405.947 443.686 407.079 441.607 408.149 439.474C409.02 437.738 409.774 435.998 410.327 434.721C410.375 434.611 410.421 434.504 410.466 434.401C411.098 432.945 411.513 432.018 411.933 431.213C412.002 431.082 412.103 430.893 412.23 430.657C412.89 429.432 414.235 426.937 415.167 424.612C416.514 421.254 416.856 418.247 417.013 416.705L417.109 415.704L417.166 415.131M417.166 415.131C417.166 415.131 417.186 415.052 417.198 415.008C417.307 414.586 417.483 413.886 417.641 413.133L417.65 413.089C417.729 412.724 418.154 410.765 418.127 408.599C418.119 407.947 418.072 406.368 417.562 404.452C417.216 403.154 415.656 397.69 409.779 394.349C402.703 390.327 396.149 392.891 393.669 394.261C391.298 395.573 389.818 397.166 389.282 397.766C389.282 397.766 389.187 397.851 389.07 397.947C388.929 398.062 388.738 398.211 388.453 398.427L387.399 399.214C384.763 401.177 382.673 403.298 381.208 404.844C380.493 405.598 379.976 406.158 379.546 406.623C378.893 407.328 378.443 407.815 377.815 408.429C374.902 411.276 372.958 414.534 372.227 415.758C372.147 415.893 372.081 416.003 372.031 416.085C371.973 416.178 371.922 416.259 371.878 416.329C371.336 416.74 370.817 417.142 370.383 417.478C370.236 417.592 370.099 417.698 369.973 417.794C369.239 418.361 368.733 418.741 368.288 419.051C367.479 419.615 367.168 419.719 367.168 419.719C366.485 419.954 365.567 420.244 364.49 420.583C360.551 421.827 354.466 423.749 349.761 426.125C348.252 426.888 346.461 427.972 344.835 429.009C345.479 426.735 345.765 424.71 345.928 423.496C345.983 423.085 346.026 422.761 346.06 422.502C346.386 421.833 346.845 420.824 347.251 419.577C348.128 416.881 348.387 414.421 348.463 412.598C348.537 410.828 348.447 409.195 348.397 408.273C348.393 408.199 348.389 408.128 348.385 408.06C348.345 407.335 348.325 406.966 348.318 406.703C348.888 404.283 349.471 402.268 350.145 399.938C350.636 398.239 351.175 396.373 351.794 394.062C353.148 388.999 354.496 382.98 354.715 376.142C355.004 367.091 347.9 359.519 338.849 359.229C329.797 358.94 322.225 366.044 321.936 375.095C321.834 378.275 321.203 381.508 320.112 385.586C319.826 386.658 319.443 387.994 319.018 389.482C318.1 392.692 316.982 396.602 316.195 400.048C315.631 402.521 315.523 404.739 315.519 406.339C315.515 407.677 315.591 409.024 315.635 409.794C315.639 409.864 315.643 409.93 315.646 409.99C315.156 411.072 314.553 412.621 314.168 414.435C313.939 415.512 313.785 416.488 313.675 417.259C313.61 417.716 313.53 418.325 313.476 418.743C313.454 418.904 313.437 419.037 313.426 419.122C313.339 419.764 313.29 420.02 313.279 420.077C313.139 420.535 312.967 421.044 312.695 421.848L312.678 421.9C312.425 422.645 312.078 423.67 311.754 424.749C311.095 426.939 310.257 430.195 310.183 434.009C310.177 434.365 310.158 434.776 310.125 435.494C310.117 435.654 310.109 435.83 310.1 436.024C310.058 436.946 310.006 438.171 309.998 439.465C309.985 441.543 310.017 445.931 311.534 450.232C314.663 459.1 321.986 462.579 326.131 463.886C328.196 464.537 330.1 464.87 331.284 465.059C332.222 465.209 332.621 465.264 332.884 465.3C333.117 465.333 333.242 465.35 333.542 465.405C333.671 465.429 333.774 465.451 334.016 465.503C334.176 465.538 334.397 465.585 334.727 465.654C335.367 465.789 336.347 465.99 337.438 466.154C339.139 466.409 343.436 466.986 348.12 465.524C352.421 464.182 355.307 461.903 356.793 460.654C357.119 460.379 357.427 460.111 357.622 459.941L357.658 459.909L358.011 459.605C359.873 458.425 361 457.65 361.847 457.067C362.889 456.35 363.507 455.924 364.548 455.398C365.07 455.135 365.588 454.896 366.117 454.672" fill="black"/>
<path fill-rule="evenodd" clip-rule="evenodd" d="M641.336 318.385C638.61 317.717 635.209 316.825 631.702 315.516C629.49 314.689 627.531 313.933 625.696 313.225C622.335 311.928 619.395 310.794 616.096 309.688C614.302 309.087 612.757 308.42 611.658 307.925C611.143 307.693 610.642 307.461 610.258 307.283L610.184 307.248C609.753 307.048 609.452 306.909 609.175 306.785C609.092 306.748 609.018 306.716 608.952 306.687C606.077 306.35 604.111 306.05 602.509 305.806C600.218 305.456 598.673 305.22 596.285 305.154C594.309 305.099 592.598 304.859 591.364 304.649C590.335 304.473 589.308 304.257 588.729 304.135C588.652 304.119 588.584 304.104 588.524 304.092C588.396 304.065 588.287 304.043 588.194 304.024C585.086 304.16 583.32 304.434 581.176 305.082C577.252 306.268 573.936 308.01 572.178 309.486C571.686 309.899 571.252 310.305 570.406 311.097C570.179 311.31 569.921 311.551 569.625 311.828C568.457 312.917 566.657 314.579 564.504 316.187C562.368 317.782 560.138 319.028 559.154 319.577C559.053 319.634 558.965 319.683 558.892 319.724C558.84 319.753 558.792 319.781 558.745 319.807C558.102 320.638 556.694 322.446 554.615 324.349C554.17 325.079 553.514 326.107 552.656 327.237C551.429 328.854 551.037 329.785 550.097 332.022C549.442 333.582 548.519 335.777 546.86 339.284C546.055 340.984 545.398 342.339 544.856 343.456C543.298 346.67 542.699 347.907 542.308 349.675C541.775 352.087 541.516 353.866 541.181 356.17C540.932 357.887 540.64 359.896 540.16 362.676C539.96 363.835 539.869 365.386 539.829 368.35C539.825 368.65 539.821 368.975 539.818 369.322C539.799 371.051 539.775 373.326 539.635 375.75C539.814 376.081 540.028 376.479 540.193 376.789C540.769 377.874 541.672 379.613 542.48 381.684C542.551 381.75 542.642 381.834 542.756 381.936C543.356 382.468 544.026 382.997 545.374 384.06L545.549 384.198C546.839 385.216 548.673 386.669 550.565 388.409C554.571 392.093 557.521 395.99 559.665 398.937C559.784 399.052 560.067 399.324 560.613 399.815C560.689 399.883 560.778 399.962 560.878 400.051C561.396 400.515 562.2 401.234 562.949 401.944C563.91 402.856 565.116 404.063 566.347 405.537C568.402 407.998 569.901 409.901 571.164 411.505C573.233 414.131 574.67 415.956 576.881 418.115C578.006 419.214 578.913 420.241 579.486 420.9L579.643 421.081C580.016 421.23 580.42 421.382 580.919 421.57C581.814 421.907 583.015 422.358 584.893 423.117C585.894 423.521 586.733 423.768 588.435 424.27C588.982 424.432 589.618 424.619 590.377 424.847C593.071 425.654 597.053 426.913 601.291 429.21C606.089 431.81 610.81 434.733 614.923 437.278C615.269 437.492 615.61 437.704 615.947 437.912C617.124 437.876 618.791 437.853 620.7 437.987C623.503 438.184 625.723 438.389 627.674 438.569C630.23 438.805 632.323 438.998 634.657 439.074C634.91 438.977 635.222 438.852 635.625 438.688L636.772 438.218C637.191 438.047 637.691 437.844 638.219 437.64C646.84 434.304 655.313 433.372 661.544 432.783C662.573 432.686 663.538 432.597 664.447 432.514C669.729 432.029 673.153 431.715 676.541 430.852C677.439 430.623 678.317 430.419 679.052 430.25C679.314 430.19 679.551 430.136 679.775 430.085C680.243 429.979 680.651 429.886 681.097 429.781C681.882 429.596 682.482 429.444 682.957 429.311C683.135 429.084 683.307 428.865 683.47 428.659C683.769 428.278 684.033 427.943 684.229 427.692C685.028 426.665 685.55 425.959 685.947 425.368C686.324 424.804 686.499 424.474 686.58 424.3C686.65 424.151 686.669 424.07 686.669 424.07C686.723 423.84 686.775 423.553 686.826 422.988C686.855 422.676 686.882 422.296 686.913 421.761C686.934 421.402 686.949 421.129 686.966 420.81C686.98 420.542 686.996 420.243 687.019 419.832C687.256 415.589 688.359 411.978 689.071 409.855C689.434 408.774 689.814 407.747 690.078 407.033L690.108 406.95C690.414 406.123 690.572 405.692 690.69 405.337C691.088 404.141 691.496 403.014 691.806 402.157L691.851 402.034C692.196 401.079 692.42 400.456 692.608 399.884C692.874 399.071 692.937 398.742 692.948 398.678C693.185 396.148 693.722 394.025 694.171 392.522C694.113 392.394 694.053 392.263 693.992 392.129C692.447 388.739 689.995 383.359 688.492 377.867C688.395 377.706 688.257 377.481 688.067 377.187C687.846 376.846 687.611 376.493 687.29 376.01C686.995 375.565 686.615 374.993 686.234 374.402C685.48 373.233 684.465 371.597 683.515 369.688C683.044 368.743 682.615 367.801 682.325 367.164L682.252 367.003C681.979 366.403 681.794 365.996 681.613 365.615L681.406 365.419C681.024 365.053 680.505 364.549 679.934 363.945C675.264 359.017 672.116 353.446 669.942 349.131C668.823 346.911 667.818 344.72 666.977 342.875C666.88 342.663 666.786 342.457 666.694 342.256C665.935 340.589 665.329 339.259 664.719 338.01C663.917 336.368 663.358 334.671 663.029 332.958C660.084 330.197 658.196 327.227 657.294 325.773C657.081 325.43 656.813 324.987 656.584 324.607C655.862 324.072 654.849 323.291 653.739 322.277C653.392 321.96 652.371 321.195 648.394 320.115C647.009 319.739 645.808 319.455 644.324 319.103C643.456 318.897 642.491 318.669 641.336 318.385ZM706.594 332.271C707.755 334.433 708.595 335.591 709.161 336.197C709.161 336.197 709.206 336.241 709.255 336.288L709.977 336.97C710.661 337.62 711.942 338.854 713.274 340.51C715.604 343.41 717.117 346.451 717.901 348.082C718.757 349.865 718.924 350.27 719.043 350.558C719.141 350.794 719.206 350.952 719.591 351.724C719.591 351.724 719.707 351.946 720.108 352.568C720.317 352.892 720.546 353.238 720.859 353.71L720.907 353.782C721.189 354.205 721.544 354.74 721.901 355.291C723.262 357.395 725.94 361.619 727.32 367.064C727.828 369.07 728.685 370.98 730.284 374.543C730.664 375.391 731.087 376.332 731.557 377.39C731.636 377.57 731.705 377.717 731.85 378.027C731.898 378.129 731.954 378.248 732.021 378.393C732.243 378.867 732.612 379.661 732.983 380.565C733.778 382.502 734.722 385.256 735.115 388.704C735.852 395.17 734.063 400.369 733.383 402.343L733.37 402.38C733.133 403.07 733.014 403.401 732.944 403.596C732.208 409.305 730.051 415.055 729.22 417.272C729.081 417.642 728.979 417.914 728.927 418.07C728.579 419.115 728.202 420.134 727.943 420.833L727.907 420.931C727.607 421.741 727.428 422.231 727.279 422.673C727.255 422.745 727.234 422.809 727.216 422.865C727.102 425.148 726.907 428.975 725.92 433.211C723.58 443.258 717.282 451.012 714.397 454.564C713.992 455.063 713.655 455.478 713.405 455.806C708.035 462.842 700.802 465.861 696.491 467.303C693.411 468.333 688.896 469.357 687.162 469.75C686.818 469.828 686.584 469.882 686.491 469.905C679.715 471.632 672.691 472.252 667.588 472.702C666.787 472.773 666.034 472.839 665.337 472.905C659.418 473.465 655.784 474.056 652.765 475.225C652.438 475.351 652.148 475.47 651.683 475.661C651.456 475.754 651.188 475.865 650.854 476.001C649.999 476.35 648.812 476.827 647.503 477.286C645.139 478.115 640.851 479.455 635.784 479.406C631.228 479.362 625.922 478.888 621.869 478.526C620.316 478.387 618.947 478.264 617.875 478.189C617.875 478.189 617.826 478.185 617.683 478.185C617.528 478.185 617.311 478.189 616.937 478.203C616.874 478.205 616.783 478.209 616.669 478.214C615.985 478.242 614.467 478.306 613.097 478.284C608.849 478.216 603.288 477.412 597.407 473.823C595.839 472.866 594.38 471.963 592.989 471.103C589.115 468.707 585.771 466.638 582.087 464.641C581.615 464.385 580.88 464.073 578.807 463.451C578.55 463.374 578.241 463.284 577.889 463.182C575.988 462.628 572.827 461.707 569.803 460.486C569.562 460.389 569.172 460.24 568.671 460.05C566.656 459.282 562.862 457.837 559.917 456.354C555.432 454.095 552.492 451.154 550.816 449.325C550.24 448.696 549.571 447.92 549.244 447.541C549.175 447.46 549.121 447.397 549.086 447.358C548.818 447.05 548.703 446.929 548.703 446.929C544.607 442.924 540.545 437.802 537.718 434.237C536.81 433.092 536.03 432.108 535.416 431.372C535.416 431.372 535.233 431.189 533.688 429.802L533.61 429.731C532.3 428.555 529.617 426.148 527.247 422.882C525.343 420.258 524.287 418.995 523.287 418.075C522.621 417.463 521.848 416.833 520.585 415.837C520.475 415.75 520.357 415.657 520.233 415.559C519.135 414.696 517.532 413.434 515.998 412.072C512.239 408.734 507.745 403.839 504.952 396.378C504.918 396.307 504.817 396.1 504.604 395.699C504.563 395.621 504.491 395.489 504.398 395.317C504.019 394.617 503.28 393.252 502.746 392.17C501.268 389.174 498.413 382.827 499.296 374.744C499.461 373.231 499.481 371.663 499.517 368.885C499.521 368.543 499.526 368.182 499.531 367.801C499.572 364.816 499.652 360.427 500.446 355.825C500.587 355.01 500.765 353.832 500.974 352.449C501.481 349.093 502.172 344.526 502.957 340.977C504.489 334.044 507.711 327.55 509.576 323.792C509.911 323.116 510.203 322.529 510.432 322.043C510.639 321.607 510.924 320.935 511.285 320.084C512.883 316.317 515.97 309.045 520.288 303.228L520.492 302.88C520.629 302.646 520.855 302.26 521.116 301.837C522.134 300.184 523.989 297.419 527.141 294.797L527.159 294.774C527.473 294.368 528.161 293.479 528.912 292.609C529.83 291.546 531.108 290.187 532.784 288.817C535.29 286.767 537.784 285.36 538.985 284.682L539.077 284.63C540.091 284.058 540.411 283.868 540.467 283.837C540.735 283.63 541.181 283.247 542.13 282.362C542.252 282.248 542.393 282.116 542.551 281.968C543.438 281.134 544.843 279.814 546.267 278.618C553.481 272.562 562.245 268.703 569.514 266.505C576.497 264.394 582.238 263.891 587.875 263.706C590.1 263.634 592.029 263.833 593.439 264.037C594.817 264.236 596.066 264.496 596.766 264.643L596.941 264.679C597.49 264.794 597.758 264.85 597.95 264.887C602.444 265.062 608.079 265.864 611.626 266.37C612.831 266.541 613.796 266.679 614.393 266.746C619.46 267.313 623.503 269.044 625.641 270.001C626.204 270.253 626.741 270.502 627.148 270.692C627.595 270.899 627.907 271.044 628.201 271.176C628.726 271.413 628.908 271.478 628.908 271.478C633.045 272.864 637.44 274.557 641.284 276.037C642.912 276.664 644.44 277.253 645.805 277.763C647.931 278.557 649.419 278.897 651.683 279.416C653.429 279.816 655.636 280.321 658.953 281.222C664.855 282.824 673.233 285.613 680.661 292.287L681.02 292.546C681.225 292.693 681.574 292.943 681.933 293.21C683.57 294.428 686.26 296.586 688.729 300.084C689.516 301.198 690.161 302.246 690.581 302.94L691.153 303.891L691.439 304.361C694.994 307.836 697.466 311.463 699.222 314.291C700.063 315.646 700.856 317.015 701.48 318.09C701.548 318.208 701.614 318.323 701.678 318.433C702.389 319.658 702.914 320.549 703.428 321.354C705.59 324.742 706.612 328.531 706.594 332.271Z" fill="black"/>
<path d="M631.702 315.516C635.209 316.825 638.61 317.717 641.336 318.385C642.491 318.669 643.456 318.897 644.324 319.103C645.808 319.455 647.009 319.739 648.394 320.115C652.371 321.195 653.392 321.96 653.739 322.277C654.849 323.291 655.862 324.072 656.584 324.607C656.813 324.987 657.081 325.43 657.294 325.773C658.196 327.227 660.084 330.197 663.029 332.958C663.358 334.671 663.917 336.368 664.719 338.01C665.329 339.259 665.935 340.589 666.694 342.256L666.977 342.875C667.818 344.72 668.823 346.911 669.942 349.131C672.116 353.446 675.264 359.017 679.934 363.945C680.505 364.549 681.024 365.053 681.406 365.419L681.613 365.615C681.794 365.996 681.979 366.403 682.252 367.003L682.325 367.164C682.615 367.801 683.044 368.743 683.515 369.688C684.465 371.597 685.48 373.233 686.234 374.402C686.615 374.993 686.995 375.565 687.29 376.01C687.611 376.493 687.846 376.846 688.067 377.187C688.257 377.481 688.395 377.706 688.492 377.867C689.995 383.359 692.447 388.739 693.992 392.129L694.171 392.522C693.722 394.025 693.185 396.148 692.948 398.678C692.937 398.742 692.874 399.071 692.608 399.884C692.42 400.456 692.196 401.079 691.851 402.034L691.806 402.157C691.496 403.014 691.088 404.141 690.69 405.337C690.572 405.692 690.414 406.123 690.108 406.95L690.078 407.033C689.814 407.747 689.434 408.774 689.071 409.855C688.359 411.978 687.256 415.589 687.019 419.832L686.966 420.81L686.913 421.761C686.882 422.296 686.855 422.676 686.826 422.988C686.775 423.553 686.723 423.84 686.669 424.07C686.669 424.07 686.65 424.151 686.58 424.3C686.499 424.474 686.324 424.804 685.947 425.368C685.55 425.959 685.028 426.665 684.229 427.692L683.47 428.659L682.957 429.311C682.482 429.444 681.882 429.596 681.097 429.781C680.651 429.886 680.243 429.979 679.775 430.085L679.052 430.25C678.317 430.419 677.439 430.623 676.541 430.852C673.153 431.715 669.729 432.029 664.447 432.514L661.544 432.783C655.313 433.372 646.84 434.304 638.219 437.64C637.691 437.844 637.191 438.047 636.772 438.218L635.625 438.688C635.222 438.852 634.91 438.977 634.657 439.074C632.323 438.998 630.23 438.805 627.674 438.569C625.723 438.389 623.503 438.184 620.7 437.987C618.791 437.853 617.124 437.876 615.947 437.912L614.923 437.278C610.81 434.733 606.089 431.81 601.291 429.21C597.053 426.913 593.071 425.654 590.377 424.847C589.618 424.619 588.982 424.432 588.435 424.27C586.733 423.768 585.894 423.521 584.893 423.117C583.015 422.358 581.814 421.907 580.919 421.57C580.42 421.382 580.016 421.23 579.643 421.081L579.486 420.9C578.913 420.241 578.006 419.214 576.881 418.115C574.67 415.956 573.233 414.131 571.164 411.505C569.901 409.901 568.402 407.998 566.347 405.537C565.116 404.063 563.91 402.856 562.949 401.944C562.2 401.234 561.396 400.515 560.878 400.051L560.613 399.815C560.067 399.324 559.784 399.052 559.665 398.937C557.521 395.99 554.571 392.093 550.565 388.409C548.673 386.669 546.839 385.216 545.549 384.198L545.374 384.06C544.026 382.997 543.356 382.468 542.756 381.936C542.642 381.834 542.551 381.75 542.48 381.684C541.672 379.613 540.769 377.874 540.193 376.789L539.635 375.75C539.775 373.326 539.799 371.051 539.818 369.322L539.829 368.35C539.869 365.386 539.96 363.835 540.16 362.676C540.64 359.896 540.932 357.887 541.181 356.17C541.516 353.866 541.775 352.087 542.308 349.675C542.699 347.907 543.298 346.67 544.856 343.456C545.398 342.339 546.055 340.984 546.86 339.284C548.519 335.777 549.442 333.582 550.097 332.022C551.037 329.785 551.429 328.854 552.656 327.237C553.514 326.107 554.17 325.079 554.615 324.349C556.694 322.446 558.102 320.638 558.745 319.807L558.892 319.724L559.154 319.577C560.138 319.028 562.368 317.782 564.504 316.187C566.657 314.579 568.457 312.917 569.625 311.828L570.406 311.097C571.252 310.305 571.686 309.899 572.178 309.486C573.936 308.01 577.252 306.268 581.176 305.082C583.32 304.434 585.086 304.16 588.194 304.024L588.524 304.092L588.729 304.135C589.308 304.257 590.335 304.473 591.364 304.649C592.598 304.859 594.309 305.099 596.285 305.154C598.673 305.22 600.218 305.456 602.509 305.806C604.111 306.05 606.077 306.35 608.952 306.687L609.175 306.785C609.452 306.909 609.753 307.048 610.184 307.248L610.258 307.283C610.642 307.461 611.143 307.693 611.658 307.925C612.757 308.42 614.302 309.087 616.096 309.688C619.395 310.794 622.335 311.928 625.696 313.225C627.531 313.933 629.49 314.689 631.702 315.516Z" fill="white"/>
<path fill-rule="evenodd" clip-rule="evenodd" d="M403.748 178.87C401.048 177.533 398.925 176.482 396.583 175.5C394.933 174.808 393.391 174.073 392.144 173.467C391.554 173.18 391.076 172.944 390.642 172.731C390.005 172.418 389.464 172.151 388.805 171.837C387.839 171.377 387.136 171.066 386.578 170.847C386.044 170.638 385.794 170.574 385.794 170.574C384.408 170.249 382.782 169.896 380.996 169.509C375.516 168.32 368.528 166.805 362.349 164.755C361.92 164.612 361.029 164.395 358.93 164.069C358.608 164.019 358.203 163.959 357.738 163.89C355.989 163.632 353.393 163.248 351.149 162.781C349.91 162.523 348.718 162.236 347.761 162.003C347.491 161.937 347.242 161.875 347.008 161.818C346.325 161.651 345.768 161.514 345.178 161.377C344.432 161.204 343.885 161.091 343.459 161.017C343.059 160.948 342.866 160.932 342.866 160.932C338.868 160.682 334.703 160.04 331.675 159.574C331.048 159.478 330.47 159.389 329.952 159.312C326.345 158.779 324.232 158.593 322.604 158.668C322.538 158.675 321.673 158.778 319.507 159.62C318.431 160.039 317.258 160.547 315.822 161.191C315.493 161.338 315.13 161.502 314.742 161.677C313.623 162.182 312.308 162.775 311.1 163.295C309.472 163.996 307.978 164.561 306.831 164.989C306.585 165.081 306.361 165.164 306.155 165.241C305.291 165.563 304.73 165.772 304.152 166.006C302.989 166.476 302.703 166.682 302.537 166.807C302.004 167.207 301.593 167.513 301.219 167.791C300.731 168.153 300.308 168.467 299.767 168.879C298.966 169.488 298.365 169.966 297.876 170.386C297.208 170.959 296.936 171.269 296.875 171.34C296.221 172.375 295.759 173.377 294.799 175.455C294.446 176.217 294.027 177.125 293.507 178.233C291.931 181.585 289.322 186.931 284.901 191.827C284.852 191.904 284.754 192.062 284.616 192.32C284.277 192.957 283.856 193.894 283.376 195.193C282.519 197.506 281.856 199.858 281.068 202.652C280.907 203.222 280.741 203.81 280.568 204.42C280.356 205.164 280.145 205.878 279.966 206.483C279.778 207.12 279.625 207.637 279.485 208.131C279.203 209.118 279.057 209.711 278.972 210.136C278.926 210.372 278.905 210.513 278.897 210.588C279.017 211.272 279.31 212.374 280.017 214.368C280.151 214.746 280.379 215.363 280.653 216.107C281.293 217.841 282.189 220.268 282.754 221.989C282.754 221.989 282.828 222.207 283.102 222.678C283.389 223.169 283.83 223.826 284.508 224.702C285.193 225.585 286.006 226.548 287.031 227.716C287.316 228.041 287.744 228.523 288.218 229.057C288.969 229.904 289.836 230.882 290.441 231.577C291.895 233.25 293.011 234.852 293.697 235.857C294.068 236.401 294.303 236.751 294.476 237.008C294.621 237.225 294.723 237.376 294.824 237.522C294.965 237.666 295.134 237.833 295.47 238.164C295.563 238.256 295.669 238.36 295.79 238.479C295.83 238.518 295.873 238.561 295.919 238.606C296.917 239.587 299.374 242 301.406 245.201C302.227 246.496 302.816 247.669 303.211 248.518C303.387 248.898 303.55 249.268 303.686 249.583C303.789 249.698 303.915 249.837 304.069 250.01L304.149 250.098C305.158 251.221 307.573 253.906 309.478 257.592C310.181 258.953 311.666 260.917 314.56 263.682C316.68 265.707 318.726 267.422 321.159 269.461C322.258 270.381 323.435 271.368 324.733 272.479C326.857 274.296 328.51 276.459 329.68 278.814C332.301 280.224 334.035 281.213 335.282 281.923C337.39 283.125 338.103 283.532 339.347 283.833C343.705 284.889 347.316 286.2 350.876 287.707C351.11 287.74 351.711 287.814 352.858 287.862C353.422 287.885 354.022 287.902 354.775 287.921L354.987 287.926C355.651 287.943 356.449 287.963 357.249 287.993C359.011 288.057 361.352 288.184 363.875 288.564C365.08 288.745 366.552 288.831 369.009 288.889C369.331 288.896 369.686 288.903 370.067 288.911C372.173 288.953 375.09 289.011 377.945 289.257C378.401 289.296 378.825 289.338 379.179 289.374L380.106 289.469C380.232 289.482 380.34 289.492 380.436 289.501C391.034 287.074 401.409 282.717 410.979 276.876C415.84 273.91 421.18 272.97 423.24 272.614C424.653 272.37 425.994 272.189 426.954 272.062L427.374 272.007C428.213 271.896 428.597 271.845 428.902 271.795C429.604 271.681 430.315 271.573 430.88 271.487C431.032 271.464 431.173 271.442 431.301 271.423C431.977 271.319 432.434 271.245 432.827 271.173C433.524 271.045 433.846 270.953 434.103 270.864C434.968 270.564 435.747 270.297 436.461 270.052C438.907 269.215 440.583 268.64 442.293 267.896C444.251 267.044 445 266.463 445.262 266.219C446.493 265.078 447.776 263.968 448.778 263.102L448.955 262.949C450.082 261.974 450.931 261.235 451.7 260.52C452.934 259.371 453.342 258.834 453.385 258.788C454.912 256.029 455.715 253.526 455.996 251.095C456.393 247.655 456.477 244.389 456.582 240.304C456.63 238.425 456.683 236.373 456.773 234.051C456.938 229.77 456.723 225.909 456.072 222.367C455.737 220.542 455.092 218.493 453.931 215.368C453.736 214.846 453.513 214.257 453.269 213.614C452.342 211.172 451.123 207.962 450.122 204.733C449.995 204.605 449.815 204.434 449.569 204.219C448.93 203.661 448.054 202.993 446.789 202.119C445.904 201.507 445.156 201.013 444.265 200.426C443.711 200.06 443.101 199.657 442.368 199.167C442.07 198.968 441.78 198.773 441.497 198.584C437.027 195.591 434.353 193.801 430.932 192.134L407.074 180.507C405.856 179.913 404.761 179.371 403.748 178.87ZM282.074 288.046C282.492 291.657 283.757 294.699 285.032 296.896C287.029 300.335 289.544 302.671 291.146 304.002C294.392 306.7 298.092 308.671 300.559 309.893C303.284 311.242 306.018 312.402 307.95 313.208C309.924 314.033 310.501 314.265 310.501 314.265C310.818 314.441 311.222 314.672 311.724 314.963C315.135 316.942 322.511 321.221 329.856 323.001C331.616 323.427 333.151 323.957 335.421 324.929C341.65 327.596 347.687 327.982 351.171 328.128C353.165 328.211 354.42 328.238 355.31 328.256C356.526 328.282 357.064 328.294 357.878 328.416C361.77 329.002 365.408 329.117 368.066 329.179C368.629 329.192 369.144 329.203 369.622 329.213C371.7 329.258 373.066 329.287 374.489 329.409C374.6 329.427 381.538 330.501 387.832 329.142C402.957 325.875 417.316 319.977 430.277 312.297C430.802 312.21 431.418 312.124 432.24 312.015L433.667 311.826C434.164 311.758 434.763 311.673 435.383 311.572C435.635 311.531 435.955 311.484 436.332 311.429C438.59 311.098 442.921 310.463 447.318 308.937C447.791 308.773 448.341 308.59 448.958 308.386C454.322 306.606 464.696 303.163 472.671 295.765C473.357 295.128 474.148 294.443 475.318 293.432L475.334 293.418C476.399 292.496 477.779 291.303 479.157 290.021C481.801 287.56 485.612 283.724 488.483 278.596C492.28 271.813 495.053 264.194 496.031 255.715C496.65 250.357 496.805 244.316 496.926 239.602C496.964 238.118 496.999 236.765 497.044 235.607C497.296 229.087 497.012 222.175 495.71 215.087C494.715 209.67 493.045 204.928 491.705 201.323C491.313 200.268 490.961 199.337 490.64 198.49C489.73 196.084 489.076 194.355 488.494 192.4C485.895 183.669 480.475 177.699 476.063 173.85C472.535 170.773 468.428 168.074 465.917 166.424C465.486 166.14 465.102 165.888 464.776 165.67C464.385 165.408 463.986 165.14 463.58 164.867C459.49 162.12 454.605 158.839 448.587 155.906L424.729 144.279C424.044 143.945 423.285 143.568 422.469 143.164C419.502 141.693 415.789 139.852 412.163 138.333C411.163 137.913 410.41 137.541 409.263 136.974C408.476 136.585 407.505 136.105 406.142 135.456C403.542 134.217 399.562 132.409 394.999 131.338C392.154 130.671 389.676 130.134 387.423 129.646C382.745 128.634 379.041 127.831 375.04 126.504C371.266 125.252 367.61 124.633 365.127 124.247C364.103 124.087 363.285 123.967 362.595 123.864C361.233 123.663 360.364 123.534 359.367 123.327C358.503 123.147 357.953 123.009 357.185 122.818C356.509 122.649 355.662 122.438 354.28 122.117C352.113 121.615 348.906 120.931 345.388 120.71C343.366 120.583 341.438 120.29 338.578 119.855C337.752 119.73 336.849 119.592 335.843 119.444C331.939 118.867 326.545 118.144 320.763 118.409C314.421 118.698 308.863 120.519 304.907 122.057C302.43 123.02 299.246 124.452 297.088 125.422C296.269 125.79 295.597 126.092 295.169 126.276C294.488 126.57 293.756 126.853 292.733 127.234C292.592 127.287 292.438 127.344 292.273 127.406C291.391 127.734 290.2 128.176 289.05 128.641C286.051 129.853 282.298 131.606 278.338 134.579C278.092 134.765 277.789 134.985 277.438 135.241C274.329 137.507 267.475 142.504 262.969 149.554C260.635 153.206 258.715 157.414 257.583 159.894C257.37 160.361 257.185 160.766 257.031 161.095C255.674 163.982 255.136 164.658 254.992 164.815C250.043 170.232 247.229 176.75 245.581 181.201C244.107 185.182 242.941 189.344 242.167 192.104C242.036 192.572 241.916 193 241.808 193.379C241.709 193.727 241.577 194.153 241.422 194.651C240.183 198.642 237.515 207.229 239.109 217.002C239.804 221.263 241.047 225.055 242.032 227.833C242.611 229.467 243.014 230.541 243.351 231.44C243.754 232.514 244.062 233.338 244.466 234.568C246.522 240.824 249.873 245.801 252.651 249.387C254.623 251.931 257.042 254.653 258.732 256.554C259.215 257.097 259.639 257.573 259.975 257.959C260.007 258.003 260.136 258.176 260.408 258.574L260.766 259.102L261.228 259.787C261.563 260.281 262 260.917 262.5 261.601C263.607 263.117 264.709 264.339 265.539 265.21C266.181 265.885 266.864 266.557 267.282 266.967C267.382 267.196 267.493 267.442 267.61 267.693C268.007 268.545 268.59 269.708 269.4 270.989C270.437 272.629 271.486 273.95 272.284 274.897C272.892 275.617 273.572 276.37 273.927 276.763C273.992 276.834 274.046 276.894 274.086 276.939C274.119 276.975 274.149 277.009 274.177 277.041C276.478 281.262 279.277 284.925 282.074 288.046ZM278.893 210.658L278.895 210.618L278.893 210.658Z" fill="black"/>
<path d="M396.583 175.5C398.925 176.482 401.048 177.533 403.748 178.87C404.761 179.371 405.856 179.913 407.074 180.507L430.932 192.134C434.353 193.801 437.027 195.591 441.497 198.584L442.368 199.167C443.101 199.657 443.711 200.06 444.265 200.426C445.156 201.013 445.904 201.507 446.789 202.119C448.054 202.993 448.93 203.661 449.569 204.219C449.815 204.434 449.995 204.605 450.122 204.733C451.123 207.962 452.342 211.172 453.269 213.614C453.513 214.257 453.736 214.846 453.931 215.368C455.092 218.493 455.737 220.542 456.072 222.367C456.723 225.909 456.938 229.77 456.773 234.051C456.683 236.373 456.63 238.425 456.582 240.304C456.477 244.389 456.393 247.655 455.996 251.095C455.715 253.526 454.912 256.029 453.385 258.788C453.342 258.834 452.934 259.371 451.7 260.52C450.931 261.235 450.082 261.974 448.955 262.949L448.778 263.102C447.776 263.968 446.493 265.078 445.262 266.219C445 266.463 444.251 267.044 442.293 267.896C440.583 268.64 438.907 269.215 436.461 270.052C435.747 270.297 434.968 270.564 434.103 270.864C433.846 270.953 433.524 271.045 432.827 271.173C432.434 271.245 431.977 271.319 431.301 271.423L430.88 271.487C430.315 271.573 429.604 271.681 428.902 271.795C428.597 271.845 428.213 271.896 427.374 272.007L426.954 272.062C425.994 272.189 424.653 272.37 423.24 272.614C421.18 272.97 415.84 273.91 410.979 276.876C401.409 282.717 391.034 287.074 380.436 289.501L380.106 289.469L379.179 289.374C378.825 289.338 378.401 289.296 377.945 289.257C375.09 289.011 372.173 288.953 370.067 288.911L369.009 288.889C366.552 288.831 365.08 288.745 363.875 288.564C361.352 288.184 359.011 288.057 357.249 287.993C356.449 287.963 355.651 287.943 354.987 287.926L354.775 287.921C354.022 287.902 353.422 287.885 352.858 287.862C351.711 287.814 351.11 287.74 350.876 287.707C347.316 286.2 343.705 284.889 339.347 283.833C338.103 283.532 337.39 283.125 335.282 281.923C334.035 281.213 332.301 280.224 329.68 278.814C328.51 276.459 326.857 274.296 324.733 272.479C323.435 271.368 322.258 270.381 321.159 269.461C318.726 267.422 316.68 265.707 314.56 263.682C311.666 260.917 310.181 258.953 309.478 257.592C307.573 253.906 305.158 251.221 304.149 250.098L304.069 250.01L303.686 249.583C303.55 249.268 303.387 248.898 303.211 248.518C302.816 247.669 302.227 246.496 301.406 245.201C299.374 242 296.917 239.587 295.919 238.606L295.79 238.479L295.47 238.164C295.134 237.833 294.965 237.666 294.824 237.522C294.723 237.376 294.621 237.225 294.476 237.008C294.303 236.751 294.068 236.401 293.697 235.857C293.011 234.852 291.895 233.25 290.441 231.577C289.836 230.882 288.969 229.904 288.218 229.057L287.031 227.716C286.006 226.548 285.193 225.585 284.508 224.702C283.83 223.826 283.389 223.169 283.102 222.678C282.828 222.207 282.754 221.989 282.754 221.989C282.189 220.268 281.293 217.841 280.653 216.107C280.379 215.363 280.151 214.746 280.017 214.368C279.31 212.374 279.017 211.272 278.897 210.588C278.905 210.513 278.926 210.372 278.972 210.136C279.057 209.711 279.203 209.118 279.485 208.131C279.625 207.637 279.778 207.12 279.966 206.483C280.145 205.878 280.356 205.164 280.568 204.42L281.068 202.652C281.856 199.858 282.519 197.506 283.376 195.193C283.856 193.894 284.277 192.957 284.616 192.32C284.754 192.062 284.852 191.904 284.901 191.827C289.322 186.931 291.931 181.585 293.507 178.233C294.027 177.125 294.446 176.217 294.799 175.455C295.759 173.377 296.221 172.375 296.875 171.34C296.936 171.269 297.208 170.959 297.876 170.386C298.365 169.966 298.966 169.488 299.767 168.879C300.308 168.467 300.731 168.153 301.219 167.791L302.537 166.807C302.703 166.682 302.989 166.476 304.152 166.006C304.73 165.772 305.291 165.563 306.155 165.241L306.831 164.989C307.978 164.561 309.472 163.996 311.1 163.295C312.308 162.775 313.623 162.182 314.742 161.677L315.822 161.191C317.258 160.547 318.431 160.039 319.507 159.62C321.673 158.778 322.538 158.675 322.604 158.668C324.232 158.593 326.345 158.779 329.952 159.312C330.47 159.389 331.048 159.478 331.675 159.574C334.703 160.04 338.868 160.682 342.866 160.932C342.866 160.932 343.059 160.948 343.459 161.017C343.885 161.091 344.432 161.204 345.178 161.377C345.768 161.514 346.325 161.651 347.008 161.818L347.761 162.003C348.718 162.236 349.91 162.523 351.149 162.781C353.393 163.248 355.989 163.632 357.738 163.89L358.93 164.069C361.029 164.395 361.92 164.612 362.349 164.755C368.528 166.805 375.516 168.32 380.996 169.509C382.782 169.896 384.408 170.249 385.794 170.574C385.794 170.574 386.044 170.638 386.578 170.847C387.136 171.066 387.839 171.377 388.805 171.837C389.464 172.151 390.005 172.418 390.642 172.731L392.144 173.467C393.391 174.073 394.933 174.808 396.583 175.5Z" fill="white"/>
<path fill-rule="evenodd" clip-rule="evenodd" d="M602.071 405.022C598.206 403.027 592.918 399.717 589.012 394.866C586.891 392.232 585.489 389.595 584.74 388.148C584.208 387.121 583.951 386.601 583.788 386.273C583.62 385.934 583.552 385.799 583.39 385.52C582.982 384.818 582.624 384.2 582.307 383.653C580.604 380.714 580.076 379.802 579.12 378.695C575.389 374.375 572.688 368.373 573.095 361.363C573.472 354.886 576.362 350.071 578.701 347.174C583.061 341.775 588.857 338.756 592.702 337.32C593.356 337.076 594.284 336.696 595.412 336.234C599.34 334.625 605.703 332.02 611.433 330.666C622.162 328.131 631.966 329.066 641.777 332.799C642.77 333.177 643.393 333.344 644.468 333.632C645.461 333.898 646.84 334.267 649.252 335.001C652.689 336.048 658.703 338.033 664.086 342.28C667.099 344.658 669.017 347.335 670.208 349.363C671.376 351.353 672.117 353.195 672.533 354.291C672.752 354.869 672.94 355.402 673.066 355.76L673.296 356.412C677.831 365.51 675.464 374.351 674.996 376.098C674.966 376.21 674.944 376.293 674.932 376.345C674.6 377.772 674.356 379.417 673.989 382.098C673.972 382.223 673.954 382.351 673.937 382.482C673.615 384.831 673.171 388.083 672.436 391.373C671.647 394.9 670.058 400.288 667.487 405.456C666.197 408.048 664.328 411.263 661.691 414.258C659.146 417.149 654.762 421.107 648.253 422.888C632.937 427.081 620.376 420.007 615.124 417.05C614.617 416.765 614.179 416.518 613.812 416.323C607.809 413.131 604.225 408.575 602.071 405.022ZM673.403 356.706C673.403 356.706 673.396 356.689 673.382 356.65C673.396 356.686 673.403 356.705 673.403 356.706Z" fill="black"/>
<path fill-rule="evenodd" clip-rule="evenodd" d="M346.742 256.343C343.369 256.094 340.012 254.992 337.004 252.97C336.58 252.685 335.778 252.193 334.703 251.535C330.212 248.783 320.958 243.114 314.58 237.369C310.229 233.45 304.964 227.728 301.924 220.088C298.543 211.592 298.398 201.837 303.02 192.353C307.28 183.612 313.958 176.813 322.385 172.32C322.756 172.122 322.987 171.989 323.373 171.765C323.701 171.576 324.14 171.323 324.871 170.91C326.063 170.238 327.878 169.242 329.987 168.347C334.049 166.623 341.677 164.201 350.529 167.055C362.725 170.989 374.986 177.455 384.863 183.875C385.888 184.541 387.244 185.279 389.393 186.367C389.744 186.545 390.132 186.739 390.548 186.948C392.337 187.845 394.653 189.007 396.811 190.215C402.21 193.237 410.113 198.361 415.305 207.615C418.797 213.84 420.597 221.706 419.332 229.673C419.051 231.438 418.653 232.91 418.366 233.889C418.256 234.266 418.148 234.616 418.062 234.889C417.475 244.568 411.055 250.501 406.742 253.107C402.521 255.659 398.191 256.597 395.731 257.014C390.556 257.892 385.138 257.785 381.916 257.371C379.316 257.036 376.011 256.484 372.929 255.949C371.528 256.779 370.212 257.395 369.109 257.847C366.373 258.968 363.208 259.798 359.876 260.035C355.01 260.383 350.425 258.972 346.742 256.343ZM417.759 235.868C417.758 235.869 417.767 235.831 417.792 235.75C417.773 235.826 417.761 235.866 417.759 235.868Z" fill="black"/>
<path fill-rule="evenodd" clip-rule="evenodd" d="M457.827 460.186C458.247 449.148 467.536 440.541 478.574 440.962C506.357 442.02 535.915 444.791 564.585 455.216C587.574 463.576 607.618 477.016 625.134 490.023C627.549 491.816 630.152 493.676 632.879 495.624C645.798 504.852 661.508 516.075 673.207 531.673C679.835 540.51 678.044 553.046 669.207 559.673C660.371 566.301 647.835 564.51 641.207 555.673C633.554 545.469 623.993 538.579 611.499 529.576C608.294 527.266 604.896 524.817 601.287 522.137C584.587 509.736 568.308 499.132 550.915 492.808C528.183 484.542 503.621 481.945 477.051 480.933C466.013 480.512 457.406 471.224 457.827 460.186Z" fill="white" stroke="black" stroke-width="22" stroke-linecap="round"/>
<path fill-rule="evenodd" clip-rule="evenodd" d="M448.468 470.993C456.231 463.135 468.894 463.058 476.751 470.821C480.986 475.005 485.687 479.424 490.616 484.058C504.862 497.45 521.018 512.637 533.356 529.13C535.499 531.994 537.442 534.334 539.671 537.017C541.007 538.625 542.444 540.356 544.089 542.397C548.069 547.338 552.454 553.178 556.236 560.313C556.755 561.292 557.278 562.277 557.805 563.269C564.95 576.713 572.717 591.326 578.179 607.959C578.477 608.869 578.842 609.871 579.34 611.216C579.387 611.342 579.435 611.473 579.485 611.607C579.921 612.785 580.459 614.234 580.963 615.704C582.073 618.939 583.453 623.456 583.926 628.579L584.113 630.679C584.161 631.188 584.194 631.461 584.218 631.627C588.017 641.874 582.879 653.3 572.651 657.239C562.343 661.208 550.769 656.07 546.8 645.762C544.738 640.408 544.341 635.357 544.155 632.987C544.133 632.704 544.114 632.459 544.095 632.256C544.058 631.858 543.878 630.874 543.127 628.684C542.79 627.702 542.425 626.715 541.961 625.463L541.827 625.1C541.337 623.777 540.733 622.138 540.176 620.439C535.822 607.181 529.576 595.41 522.097 581.315C521.699 580.565 521.298 579.81 520.894 579.046C518.855 575.2 516.287 571.646 512.941 567.493C512.038 566.372 510.961 565.072 509.789 563.657C507.147 560.467 504.023 556.695 501.328 553.092C491.238 539.605 479.006 528.105 465.634 515.532C460.138 510.366 454.45 505.018 448.639 499.276C440.781 491.513 440.705 478.85 448.468 470.993Z" fill="white" stroke="black" stroke-width="22" stroke-linecap="round"/>
<path fill-rule="evenodd" clip-rule="evenodd" d="M119.942 207.941C125.152 198.201 137.27 194.528 147.011 199.737C151.988 202.399 157.468 205.159 163.223 208.058C179.911 216.464 198.914 226.037 214.691 237.758C217.405 239.774 219.785 241.362 222.533 243.196C224.189 244.301 225.979 245.495 228.055 246.926C233.04 250.36 238.678 254.531 244.108 260.053C244.848 260.804 245.593 261.561 246.344 262.323C256.443 272.57 267.509 283.798 276.962 297.457C277.459 298.174 278.043 298.963 278.854 300.046C278.93 300.148 279.009 300.252 279.09 300.36C279.799 301.307 280.684 302.487 281.544 303.694C283.432 306.345 285.971 310.173 287.815 314.843L288.534 316.681C288.649 316.973 288.728 317.163 288.782 317.289C295.221 326.022 293.521 338.344 284.883 344.996C276.132 351.736 263.574 350.106 256.834 341.355C253.388 336.88 251.626 332.217 250.844 330.147C250.753 329.904 250.675 329.697 250.609 329.531C250.544 329.366 250.207 328.646 248.96 326.895C248.403 326.113 247.818 325.331 247.06 324.321L246.843 324.032C246.047 322.968 245.047 321.63 244.071 320.221C236.657 309.509 227.883 300.592 217.262 289.8C216.709 289.238 216.151 288.671 215.588 288.099C212.77 285.234 209.528 282.735 205.362 279.865C204.253 279.101 202.928 278.215 201.482 277.247C198.199 275.049 194.288 272.43 190.837 269.867C178.044 260.363 163.812 253.192 148.185 245.32C141.741 242.073 135.061 238.707 128.146 235.009C118.406 229.8 114.733 217.681 119.942 207.941Z" fill="white" stroke="black" stroke-width="22" stroke-linecap="round"/>
<path fill-rule="evenodd" clip-rule="evenodd" d="M209.493 190.618C217.636 183.155 230.287 183.705 237.751 191.847C239.929 194.222 242.46 196.492 245.8 199.391C246.115 199.664 246.44 199.945 246.773 200.234C249.723 202.787 253.349 205.925 256.767 209.391C268.425 221.211 276.565 235.78 282.822 247.443C289.578 260.039 296.409 272.389 303.523 284.677C312.128 299.54 318.192 316.421 323.41 330.946C324.734 334.632 326.004 338.166 327.247 341.477C331.129 351.818 325.892 363.348 315.551 367.23C305.21 371.112 293.68 365.875 289.798 355.534C288.117 351.055 286.56 346.74 285.056 342.571C279.992 328.534 275.525 316.151 268.906 304.718C261.532 291.982 254.489 279.245 247.573 266.352C241.286 254.632 235.472 244.763 228.288 237.479C226.038 235.198 223.613 233.096 220.475 230.375C220.184 230.122 219.886 229.864 219.582 229.6C216.242 226.702 212.146 223.11 208.265 218.876C200.801 210.734 201.351 198.082 209.493 190.618Z" fill="white" stroke="black" stroke-width="22" stroke-linecap="round"/>
<path fill-rule="evenodd" clip-rule="evenodd" d="M131.817 292.728C131.858 281.682 140.846 272.761 151.892 272.803C169.41 272.869 187.973 274.909 206.177 281.512C227.324 289.182 247.359 303.335 262.701 315.145C283.349 331.039 298.13 348.933 312.781 367.787C319.558 376.509 317.982 389.074 309.26 395.852C300.538 402.629 287.973 401.053 281.196 392.331C266.91 373.947 254.699 359.464 238.302 346.841C223.379 335.354 207.478 324.534 192.537 319.115C180.027 314.577 166.383 312.857 151.741 312.802C140.696 312.761 131.775 303.773 131.817 292.728Z" fill="white" stroke="black" stroke-width="22" stroke-linecap="round"/>
<path fill-rule="evenodd" clip-rule="evenodd" d="M455.828 467.307C457.968 456.471 468.487 449.421 479.323 451.56C499.952 455.633 521.221 462.493 541.194 475.036C564.317 489.556 585.307 512.225 601.507 531.202C622.825 556.173 637.141 582.435 651.455 610.543C656.468 620.386 652.552 632.429 642.709 637.441C632.866 642.454 620.823 638.538 615.811 628.695C601.71 601.005 589.151 578.334 571.085 557.173C555.109 538.46 537.471 519.931 519.922 508.91C505.278 499.715 489.006 494.244 471.575 490.803C460.739 488.663 453.689 478.144 455.828 467.307Z" fill="white" stroke="black" stroke-width="22" stroke-linecap="round"/>
</svg>
