<svg width="200" height="70" viewBox="0 0 200 70" fill="none" xmlns="http://www.w3.org/2000/svg">
<g filter="url(#filter0_d_3874_6904)">
<rect x="0.706543" y="15.2012" width="56" height="56" rx="16" transform="rotate(-15 0.706543 15.2012)" fill="#F3FBDE"/>
<path fill-rule="evenodd" clip-rule="evenodd" d="M47.5272 27.6365C49.4064 24.3816 48.2912 20.2197 45.0364 18.3405C41.7816 16.4614 37.6196 17.5766 35.7405 20.8314L23.6912 41.7013C23.1766 42.5926 22.9059 43.6038 22.9065 44.633L22.9099 51.2804C22.9111 53.6727 25.5005 55.1677 27.5729 53.9726L33.3314 50.6519C34.223 50.1377 34.9634 49.3977 35.478 48.5064L47.5272 27.6365ZM24.9738 44.632L24.9772 51.2793C24.9776 52.0812 25.8455 52.5823 26.5402 52.1817L32.2986 48.861C32.8756 48.5283 33.3546 48.0495 33.6876 47.4727L45.7369 26.6028C47.0452 24.3368 46.2688 21.4392 44.0027 20.1309C41.7367 18.8226 38.8391 19.599 37.5308 21.865L25.4816 42.7349C25.1486 43.3117 24.9734 43.966 24.9738 44.632Z" fill="black"/>
<path d="M24.9772 51.2793L24.9738 44.632C24.9734 43.966 25.1486 43.3117 25.4816 42.7349L37.5308 21.865C38.8391 19.599 41.7367 18.8226 44.0027 20.1309C46.2688 21.4392 47.0452 24.3368 45.7369 26.6028L33.6876 47.4727C33.3546 48.0495 32.8756 48.5283 32.2986 48.861L26.5402 52.1817C25.8455 52.5823 24.9776 52.0812 24.9772 51.2793Z" fill="white"/>
<path fill-rule="evenodd" clip-rule="evenodd" d="M34.0703 38.0783C34.0726 38.206 34.0724 38.3204 34.0659 38.4289C34.05 38.6953 34.132 38.9112 34.1822 39.0266C34.2089 39.0878 34.2371 39.1432 34.2546 39.1776C34.276 39.2197 34.2834 39.2342 34.2891 39.2467C34.3019 39.2749 34.3138 39.3068 34.3393 39.3749C34.3423 39.3831 34.3456 39.3918 34.3491 39.4011C34.376 39.4731 34.4174 39.5825 34.4731 39.6935C34.5864 39.9192 34.8135 40.2595 35.266 40.4062C35.4636 40.4702 35.6768 40.4826 35.8924 40.4222C36.0676 40.3732 36.2023 40.2851 36.2567 40.2495L36.2604 40.247C36.2626 40.2456 36.273 40.2392 36.2996 40.2278C36.3287 40.2155 36.3641 40.2025 36.4234 40.182C36.8359 40.0391 37.0551 39.7365 37.1699 39.4998C37.2462 39.3424 37.3098 39.1263 37.3329 39.0479C37.3368 39.0346 37.3395 39.0253 37.341 39.0208C37.3788 38.9051 37.4394 38.7895 37.543 38.5917C37.5495 38.5793 37.5562 38.5666 37.563 38.5536C37.6636 38.3614 37.8075 38.0839 37.8853 37.7654C37.8878 37.755 37.896 37.7287 37.9307 37.6616C37.9452 37.6337 37.9596 37.6071 37.9789 37.5719C37.984 37.5624 37.9896 37.5522 37.9955 37.5412C38.0211 37.4943 38.053 37.435 38.0845 37.3703C38.1252 37.2866 38.1681 37.2058 38.2192 37.11C38.2299 37.0898 38.241 37.069 38.2525 37.0473C38.3149 36.9297 38.387 36.7917 38.4529 36.6429C38.6364 36.2289 38.4495 35.7446 38.0355 35.5611C37.6215 35.3777 37.1372 35.5646 36.9537 35.9786C36.913 36.0706 36.8643 36.165 36.804 36.2787C36.795 36.2957 36.7855 36.3135 36.7758 36.3318C36.7246 36.4279 36.6648 36.54 36.6097 36.6534C36.5853 36.7036 36.5721 36.7273 36.554 36.7596C36.5367 36.7907 36.5148 36.8298 36.4743 36.9081C36.4152 37.0224 36.3398 37.182 36.2923 37.3766C36.2676 37.4777 36.2144 37.5941 36.1104 37.7929C36.1013 37.8102 36.0916 37.8286 36.0814 37.8479C35.9922 38.0168 35.8656 38.2564 35.7823 38.5116C35.7785 38.523 35.7749 38.5344 35.7714 38.5455C35.7619 38.5254 35.7528 38.5069 35.7449 38.4909L35.7158 38.4335C35.7129 38.4278 35.7103 38.4226 35.7079 38.4179C35.715 38.2168 35.7097 38.0205 35.7052 37.8559L35.7051 37.8535C35.7021 37.7422 35.7195 37.6073 35.7591 37.4236C35.7776 37.3376 35.7987 37.2508 35.8226 37.1522L35.827 37.1341C35.8517 37.0323 35.8795 36.9172 35.9036 36.8004C35.9232 36.7053 35.9371 36.6115 35.9473 36.5426C35.9482 36.5367 35.949 36.5309 35.9498 36.5254C35.9615 36.4469 35.9696 36.3967 35.9794 36.3524C35.981 36.3452 35.9835 36.3348 35.9866 36.3217C36.0026 36.254 36.0353 36.1161 36.0502 35.9918C36.0718 35.8122 36.0494 35.6625 36.0371 35.586L36.0287 35.5364L36.0241 35.508M36.0241 35.508C36.0241 35.508 36.024 35.5039 36.024 35.5017C36.0238 35.4799 36.0233 35.4438 36.0211 35.4054L36.021 35.4031C36.0201 35.3845 36.0153 35.2843 35.9859 35.1801C35.9771 35.1487 35.9544 35.0731 35.905 34.9872C35.8715 34.9289 35.7254 34.6852 35.3983 34.5999C35.0046 34.4972 34.7212 34.7059 34.6192 34.8042C34.5216 34.8982 34.4708 34.9943 34.4526 35.0302C34.4526 35.0302 34.4492 35.0355 34.4447 35.0417C34.4394 35.0491 34.4322 35.0587 34.4212 35.0728L34.3804 35.1245C34.2786 35.2534 34.205 35.3829 34.1543 35.4765C34.1295 35.5222 34.1118 35.5559 34.097 35.5839C34.0746 35.6265 34.0592 35.6558 34.0368 35.6936C33.933 35.8688 33.8812 36.0513 33.8618 36.1199C33.8597 36.1274 33.8579 36.1336 33.8565 36.1382C33.855 36.1434 33.8536 36.148 33.8523 36.152C33.8315 36.1788 33.8116 36.2049 33.795 36.2268C33.7893 36.2342 33.7841 36.2411 33.7793 36.2473C33.7511 36.2842 33.7317 36.3091 33.7142 36.3299C33.6824 36.3676 33.6687 36.3766 33.6687 36.3766C33.6387 36.3968 33.5982 36.4227 33.5506 36.453C33.3764 36.5641 33.1074 36.7356 32.9109 36.9113C32.8479 36.9676 32.7755 37.0432 32.7103 37.1143C32.712 36.9961 32.6996 36.8946 32.6918 36.8339C32.6891 36.8133 32.687 36.7972 32.6853 36.7842C32.6924 36.7476 32.7015 36.693 32.7049 36.6275C32.7124 36.4859 32.6931 36.3638 32.6732 36.2748C32.6538 36.1883 32.6284 36.1106 32.614 36.0667C32.6129 36.0632 32.6118 36.0598 32.6107 36.0566C32.5994 36.0221 32.5936 36.0046 32.5899 35.9919C32.5861 35.8677 32.5882 35.7628 32.5906 35.6416C32.5923 35.5531 32.5942 35.456 32.5942 35.3364C32.5941 35.0744 32.5813 34.7663 32.5033 34.4332C32.4002 33.9923 31.9591 33.7185 31.5182 33.8217C31.0773 33.9248 30.8035 34.3659 30.9067 34.8068C30.9429 34.9617 30.9543 35.126 30.9544 35.3371C30.9544 35.3925 30.9532 35.462 30.9519 35.5394C30.9491 35.7063 30.9457 35.9096 30.9524 36.0862C30.9571 36.213 30.9806 36.3215 31.0011 36.3988C31.0182 36.4635 31.0393 36.5275 31.0514 36.5642C31.0525 36.5675 31.0536 36.5706 31.0545 36.5735C31.0448 36.6321 31.0358 36.7147 31.0406 36.8073C31.0435 36.8623 31.0487 36.9114 31.0534 36.95C31.0561 36.973 31.0602 37.0034 31.0629 37.0243C31.064 37.0324 31.0649 37.039 31.0654 37.0433C31.0696 37.0754 31.0705 37.0884 31.0707 37.0913C31.0699 37.1152 31.0682 37.142 31.0654 37.1844L31.0653 37.1871C31.0627 37.2264 31.0592 37.2803 31.0575 37.3367C31.054 37.451 31.0557 37.6191 31.1015 37.8042C31.1058 37.8215 31.1102 37.8416 31.1179 37.8767C31.1196 37.8845 31.1215 37.8931 31.1236 37.9026C31.1335 37.9477 31.1468 38.0075 31.1631 38.0701C31.1894 38.1706 31.2477 38.3822 31.3767 38.5702C31.6426 38.9581 32.0412 39.0313 32.2583 39.0408C32.3665 39.0455 32.4628 39.0369 32.5224 39.0308C32.5696 39.0259 32.5896 39.0233 32.6028 39.0217C32.6144 39.0202 32.6207 39.0195 32.6359 39.0183C32.6425 39.0177 32.6477 39.0175 32.6601 39.0168C32.6683 39.0164 32.6795 39.0159 32.6964 39.0149C32.729 39.0132 32.779 39.0102 32.8338 39.004C32.9192 38.9943 33.1342 38.9665 33.3415 38.8353C33.5319 38.7148 33.6418 38.5674 33.6974 38.4879C33.7096 38.4704 33.721 38.4534 33.7282 38.4427L33.7295 38.4407L33.7426 38.4214C33.8173 38.3404 33.8617 38.2883 33.895 38.2492C33.9361 38.2011 33.9604 38.1726 34.0039 38.1337C34.0257 38.1142 34.0476 38.096 34.0703 38.0783" fill="black"/>
<path fill-rule="evenodd" clip-rule="evenodd" d="M45.5985 27.9349C45.4583 27.9379 45.2824 27.9388 45.0961 27.9209C44.9786 27.9096 44.8742 27.8985 44.7764 27.888C44.5973 27.8689 44.4406 27.8521 44.267 27.8415C44.1726 27.8356 44.0893 27.8234 44.0298 27.8137C44.002 27.8092 43.9748 27.8045 43.9539 27.8008L43.9499 27.8001C43.9265 27.796 43.9102 27.7932 43.8952 27.7908C43.8907 27.7901 43.8867 27.7895 43.8831 27.7889C43.7399 27.8099 43.6411 27.8208 43.5605 27.8298C43.4454 27.8425 43.3677 27.8511 43.2515 27.8788C43.1554 27.9018 43.0696 27.9123 43.0073 27.9181C42.9553 27.923 42.9029 27.9258 42.8734 27.9274C42.8695 27.9276 42.866 27.9278 42.8629 27.928C42.8564 27.9283 42.8509 27.9287 42.8461 27.929C42.6978 27.9758 42.616 28.0118 42.5209 28.0709C42.3467 28.1789 42.2091 28.306 42.1433 28.4C42.1249 28.4263 42.1092 28.4515 42.0786 28.5007C42.0703 28.514 42.061 28.529 42.0503 28.5462C42.008 28.6139 41.9426 28.7175 41.8594 28.8229C41.7768 28.9276 41.6853 29.0167 41.6449 29.0559C41.6407 29.06 41.6371 29.0635 41.6341 29.0664C41.632 29.0685 41.63 29.0704 41.6281 29.0723C41.6078 29.1208 41.5632 29.2263 41.4874 29.3451C41.4754 29.3861 41.457 29.4443 41.4302 29.51C41.3918 29.6039 41.385 29.654 41.3685 29.7741C41.357 29.858 41.3409 29.976 41.3061 30.1668C41.2893 30.2593 41.2751 30.3333 41.2634 30.3942C41.2297 30.5696 41.2168 30.6371 41.2208 30.7276C41.2262 30.8509 41.2368 30.9402 41.2504 31.0558C41.2606 31.142 41.2725 31.2428 41.2853 31.3832C41.2906 31.4418 41.3063 31.5179 41.3427 31.6616C41.3464 31.6761 41.3504 31.6918 41.3547 31.7086C41.3762 31.7924 41.4045 31.9026 41.4291 32.0215C41.442 32.0352 41.4575 32.0516 41.4695 32.0644C41.5114 32.1094 41.5775 32.1817 41.6433 32.2712C41.6476 32.2735 41.6531 32.2764 41.6599 32.2798C41.6957 32.2978 41.735 32.3146 41.8138 32.3486L41.8241 32.353C41.8995 32.3854 42.0069 32.4319 42.1208 32.4914C42.362 32.6175 42.5549 32.7675 42.6965 32.8821C42.7038 32.8861 42.721 32.8956 42.7537 32.9122C42.7583 32.9145 42.7636 32.9172 42.7695 32.9202C42.8006 32.9359 42.8487 32.9602 42.8941 32.9848C42.9523 33.0164 43.0262 33.0591 43.1047 33.1144C43.2358 33.2067 43.3328 33.2792 43.4145 33.3403C43.5485 33.4404 43.6415 33.5099 43.7762 33.5855C43.8447 33.6241 43.9019 33.6619 43.9381 33.6863L43.948 33.693C43.9679 33.6954 43.9894 33.6975 44.0159 33.7001C44.0635 33.7048 44.1274 33.7111 44.2279 33.7234C44.2814 33.73 44.3251 33.7311 44.4139 33.7333C44.4424 33.734 44.4755 33.7348 44.5151 33.736C44.6557 33.7401 44.8643 33.7494 45.0987 33.8055C45.3641 33.869 45.6299 33.949 45.8615 34.0188C45.8809 34.0246 45.9002 34.0304 45.9191 34.0361C45.9755 34.0191 46.0557 33.9965 46.1496 33.9782C46.2876 33.9515 46.3975 33.9326 46.494 33.9161C46.6205 33.8944 46.7241 33.8766 46.8378 33.8501C46.8488 33.8421 46.8622 33.8321 46.8796 33.8189L46.9289 33.7814C46.9469 33.7677 46.9684 33.7515 46.9913 33.7348C47.3645 33.462 47.7616 33.3074 48.0549 33.1983C48.1034 33.1803 48.1488 33.1636 48.1917 33.1478C48.4405 33.056 48.6018 32.9965 48.7542 32.911C48.7947 32.8883 48.8344 32.8671 48.8677 32.8494C48.8796 32.8431 48.8904 32.8375 48.9005 32.8321C48.9217 32.8209 48.9402 32.8111 48.9604 32.8003C48.996 32.7812 49.0229 32.7661 49.0442 32.7535C49.0498 32.7403 49.0553 32.7274 49.0605 32.7154C49.07 32.6932 49.0784 32.6736 49.0846 32.6589C49.11 32.5989 49.126 32.5581 49.1375 32.5244C49.1485 32.4923 49.1526 32.4741 49.1543 32.4646C49.1558 32.4566 49.1556 32.4524 49.1556 32.4524C49.1552 32.4406 49.154 32.426 49.1492 32.3981C49.1465 32.3826 49.1429 32.3639 49.1375 32.3377C49.1339 32.3201 49.1311 32.3067 49.1278 32.2911C49.125 32.278 49.1219 32.2633 49.1177 32.2432C49.0742 32.0352 49.0808 31.8465 49.0877 31.7347C49.0912 31.6779 49.0963 31.6234 49.0998 31.5854L49.1002 31.5811C49.1043 31.5372 49.1063 31.5143 49.1074 31.4956C49.1112 31.4327 49.1163 31.373 49.1202 31.3276L49.1207 31.3211C49.125 31.2705 49.1278 31.2375 49.1294 31.2074C49.1318 31.1647 49.1306 31.148 49.1303 31.1448C49.109 31.0195 49.1074 30.91 49.1097 30.8316C49.1052 30.8262 49.1006 30.8207 49.0959 30.815C48.9774 30.6712 48.7894 30.4432 48.6457 30.1974C48.639 30.1908 48.6294 30.1818 48.6164 30.17C48.6013 30.1564 48.5854 30.1424 48.5637 30.1232C48.5437 30.1056 48.5179 30.0828 48.4918 30.0592C48.4403 30.0125 48.3701 29.9466 48.2995 29.8667C48.2646 29.8272 48.2317 29.7872 48.2094 29.7602L48.2038 29.7534C48.1829 29.728 48.1686 29.7107 48.155 29.6946L48.1424 29.6879C48.1192 29.6752 48.0877 29.6575 48.0523 29.6357C47.7629 29.4582 47.5388 29.2299 47.378 29.0496C47.2952 28.9568 47.2183 28.864 47.1538 28.7858C47.1464 28.7768 47.1392 28.7681 47.1322 28.7595C47.0739 28.6889 47.0274 28.6325 46.9818 28.5801C46.9218 28.5112 46.8729 28.4364 46.8348 28.358C46.6568 28.2627 46.5273 28.1437 46.4649 28.0852C46.4501 28.0713 46.4315 28.0534 46.4155 28.038C46.3737 28.0215 46.3146 27.9969 46.2479 27.9623C46.227 27.9515 46.1678 27.9277 45.9618 27.9271C45.89 27.9268 45.8284 27.9286 45.7521 27.9308C45.7075 27.9321 45.658 27.9336 45.5985 27.9349ZM48.93 27.761C49.014 27.8503 49.0695 27.8955 49.1047 27.9174C49.1047 27.9174 49.1075 27.9189 49.1104 27.9205L49.1541 27.9441C49.1956 27.9667 49.2734 28.0097 49.3592 28.0725C49.5092 28.1824 49.6217 28.3096 49.6806 28.3783C49.745 28.4533 49.7584 28.4707 49.7679 28.4831C49.7756 28.4932 49.7808 28.5 49.8094 28.5323C49.8094 28.5323 49.8179 28.5415 49.8453 28.5664C49.8596 28.5793 49.8751 28.5931 49.8964 28.6118L49.8996 28.6146C49.9187 28.6315 49.9428 28.6527 49.9671 28.6747C50.0601 28.7587 50.2441 28.928 50.3812 29.1731C50.4317 29.2634 50.4978 29.3446 50.6211 29.496C50.6505 29.532 50.6831 29.572 50.7194 29.617C50.7256 29.6247 50.7308 29.6309 50.7418 29.644C50.7455 29.6483 50.7497 29.6533 50.7549 29.6594C50.7717 29.6795 50.7998 29.713 50.8294 29.7519C50.8929 29.8351 50.9741 29.956 51.0377 30.1174C51.157 30.4201 51.1378 30.6944 51.1306 30.7985L51.1304 30.8005C51.1279 30.8369 51.1264 30.8544 51.1256 30.8647C51.1639 31.15 51.1341 31.4556 51.1227 31.5734C51.1208 31.5931 51.1194 31.6075 51.1189 31.6158C51.1156 31.6707 51.1106 31.7248 51.1071 31.7619L51.1066 31.7671C51.1026 31.8101 51.1003 31.8361 51.0989 31.8594C51.0986 31.8632 51.0985 31.8665 51.0983 31.8694C51.1223 31.9812 51.1624 32.1686 51.1696 32.3859C51.1866 32.9014 50.9828 33.3574 50.8894 33.5663C50.8763 33.5956 50.8654 33.6201 50.8575 33.6391C50.6893 34.0484 50.379 34.2878 50.1895 34.4132C50.054 34.5029 49.8492 34.6107 49.7706 34.6522C49.755 34.6604 49.7443 34.666 49.7402 34.6683C49.4353 34.8394 49.1041 34.9603 48.8634 35.0481C48.8257 35.0618 48.7902 35.0748 48.7573 35.087C48.4787 35.1906 48.3109 35.2662 48.1802 35.3617C48.166 35.372 48.1535 35.3816 48.1336 35.3968C48.1238 35.4042 48.1123 35.413 48.0979 35.4239C48.0611 35.4519 48.01 35.4903 47.9527 35.5294C47.8493 35.6 47.6595 35.7202 47.4141 35.7834C47.1936 35.8402 46.9311 35.886 46.7307 35.9209C46.6539 35.9344 46.5862 35.9462 46.5335 35.9564C46.5335 35.9564 46.5311 35.9568 46.5241 35.9587C46.5166 35.9607 46.5062 35.9637 46.4884 35.9692C46.4853 35.9701 46.481 35.9715 46.4755 35.9732C46.4429 35.9834 46.3704 36.0062 46.3039 36.0228C46.0979 36.0745 45.8189 36.1076 45.4884 36.0104C45.4003 35.9845 45.3182 35.9598 45.2399 35.9362C45.0218 35.8706 44.8335 35.814 44.6297 35.7652C44.6036 35.759 44.5641 35.7534 44.4559 35.7502C44.4425 35.7498 44.4264 35.7494 44.4081 35.7491C44.3091 35.7469 44.1446 35.7433 43.9827 35.7235C43.9698 35.7219 43.949 35.7198 43.9224 35.7171C43.8151 35.7061 43.6132 35.6854 43.4517 35.6519C43.2059 35.6008 43.0258 35.4968 42.9213 35.4302C42.8853 35.4072 42.8429 35.3784 42.8223 35.3643C42.8178 35.3613 42.8144 35.359 42.8122 35.3576C42.7953 35.3461 42.7882 35.3418 42.7882 35.3418C42.5385 35.2014 42.2761 35.0066 42.0934 34.871C42.0348 34.8274 41.9843 34.79 41.9452 34.7624C41.9452 34.7624 41.934 34.7559 41.8414 34.7089L41.8367 34.7065C41.7582 34.6667 41.5975 34.5851 41.4408 34.4581C41.3148 34.356 41.2475 34.3086 41.1873 34.2772C41.1472 34.2562 41.1017 34.2358 41.0278 34.204C41.0214 34.2013 41.0145 34.1983 41.0072 34.1952C40.943 34.1677 40.8493 34.1275 40.7576 34.0816C40.5328 33.969 40.2524 33.7907 40.021 33.4665C40.0184 33.4636 40.0109 33.4549 39.9954 33.4383C39.9924 33.4351 39.9872 33.4296 39.9805 33.4225C39.9532 33.3936 39.8998 33.3372 39.86 33.2919C39.7499 33.1663 39.5298 32.8967 39.4679 32.4949C39.4563 32.4197 39.4369 32.3437 39.4027 32.2091C39.3985 32.1925 39.3941 32.175 39.3894 32.1565C39.3527 32.0118 39.2998 31.7988 39.2786 31.5663C39.2748 31.5251 39.2682 31.4659 39.2604 31.3964C39.2415 31.2278 39.2157 30.9983 39.2077 30.8167C39.192 30.4621 39.2636 30.1067 39.305 29.9011C39.3124 29.8641 39.3189 29.832 39.3237 29.8055C39.328 29.7818 39.3331 29.7457 39.3395 29.6999C39.368 29.4973 39.4229 29.1061 39.5562 28.7693L39.5616 28.7498C39.5651 28.7368 39.5711 28.7152 39.5782 28.6914C39.606 28.5984 39.6598 28.4408 39.7781 28.2734L39.7786 28.2721C39.7886 28.2484 39.8103 28.1965 39.8353 28.1448C39.8659 28.0816 39.91 27.9994 39.9732 27.9116C40.0677 27.7802 40.17 27.6799 40.2192 27.6316L40.223 27.6279C40.2646 27.5872 40.2775 27.5739 40.2799 27.5716C40.2901 27.5581 40.3067 27.5339 40.3411 27.4789C40.3455 27.4718 40.3506 27.4636 40.3563 27.4544C40.3884 27.4026 40.4391 27.3207 40.4925 27.2445C40.7625 26.8587 41.1358 26.5589 41.4584 26.3587C41.7684 26.1663 42.0391 26.0677 42.309 25.9859C42.4155 25.9536 42.5113 25.9383 42.582 25.9299C42.6511 25.9216 42.7148 25.9181 42.7505 25.9161L42.7594 25.9156C42.7874 25.914 42.8011 25.9132 42.8108 25.9125C43.0302 25.8628 43.3127 25.8287 43.4905 25.8072C43.551 25.7999 43.5993 25.794 43.629 25.7895C43.8811 25.7513 44.0988 25.7826 44.2144 25.8012C44.2448 25.8061 44.274 25.8112 44.2961 25.815C44.3204 25.8193 44.3373 25.8222 44.3532 25.8248C44.3817 25.8294 44.3913 25.8302 44.3913 25.8302C44.609 25.8436 44.8432 25.8685 45.048 25.8903C45.1348 25.8995 45.2162 25.9081 45.2887 25.9151C45.4016 25.9259 45.4779 25.9231 45.594 25.9189C45.6834 25.9156 45.7966 25.9114 45.9684 25.912C46.2742 25.913 46.7149 25.9393 47.16 26.1655L47.1807 26.1734C47.1925 26.1778 47.2126 26.1854 47.2334 26.1936C47.3282 26.2312 47.4861 26.3007 47.6506 26.4376C47.703 26.4813 47.7478 26.5236 47.777 26.5516L47.817 26.5901L47.8368 26.6092C48.0535 26.731 48.2198 26.8741 48.3412 26.988C48.3994 27.0426 48.4554 27.0984 48.4994 27.1423C48.5043 27.1471 48.5089 27.1518 48.5135 27.1563C48.5636 27.2062 48.6005 27.2425 48.6358 27.2747C48.784 27.4103 48.8824 27.5801 48.93 27.761Z" fill="black"/>
<path d="M45.0961 27.9209C45.2824 27.9388 45.4583 27.9379 45.5985 27.9349C45.658 27.9336 45.7075 27.9321 45.7521 27.9308C45.8284 27.9286 45.89 27.9268 45.9618 27.9271C46.1678 27.9277 46.227 27.9515 46.2479 27.9623C46.3146 27.9969 46.3737 28.0215 46.4155 28.038C46.4315 28.0534 46.4501 28.0713 46.4649 28.0852C46.5273 28.1437 46.6568 28.2627 46.8348 28.358C46.8729 28.4364 46.9218 28.5112 46.9818 28.5801C47.0274 28.6325 47.0739 28.6889 47.1322 28.7595L47.1538 28.7858C47.2183 28.864 47.2952 28.9568 47.378 29.0496C47.5388 29.2299 47.7629 29.4582 48.0523 29.6357C48.0877 29.6575 48.1192 29.6752 48.1424 29.6879L48.155 29.6946C48.1686 29.7107 48.1829 29.728 48.2038 29.7534L48.2094 29.7602C48.2317 29.7872 48.2646 29.8272 48.2995 29.8667C48.3701 29.9466 48.4403 30.0125 48.4918 30.0592C48.5179 30.0828 48.5437 30.1056 48.5637 30.1232C48.5854 30.1424 48.6013 30.1564 48.6164 30.17C48.6294 30.1818 48.639 30.1908 48.6457 30.1974C48.7894 30.4432 48.9774 30.6712 49.0959 30.815L49.1097 30.8316C49.1074 30.91 49.109 31.0195 49.1303 31.1448C49.1306 31.148 49.1318 31.1647 49.1294 31.2074C49.1278 31.2375 49.125 31.2705 49.1207 31.3211L49.1202 31.3276C49.1163 31.373 49.1112 31.4327 49.1074 31.4956C49.1063 31.5143 49.1043 31.5372 49.1002 31.5811L49.0998 31.5854C49.0963 31.6234 49.0912 31.6779 49.0877 31.7347C49.0808 31.8465 49.0742 32.0352 49.1177 32.2432L49.1278 32.2911L49.1375 32.3377C49.1429 32.3639 49.1465 32.3826 49.1492 32.3981C49.154 32.426 49.1552 32.4406 49.1556 32.4524C49.1556 32.4524 49.1558 32.4566 49.1543 32.4646C49.1526 32.4741 49.1485 32.4923 49.1375 32.5244C49.126 32.5581 49.11 32.5989 49.0846 32.6589L49.0605 32.7154L49.0442 32.7535C49.0229 32.7661 48.996 32.7812 48.9604 32.8003C48.9402 32.8111 48.9217 32.8209 48.9005 32.8321L48.8677 32.8494C48.8344 32.8671 48.7947 32.8883 48.7542 32.911C48.6018 32.9965 48.4405 33.056 48.1917 33.1478L48.0549 33.1983C47.7616 33.3074 47.3645 33.462 46.9913 33.7348C46.9684 33.7515 46.9469 33.7677 46.9289 33.7814L46.8796 33.8189C46.8622 33.8321 46.8488 33.8421 46.8378 33.8501C46.7241 33.8766 46.6205 33.8944 46.494 33.9161C46.3975 33.9326 46.2876 33.9515 46.1496 33.9782C46.0557 33.9965 45.9755 34.0191 45.9191 34.0361L45.8615 34.0188C45.6299 33.949 45.3641 33.869 45.0987 33.8055C44.8643 33.7494 44.6557 33.7401 44.5151 33.736C44.4755 33.7348 44.4424 33.734 44.4139 33.7333C44.3251 33.7311 44.2814 33.73 44.2279 33.7234C44.1274 33.7111 44.0635 33.7048 44.0159 33.7001C43.9894 33.6975 43.9679 33.6954 43.948 33.693L43.9381 33.6863C43.9019 33.6619 43.8447 33.6241 43.7762 33.5855C43.6415 33.5099 43.5485 33.4404 43.4145 33.3403C43.3328 33.2792 43.2358 33.2067 43.1047 33.1144C43.0262 33.0591 42.9523 33.0164 42.8941 32.9848C42.8487 32.9602 42.8006 32.9359 42.7695 32.9202L42.7537 32.9122C42.721 32.8956 42.7038 32.8861 42.6965 32.8821C42.5549 32.7675 42.362 32.6175 42.1208 32.4914C42.0069 32.4319 41.8995 32.3854 41.8241 32.353L41.8138 32.3486C41.735 32.3146 41.6957 32.2978 41.6599 32.2798C41.6531 32.2764 41.6476 32.2735 41.6433 32.2712C41.5775 32.1817 41.5114 32.1094 41.4695 32.0644L41.4291 32.0215C41.4045 31.9026 41.3762 31.7924 41.3547 31.7086L41.3427 31.6616C41.3063 31.5179 41.2906 31.4418 41.2853 31.3832C41.2725 31.2428 41.2606 31.142 41.2504 31.0558C41.2368 30.9402 41.2262 30.8509 41.2208 30.7276C41.2168 30.6371 41.2297 30.5696 41.2634 30.3942C41.2751 30.3333 41.2893 30.2593 41.3061 30.1668C41.3409 29.976 41.357 29.858 41.3685 29.7741C41.385 29.654 41.3918 29.6039 41.4302 29.51C41.457 29.4443 41.4754 29.3861 41.4874 29.3451C41.5632 29.2263 41.6078 29.1208 41.6281 29.0723L41.6341 29.0664L41.6449 29.0559C41.6853 29.0167 41.7768 28.9276 41.8594 28.8229C41.9426 28.7175 42.008 28.6139 42.0503 28.5462L42.0786 28.5007C42.1092 28.4515 42.1249 28.4263 42.1433 28.4C42.2091 28.306 42.3467 28.1789 42.5209 28.0709C42.616 28.0118 42.6978 27.9758 42.8461 27.929L42.8629 27.928L42.8734 27.9274C42.9029 27.9258 42.9553 27.923 43.0073 27.9181C43.0696 27.9123 43.1554 27.9018 43.2515 27.8788C43.3677 27.8511 43.4454 27.8425 43.5605 27.8298C43.6411 27.8208 43.7399 27.8099 43.8831 27.7889L43.8952 27.7908C43.9102 27.7932 43.9265 27.796 43.9499 27.8001L43.9539 27.8008C43.9748 27.8045 44.002 27.8092 44.0298 27.8137C44.0893 27.8234 44.1726 27.8356 44.267 27.8415C44.4406 27.8521 44.5973 27.8689 44.7764 27.888C44.8742 27.8985 44.9786 27.9096 45.0961 27.9209Z" fill="white"/>
<path fill-rule="evenodd" clip-rule="evenodd" d="M32.3187 24.271C32.1711 24.2414 32.0549 24.2181 31.9291 24.201C31.8404 24.1889 31.7564 24.1734 31.6884 24.1602C31.6562 24.154 31.63 24.1488 31.6063 24.1441C31.5715 24.1372 31.5419 24.1313 31.5061 24.1247C31.4534 24.115 31.4155 24.1091 31.3857 24.1057C31.3572 24.1025 31.3443 24.1027 31.3443 24.1027C31.2731 24.1049 31.19 24.1089 31.0988 24.1133C30.8187 24.1268 30.4616 24.1441 30.1367 24.125C30.1141 24.1237 30.0683 24.1247 29.9627 24.1361C29.9464 24.1379 29.9261 24.1402 29.9028 24.1429C29.815 24.1531 29.6847 24.1682 29.5702 24.1746C29.507 24.1782 29.4458 24.1798 29.3965 24.1809C29.3826 24.1812 29.3698 24.1815 29.3577 24.1817C29.3226 24.1825 29.2939 24.1831 29.2637 24.1841C29.2254 24.1854 29.1975 24.187 29.176 24.189C29.1558 24.1908 29.1462 24.1925 29.1462 24.1925C28.9499 24.2322 28.7405 24.2551 28.5882 24.2718C28.5567 24.2752 28.5276 24.2784 28.5016 24.2814C28.3205 24.3023 28.216 24.3207 28.1383 24.3454C28.1353 24.3466 28.0948 24.3628 28.0011 24.4314C27.9546 24.4656 27.9045 24.5053 27.8434 24.555C27.8295 24.5663 27.814 24.579 27.7976 24.5924C27.7501 24.6313 27.6942 24.677 27.6426 24.7177C27.5731 24.7726 27.5082 24.8193 27.4584 24.8548C27.4477 24.8624 27.438 24.8693 27.429 24.8757C27.3914 24.9024 27.367 24.9198 27.3421 24.9386C27.2921 24.9763 27.2809 24.99 27.2745 24.9981C27.254 25.0243 27.238 25.0445 27.2236 25.0627C27.2047 25.0865 27.1884 25.1072 27.1676 25.1341C27.1367 25.1738 27.1139 25.2047 27.0957 25.2313C27.0709 25.2677 27.0617 25.2861 27.0597 25.2903C27.0416 25.3488 27.0322 25.4032 27.0127 25.5159C27.0056 25.5573 26.997 25.6066 26.9862 25.6668C26.9536 25.8491 26.8967 26.1411 26.7466 26.4347C26.7452 26.4391 26.7425 26.448 26.7392 26.4623C26.731 26.4974 26.7228 26.5481 26.7164 26.617C26.705 26.7398 26.7034 26.862 26.7015 27.0072C26.7011 27.0368 26.7007 27.0673 26.7002 27.099C26.6996 27.1377 26.6987 27.1749 26.6979 27.2064C26.697 27.2396 26.6964 27.2666 26.6959 27.2923C26.6951 27.3436 26.6958 27.3741 26.6972 27.3958C26.6979 27.4077 26.6988 27.4148 26.6994 27.4185C26.714 27.45 26.7424 27.4995 26.8024 27.5866C26.8138 27.6031 26.8327 27.63 26.8556 27.6623C26.9089 27.7378 26.9836 27.8434 27.0332 27.9193C27.0332 27.9193 27.0396 27.9288 27.0589 27.948C27.0791 27.968 27.1089 27.9941 27.153 28.0276C27.1975 28.0614 27.2492 28.0973 27.3139 28.1405C27.3319 28.1525 27.3587 28.1702 27.3885 28.1899C27.4357 28.2211 27.4903 28.2571 27.5285 28.2828C27.6204 28.3448 27.695 28.4078 27.7411 28.4474C27.7661 28.4689 27.782 28.4828 27.7937 28.4929C27.8035 28.5015 27.8103 28.5075 27.8171 28.5132C27.8258 28.5184 27.8361 28.5242 27.8567 28.5359C27.8623 28.5391 27.8688 28.5428 27.8762 28.547C27.8786 28.5483 27.8812 28.5498 27.8841 28.5514C27.945 28.5859 28.0948 28.6706 28.2344 28.7989C28.2908 28.8508 28.3344 28.8999 28.3645 28.9358C28.3779 28.9518 28.3906 28.9676 28.4012 28.9811C28.4077 28.9853 28.4156 28.9904 28.4253 28.9967L28.4302 28.9999C28.4935 29.0411 28.6449 29.1395 28.7846 29.2929C28.8361 29.3495 28.9333 29.4252 29.1088 29.5212C29.2374 29.5917 29.3584 29.648 29.5023 29.715C29.5673 29.7452 29.6369 29.7776 29.714 29.8145C29.8401 29.8747 29.9479 29.9578 30.0349 30.0564C30.1797 30.0906 30.2763 30.1159 30.3457 30.1341C30.4631 30.1649 30.5027 30.1753 30.5668 30.1737C30.7909 30.1683 30.9823 30.1849 31.1737 30.2116C31.1854 30.2102 31.2154 30.206 31.2714 30.1935C31.2989 30.1873 31.3281 30.1803 31.3647 30.1715L31.375 30.169C31.4074 30.1612 31.4461 30.1519 31.4851 30.1429C31.5711 30.1233 31.6858 30.0991 31.8126 30.0848C31.8731 30.0779 31.9453 30.0631 32.0647 30.034C32.0804 30.0302 32.0976 30.026 32.1161 30.0214C32.2184 29.9962 32.36 29.9612 32.5011 29.9362C32.5236 29.9322 32.5446 29.9287 32.5622 29.9258L32.6082 29.9184C32.6144 29.9174 32.6198 29.9165 32.6245 29.9158C33.105 29.6614 33.5496 29.3167 33.9363 28.9107C34.1326 28.7046 34.3784 28.5901 34.4733 28.5462C34.5384 28.5161 34.6008 28.4901 34.6455 28.4715L34.6651 28.4634C34.7041 28.4472 34.722 28.4398 34.7361 28.4334C34.7686 28.4188 34.8015 28.4044 34.8277 28.3929C34.8347 28.3898 34.8413 28.387 34.8472 28.3844C34.8785 28.3706 34.8996 28.3611 34.9177 28.3526C34.9497 28.3374 34.964 28.3288 34.9753 28.3211C35.0132 28.2954 35.0473 28.2725 35.0787 28.2514C35.1859 28.1793 35.2595 28.1299 35.3324 28.0718C35.4159 28.0053 35.4446 27.9676 35.4541 27.9524C35.4988 27.8813 35.5464 27.8111 35.5836 27.7563L35.5901 27.7467C35.632 27.685 35.6634 27.6383 35.6913 27.5938C35.736 27.5224 35.7488 27.4912 35.7502 27.4884C35.7883 27.3354 35.7947 27.2041 35.7768 27.083C35.7514 26.9118 35.7132 26.7529 35.6654 26.5543C35.6435 26.4629 35.6194 26.3631 35.5937 26.2498C35.5463 26.0409 35.486 25.8573 35.4087 25.6946C35.3689 25.6108 35.3112 25.5202 35.2147 25.3843C35.1986 25.3616 35.1801 25.336 35.16 25.3082C35.0837 25.2022 34.9833 25.0629 34.8931 24.9199C34.8853 24.9154 34.8745 24.9095 34.8598 24.9023C34.8217 24.8836 34.7707 24.8627 34.6983 24.8368C34.6476 24.8187 34.6052 24.8046 34.5545 24.7877C34.523 24.7772 34.4884 24.7657 34.4466 24.7515C34.4296 24.7457 34.4131 24.7401 34.397 24.7346C34.1424 24.6479 33.9901 24.596 33.8033 24.5598L32.5005 24.307C32.4341 24.2941 32.3742 24.2821 32.3187 24.271ZM27.8552 31.1184C27.9221 31.2874 28.0225 31.4179 28.1126 31.5075C28.2535 31.6477 28.4052 31.728 28.4998 31.7716C28.6915 31.8599 28.8957 31.9072 29.0307 31.9343C29.1797 31.9642 29.3268 31.9848 29.4305 31.9987C29.5365 32.013 29.5674 32.0167 29.5674 32.0167C29.585 32.0211 29.6075 32.0271 29.6355 32.0347C29.8258 32.0861 30.2375 32.1973 30.6152 32.1882C30.7057 32.186 30.7867 32.1917 30.909 32.2093C31.2443 32.2575 31.5408 32.198 31.711 32.16C31.8084 32.1382 31.8693 32.1232 31.9126 32.1126C31.9716 32.0981 31.9977 32.0917 32.0387 32.0871C32.2342 32.065 32.4114 32.0235 32.5406 31.9921C32.5679 31.9855 32.593 31.9793 32.6162 31.9736C32.7171 31.9489 32.7835 31.9326 32.8538 31.9201C32.8593 31.9195 33.2083 31.8816 33.4947 31.7345C34.1829 31.381 34.8001 30.9103 35.3266 30.3717C35.3509 30.3607 35.3795 30.3486 35.4178 30.3327L35.4843 30.3051C35.5074 30.2954 35.5353 30.2835 35.5639 30.2706C35.5755 30.2654 35.5904 30.259 35.6079 30.2514C35.7127 30.2062 35.9136 30.1195 36.1062 29.9889C36.1269 29.9748 36.1511 29.9589 36.1783 29.941C36.4143 29.7857 36.8708 29.4852 37.1602 29.0246C37.1851 28.985 37.2144 28.9417 37.2578 28.8777L37.2584 28.8768C37.298 28.8185 37.3491 28.7431 37.3991 28.6633C37.495 28.5102 37.6294 28.2756 37.7017 27.9908C37.7973 27.6141 37.8326 27.2103 37.7701 26.7881C37.7307 26.5213 37.66 26.2275 37.6048 25.9983C37.5875 25.9261 37.5716 25.8604 37.5588 25.8038C37.4866 25.4857 37.3835 25.1555 37.2289 24.83C37.1107 24.5813 36.9687 24.3739 36.8573 24.2171C36.8247 24.1713 36.7957 24.1309 36.7692 24.0941C36.6941 23.9897 36.6401 23.9146 36.5867 23.8277C36.3483 23.4397 36.0092 23.2215 35.7463 23.0927C35.5361 22.9897 35.3029 22.9125 35.1602 22.8653C35.1357 22.8572 35.1139 22.85 35.0954 22.8437C35.0731 22.8361 35.0503 22.8283 35.0272 22.8204C34.7941 22.7407 34.5157 22.6454 34.1871 22.5816L32.8844 22.3288C32.847 22.3216 32.8055 22.3132 32.7608 22.3043C32.5985 22.2716 32.3953 22.2308 32.2006 22.2043C32.1468 22.197 32.1056 22.1887 32.0429 22.1762C31.9999 22.1676 31.9468 22.157 31.8725 22.1433C31.7309 22.1171 31.5153 22.0813 31.2811 22.0886C31.135 22.0932 31.0084 22.0993 30.8933 22.1049C30.6543 22.1165 30.465 22.1257 30.2546 22.1134C30.0561 22.1018 29.8716 22.1192 29.7466 22.1327C29.6951 22.1382 29.654 22.143 29.6194 22.147C29.551 22.1549 29.5074 22.1599 29.4565 22.1628C29.4124 22.1653 29.3841 22.1658 29.3446 22.1664C29.3097 22.167 29.2661 22.1678 29.1952 22.1702C29.0841 22.174 28.9203 22.1824 28.7475 22.2173C28.6482 22.2374 28.5513 22.2481 28.4076 22.2641C28.3661 22.2688 28.3206 22.2738 28.2701 22.2797C28.0741 22.3023 27.8043 22.3372 27.5285 22.4248C27.2259 22.5209 26.981 22.6807 26.8099 22.8062C26.7027 22.8848 26.5674 22.9951 26.4758 23.0699C26.441 23.0983 26.4125 23.1216 26.3942 23.136C26.3651 23.159 26.3334 23.1821 26.2889 23.2138C26.2828 23.2182 26.2761 23.2229 26.2689 23.228C26.2305 23.2553 26.1788 23.2921 26.1293 23.3294C26.0001 23.4268 25.8415 23.56 25.6888 23.7548C25.6792 23.767 25.6675 23.7816 25.6538 23.7984C25.533 23.9481 25.2667 24.2781 25.1403 24.677C25.0748 24.8835 25.0365 25.1116 25.014 25.246C25.0097 25.2713 25.006 25.2933 25.0028 25.3112C24.9747 25.4682 24.9574 25.5078 24.9525 25.5172C24.7836 25.8429 24.732 26.1941 24.71 26.4304C24.6904 26.6417 24.6879 26.8578 24.6863 27.0012C24.686 27.0255 24.6857 27.0477 24.6854 27.0674C24.6851 27.0855 24.6843 27.1078 24.6832 27.1338C24.675 27.3426 24.6573 27.7918 24.8608 28.2432C24.9495 28.44 25.0586 28.607 25.1421 28.7285C25.1912 28.7999 25.2246 28.8466 25.2525 28.8856C25.2858 28.9323 25.3114 28.9681 25.3468 29.0222C25.527 29.2978 25.7533 29.4948 25.9339 29.632C26.062 29.7294 26.2141 29.8295 26.3203 29.8995C26.3507 29.9195 26.3773 29.937 26.3985 29.9513C26.4007 29.9529 26.4091 29.9596 26.4274 29.9754L26.4515 29.9962L26.4827 30.0233C26.5053 30.0428 26.5346 30.0679 26.5676 30.0945C26.6407 30.1533 26.7097 30.1981 26.7611 30.2295C26.8009 30.2537 26.8425 30.2774 26.868 30.2918C26.8758 30.3015 26.8843 30.312 26.8932 30.3226C26.9234 30.3586 26.9667 30.4072 27.0223 30.4586C27.0936 30.5244 27.1614 30.5746 27.2122 30.61C27.2509 30.6369 27.2935 30.6645 27.3157 30.6788C27.3197 30.6815 27.3231 30.6836 27.3257 30.6853C27.3277 30.6866 27.3296 30.6879 27.3314 30.689C27.4971 30.8632 27.6797 31.0038 27.8552 31.1184ZM26.7001 27.422L26.6996 27.42L26.7001 27.422Z" fill="black"/>
<path d="M31.9291 24.201C32.0549 24.2181 32.1711 24.2414 32.3187 24.271C32.3742 24.2821 32.4341 24.2941 32.5005 24.307L33.8033 24.5598C33.9901 24.596 34.1424 24.6479 34.397 24.7346L34.4466 24.7515C34.4884 24.7657 34.523 24.7772 34.5545 24.7877C34.6052 24.8046 34.6476 24.8187 34.6983 24.8368C34.7707 24.8627 34.8217 24.8836 34.8598 24.9023C34.8745 24.9095 34.8853 24.9154 34.8931 24.9199C34.9833 25.0629 35.0837 25.2022 35.16 25.3082C35.1801 25.336 35.1986 25.3616 35.2147 25.3843C35.3112 25.5202 35.3689 25.6108 35.4087 25.6946C35.486 25.8573 35.5463 26.0409 35.5937 26.2498C35.6194 26.3631 35.6435 26.4629 35.6654 26.5543C35.7132 26.7529 35.7514 26.9118 35.7768 27.083C35.7947 27.2041 35.7883 27.3354 35.7502 27.4884C35.7488 27.4912 35.736 27.5224 35.6913 27.5938C35.6634 27.6383 35.632 27.685 35.5901 27.7467L35.5836 27.7563C35.5464 27.8111 35.4988 27.8813 35.4541 27.9524C35.4446 27.9676 35.4159 28.0053 35.3324 28.0718C35.2595 28.1299 35.1859 28.1793 35.0787 28.2514C35.0473 28.2725 35.0132 28.2954 34.9753 28.3211C34.964 28.3288 34.9497 28.3374 34.9177 28.3526C34.8996 28.3611 34.8785 28.3706 34.8472 28.3844L34.8277 28.3929C34.8015 28.4044 34.7686 28.4188 34.7361 28.4334C34.722 28.4398 34.7041 28.4472 34.6651 28.4634L34.6455 28.4715C34.6008 28.4901 34.5384 28.5161 34.4733 28.5462C34.3784 28.5901 34.1326 28.7046 33.9363 28.9107C33.5496 29.3167 33.105 29.6614 32.6245 29.9158L32.6082 29.9184L32.5622 29.9258C32.5446 29.9287 32.5236 29.9322 32.5011 29.9362C32.36 29.9612 32.2184 29.9962 32.1161 30.0214L32.0647 30.034C31.9453 30.0631 31.8731 30.0779 31.8126 30.0848C31.6858 30.0991 31.5711 30.1233 31.4851 30.1429C31.4461 30.1519 31.4074 30.1612 31.375 30.169L31.3647 30.1715C31.3281 30.1803 31.2989 30.1873 31.2714 30.1935C31.2154 30.206 31.1854 30.2102 31.1737 30.2116C30.9823 30.1849 30.7909 30.1683 30.5668 30.1737C30.5027 30.1753 30.4631 30.1649 30.3457 30.1341C30.2763 30.1159 30.1797 30.0906 30.0349 30.0564C29.9479 29.9578 29.8401 29.8747 29.714 29.8145C29.6369 29.7776 29.5673 29.7452 29.5023 29.715C29.3584 29.648 29.2374 29.5917 29.1088 29.5212C28.9333 29.4252 28.8361 29.3495 28.7846 29.2929C28.6449 29.1395 28.4935 29.0411 28.4302 28.9999L28.4253 28.9967L28.4012 28.9811C28.3906 28.9676 28.3779 28.9518 28.3645 28.9358C28.3344 28.8999 28.2908 28.8508 28.2344 28.7989C28.0948 28.6706 27.945 28.5859 27.8841 28.5514L27.8762 28.547L27.8567 28.5359C27.8361 28.5242 27.8258 28.5184 27.8171 28.5132C27.8103 28.5075 27.8035 28.5015 27.7937 28.4929C27.782 28.4828 27.7661 28.4689 27.7411 28.4474C27.695 28.4078 27.6204 28.3448 27.5285 28.2828C27.4903 28.2571 27.4357 28.2211 27.3885 28.1899L27.3139 28.1405C27.2492 28.0973 27.1975 28.0614 27.153 28.0276C27.1089 27.9941 27.0791 27.968 27.0589 27.948C27.0396 27.9288 27.0332 27.9193 27.0332 27.9193C26.9836 27.8434 26.9089 27.7378 26.8556 27.6623C26.8327 27.63 26.8138 27.6031 26.8024 27.5866C26.7424 27.4995 26.714 27.45 26.6994 27.4185C26.6988 27.4148 26.6979 27.4077 26.6972 27.3958C26.6958 27.3741 26.6951 27.3436 26.6959 27.2923C26.6964 27.2666 26.697 27.2396 26.6979 27.2064C26.6987 27.1749 26.6996 27.1377 26.7002 27.099L26.7015 27.0072C26.7034 26.862 26.705 26.7398 26.7164 26.617C26.7228 26.5481 26.731 26.4974 26.7392 26.4623C26.7425 26.448 26.7452 26.4391 26.7466 26.4347C26.8967 26.1411 26.9536 25.8491 26.9862 25.6668C26.997 25.6066 27.0056 25.5573 27.0127 25.5159C27.0322 25.4032 27.0416 25.3488 27.0597 25.2903C27.0617 25.2861 27.0709 25.2677 27.0957 25.2313C27.1139 25.2047 27.1367 25.1738 27.1676 25.1341C27.1884 25.1072 27.2047 25.0865 27.2236 25.0627L27.2745 24.9981C27.2809 24.99 27.2921 24.9763 27.3421 24.9386C27.367 24.9198 27.3914 24.9024 27.429 24.8757L27.4584 24.8548C27.5082 24.8193 27.5731 24.7726 27.6426 24.7177C27.6942 24.677 27.7501 24.6313 27.7976 24.5924L27.8434 24.555C27.9045 24.5053 27.9546 24.4656 28.0011 24.4314C28.0948 24.3628 28.1353 24.3466 28.1383 24.3454C28.216 24.3207 28.3205 24.3023 28.5016 24.2814C28.5276 24.2784 28.5567 24.2752 28.5882 24.2718C28.7405 24.2551 28.9499 24.2322 29.1462 24.1925C29.1462 24.1925 29.1558 24.1908 29.176 24.189C29.1975 24.187 29.2254 24.1854 29.2637 24.1841C29.2939 24.1831 29.3226 24.1825 29.3577 24.1817L29.3965 24.1809C29.4458 24.1798 29.507 24.1782 29.5702 24.1746C29.6847 24.1682 29.815 24.1531 29.9028 24.1429L29.9627 24.1361C30.0683 24.1247 30.1141 24.1237 30.1367 24.125C30.4616 24.1441 30.8187 24.1268 31.0988 24.1133C31.19 24.1089 31.2731 24.1049 31.3443 24.1027C31.3443 24.1027 31.3572 24.1025 31.3857 24.1057C31.4155 24.1091 31.4534 24.115 31.5061 24.1247C31.5419 24.1313 31.5715 24.1372 31.6063 24.1441L31.6884 24.1602C31.7564 24.1734 31.8404 24.1889 31.9291 24.201Z" fill="white"/>
<path fill-rule="evenodd" clip-rule="evenodd" d="M44.8233 32.6277C44.6109 32.5813 44.3126 32.4899 44.0612 32.3061C43.9247 32.2064 43.8229 32.0972 43.768 32.037C43.729 31.9942 43.7098 31.9725 43.6977 31.9587C43.6852 31.9446 43.6802 31.9389 43.6688 31.9275C43.6399 31.8989 43.6147 31.8737 43.5923 31.8514C43.472 31.7315 43.4347 31.6942 43.3742 31.6532C43.1381 31.4928 42.93 31.2379 42.859 30.8941C42.7933 30.5764 42.8706 30.3064 42.9461 30.1362C43.0868 29.8191 43.3276 29.5982 43.4948 29.4791C43.5232 29.4589 43.5631 29.4285 43.6116 29.3916C43.7805 29.2631 44.0541 29.0549 44.3133 28.9154C44.7987 28.6541 45.2842 28.5724 45.8064 28.6257C45.8592 28.6311 45.8915 28.6311 45.9471 28.6311C45.9985 28.6311 46.0699 28.6311 46.1959 28.6353C46.3754 28.6414 46.6916 28.6595 47.0065 28.7949C47.1828 28.8707 47.3101 28.9752 47.3938 29.0578C47.476 29.1388 47.5357 29.2181 47.5699 29.2657C47.588 29.2908 47.6039 29.3141 47.6146 29.3297L47.6342 29.3582C47.971 29.7389 47.9711 30.1966 47.9711 30.287C47.9711 30.2928 47.9711 30.2971 47.9712 30.2998C47.9736 30.373 47.9831 30.4556 48.0001 30.5898C48.0009 30.5961 48.0017 30.6025 48.0025 30.609C48.0174 30.7267 48.038 30.8895 48.0451 31.0579C48.0527 31.2384 48.0456 31.5192 47.9883 31.8021C47.9596 31.944 47.9109 32.1234 47.8223 32.3022C47.7368 32.4747 47.5763 32.7226 47.285 32.8929C46.5995 33.2936 45.9013 33.1145 45.6094 33.0396C45.5813 33.0324 45.5569 33.0262 45.5367 33.0215C45.2054 32.945 44.9734 32.7714 44.8233 32.6277ZM47.6432 29.371C47.6432 29.3711 47.6426 29.3703 47.6414 29.3686C47.6426 29.3702 47.6432 29.371 47.6432 29.371Z" fill="black"/>
<path fill-rule="evenodd" clip-rule="evenodd" d="M30.5683 28.7511C30.4021 28.7827 30.2257 28.7729 30.0543 28.7142C30.0301 28.7059 29.985 28.6926 29.9246 28.6747C29.6721 28.5999 29.1518 28.4458 28.7694 28.2509C28.5085 28.118 28.1802 27.9097 27.9345 27.5801C27.6613 27.2135 27.528 26.7443 27.6285 26.2264C27.7211 25.7491 27.9557 25.3343 28.3045 25.0083C28.3199 24.9939 28.3293 24.9845 28.3451 24.9687C28.3585 24.9553 28.3764 24.9374 28.4064 24.908C28.4552 24.8602 28.53 24.7886 28.6203 24.718C28.7941 24.5822 29.1312 24.3665 29.5957 24.3898C30.2356 24.4219 30.9114 24.5756 31.4715 24.7578C31.5297 24.7767 31.6047 24.7948 31.7226 24.8196C31.7418 24.8236 31.7631 24.828 31.7859 24.8327C31.8839 24.8528 32.0108 24.879 32.1306 24.9094C32.4305 24.9855 32.8785 25.1307 33.249 25.5104C33.4982 25.7659 33.6869 26.1225 33.7289 26.5236C33.7382 26.6125 33.738 26.6888 33.7369 26.7398C33.7364 26.7594 33.7357 26.7777 33.7351 26.792C33.832 27.2671 33.5987 27.6367 33.4242 27.8183C33.2533 27.9962 33.0563 28.0975 32.9429 28.1495C32.7043 28.2589 32.4413 28.3238 32.2803 28.3455C32.1504 28.363 31.9836 28.3791 31.8279 28.3932C31.771 28.4514 31.7153 28.4981 31.6679 28.5343C31.5503 28.6238 31.4082 28.7048 31.2503 28.7594C31.0198 28.8392 30.7801 28.8304 30.5683 28.7511ZM33.7331 26.8432C33.7331 26.8433 33.7331 26.8413 33.7332 26.837C33.7332 26.841 33.7332 26.8431 33.7331 26.8432Z" fill="black"/>
<path fill-rule="evenodd" clip-rule="evenodd" d="M38.571 37.1585C38.4484 36.6199 38.7857 36.0841 39.3242 35.9615C40.6797 35.6531 42.1431 35.4044 43.6627 35.5369C44.8811 35.6431 46.0231 36.0329 47.0374 36.4344C47.1772 36.4897 47.327 36.5458 47.484 36.6046C48.2273 36.8832 49.1313 37.2219 49.8982 37.8238C50.3326 38.1648 50.4083 38.7935 50.0673 39.2279C49.7263 39.6623 49.0977 39.7381 48.6633 39.397C48.1616 39.0032 47.6107 38.7942 46.8908 38.5211C46.7061 38.451 46.5102 38.3767 46.3013 38.294C45.3342 37.9112 44.4108 37.6097 43.489 37.5293C42.2841 37.4243 41.0643 37.6167 39.7679 37.9117C39.2294 38.0342 38.6935 37.697 38.571 37.1585Z" fill="#A7DC22"/>
<path fill-rule="evenodd" clip-rule="evenodd" d="M38.2585 37.8011C38.5318 37.3211 39.1423 37.1535 39.6223 37.4268C39.881 37.574 40.1652 37.7266 40.4632 37.8866C41.3245 38.349 42.3013 38.8735 43.1107 39.5103C43.2512 39.6209 43.3754 39.7088 43.5177 39.8095C43.603 39.8699 43.6949 39.9349 43.8007 40.0122C44.0569 40.1993 44.3442 40.4246 44.6192 40.7203C44.657 40.7608 44.695 40.8016 44.7333 40.8427C45.2523 41.3996 45.8165 42.0048 46.2956 42.7375C46.3218 42.7775 46.3524 42.8212 46.3938 42.8797C46.3977 42.8852 46.4017 42.8909 46.4058 42.8967C46.4422 42.948 46.4869 43.011 46.5303 43.0755C46.6257 43.2174 46.7508 43.4176 46.84 43.6589L46.8762 43.7579C46.8851 43.7819 46.8902 43.7946 46.8935 43.8024C47.2096 44.2481 47.1093 44.8664 46.6663 45.189C46.2199 45.5141 45.5944 45.4157 45.2693 44.9693C45.1004 44.7373 45.0159 44.4985 44.9763 44.3865C44.9715 44.3731 44.9674 44.3615 44.9639 44.352C44.957 44.3332 44.9355 44.288 44.8709 44.192C44.8419 44.1489 44.8115 44.1059 44.7729 44.0515L44.7617 44.0357C44.721 43.9782 44.6706 43.9068 44.6217 43.832C44.2398 43.248 43.7858 42.7603 43.2422 42.1764C43.2133 42.1453 43.1842 42.114 43.1548 42.0824C43.0065 41.923 42.8365 41.7846 42.6211 41.6273C42.563 41.5849 42.4942 41.536 42.4193 41.4828C42.2504 41.363 42.0507 41.2212 41.8739 41.0821C41.2121 40.5613 40.4725 40.1642 39.664 39.73C39.3317 39.5516 38.9878 39.3669 38.6328 39.1648C38.1529 38.8916 37.9853 38.281 38.2585 37.8011Z" fill="#A7DC22"/>
<path fill-rule="evenodd" clip-rule="evenodd" d="M18.9883 29.348C19.1139 28.8101 19.6517 28.4759 20.1895 28.6015C20.4643 28.6656 20.7647 28.728 21.0802 28.7936C21.9949 28.9836 23.0366 29.2 23.9502 29.5619C24.1074 29.6241 24.2429 29.67 24.3993 29.723C24.4936 29.755 24.5955 29.7895 24.7143 29.8317C24.9995 29.9331 25.3258 30.0615 25.6595 30.258C25.7049 30.2847 25.7507 30.3116 25.7968 30.3387C26.4172 30.7029 27.0969 31.1019 27.7303 31.6393C27.7635 31.6675 27.8019 31.698 27.8551 31.7398C27.8601 31.7438 27.8653 31.7478 27.8706 31.752C27.9171 31.7885 27.9751 31.834 28.0323 31.8812C28.1577 31.9848 28.3299 32.1368 28.4794 32.3385L28.5379 32.418C28.5473 32.4306 28.5535 32.4387 28.5578 32.4441C28.9818 32.7826 29.0591 33.3997 28.728 33.8327C28.3926 34.2715 27.765 34.3553 27.3262 34.0198C27.1019 33.8483 26.9564 33.6459 26.8919 33.5561C26.8843 33.5455 26.8779 33.5366 26.8725 33.5294C26.8673 33.5223 26.8417 33.4918 26.7588 33.4234C26.7218 33.3928 26.6834 33.3627 26.6337 33.3237L26.6195 33.3125C26.5673 33.2715 26.5017 33.2198 26.4363 33.1643C25.9396 32.7429 25.4005 32.4258 24.7479 32.0421C24.7139 32.0221 24.6796 32.0019 24.645 31.9816C24.4718 31.8796 24.2829 31.801 24.0446 31.7162C23.9811 31.6937 23.9057 31.668 23.8233 31.64C23.6363 31.5763 23.4135 31.5005 23.2137 31.4213C22.4729 31.1279 21.6927 30.9657 20.8361 30.7877C20.4829 30.7143 20.1167 30.6382 19.7348 30.5491C19.197 30.4236 18.8628 29.8858 18.9883 29.348Z" fill="#A7DC22"/>
<path fill-rule="evenodd" clip-rule="evenodd" d="M23.0888 27.3526C23.3854 26.8867 24.0036 26.7496 24.4694 27.0462C24.6053 27.1328 24.757 27.2096 24.9558 27.3064C24.9745 27.3155 24.9939 27.3249 25.0137 27.3345C25.1892 27.4197 25.4049 27.5243 25.6149 27.6475C26.3309 28.0675 26.9125 28.6658 27.3656 29.1481C27.855 29.669 28.3447 30.177 28.8473 30.6784C29.4552 31.2849 29.9665 32.0217 30.4065 32.6557C30.5182 32.8166 30.6252 32.9708 30.7281 33.1147C31.0494 33.5639 30.9457 34.1885 30.4965 34.5098C30.0473 34.8311 29.4227 34.7274 29.1014 34.2782C28.9622 34.0836 28.8312 33.8954 28.7046 33.7135C28.2784 33.1011 27.9024 32.5608 27.4347 32.0943C26.9138 31.5746 26.4088 31.0506 25.9079 30.5174C25.4526 30.0328 25.0441 29.6314 24.6029 29.3726C24.4647 29.2915 24.3204 29.2214 24.1336 29.1306C24.1163 29.1221 24.0986 29.1135 24.0805 29.1047C23.8817 29.0079 23.6374 28.8875 23.3951 28.7332C22.9293 28.4366 22.7921 27.8184 23.0888 27.3526Z" fill="#A7DC22"/>
<path fill-rule="evenodd" clip-rule="evenodd" d="M20.6591 33.2891C20.5182 32.7551 20.8368 32.208 21.3708 32.067C22.2177 31.8435 23.1407 31.7018 24.1053 31.7851C25.2259 31.8819 26.3767 32.3062 27.2705 32.678C28.4733 33.1784 29.4188 33.8514 30.3704 34.5724C30.8106 34.9059 30.897 35.5331 30.5635 35.9733C30.23 36.4135 29.6027 36.5 29.1625 36.1665C28.2347 35.4635 27.4575 34.922 26.5023 34.5246C25.6329 34.1629 24.7249 33.8461 23.9332 33.7777C23.2702 33.7204 22.5891 33.814 21.8812 34.0008C21.3472 34.1417 20.8001 33.8231 20.6591 33.2891Z" fill="#A7DC22"/>
<path fill-rule="evenodd" clip-rule="evenodd" d="M38.5667 37.5279C38.5298 36.9768 38.9466 36.5002 39.4977 36.4633C40.5466 36.393 41.6626 36.4491 42.7896 36.7964C44.0942 37.1984 45.4013 38.0216 46.4293 38.7285C47.7821 39.6586 48.8133 40.7417 49.8684 41.914C50.2378 42.3245 50.2045 42.9568 49.794 43.3263C49.3835 43.6957 48.7512 43.6624 48.3818 43.2519C47.3424 42.0971 46.4425 41.1647 45.2961 40.3765C44.2824 39.6795 43.1908 39.0128 42.2006 38.7077C41.3743 38.4531 40.5176 38.3995 39.6313 38.4588C39.0802 38.4957 38.6036 38.0789 38.5667 37.5279Z" fill="#A7DC22"/>
</g>
<path d="M75.9998 31.8987C75.9998 31.8987 87 27.499 100 27.499C113 27.4991 124 31.9007 124 31.9007" stroke="#647E22" stroke-opacity="0.2" stroke-width="2" stroke-linecap="round" stroke-dasharray="4 4"/>
<rect x="145.555" y="1.3194" width="55" height="55" rx="15.5" transform="rotate(15 145.555 1.3194)" stroke="#647E22" stroke-opacity="0.2"/>
<g clip-path="url(#clip0_3874_6904)">
<path fill-rule="evenodd" clip-rule="evenodd" d="M153.731 31.982C154.127 30.5021 154.812 29.1149 155.744 27.8994C156.677 26.6839 157.84 25.664 159.167 24.898C160.494 24.1319 161.958 23.6347 163.477 23.4347C164.996 23.2347 166.54 23.3359 168.02 23.7324C169.5 24.129 170.887 24.8131 172.102 25.7458C173.318 26.6785 174.338 27.8414 175.104 29.1682C175.87 30.4951 176.367 31.9598 176.567 33.4788C176.767 34.9978 176.666 36.5413 176.269 38.0211C175.468 41.0099 173.513 43.5581 170.833 45.1052C168.154 46.6523 164.969 47.0716 161.981 46.2707C158.992 45.4699 156.444 43.5146 154.896 40.8349C153.349 38.1553 152.93 34.9708 153.731 31.982ZM167.904 30.6033C168.018 30.1764 167.959 29.7214 167.738 29.3386C167.517 28.9558 167.152 28.6765 166.726 28.5621C166.299 28.4477 165.844 28.5076 165.461 28.7286C165.078 28.9496 164.799 29.3136 164.684 29.7406L163.39 34.5702C163.31 34.8692 163.315 35.1844 163.404 35.4808C163.493 35.7771 163.663 36.0427 163.895 36.248L166.683 38.7206C166.846 38.8738 167.037 38.9928 167.246 39.0706C167.455 39.1483 167.678 39.1833 167.901 39.1734C168.124 39.1635 168.343 39.1088 168.544 39.0128C168.746 38.9167 168.926 38.7811 169.074 38.6141C169.222 38.4471 169.335 38.2521 169.406 38.0406C169.478 37.8291 169.506 37.6054 169.489 37.3828C169.472 37.1602 169.411 36.9433 169.309 36.7449C169.206 36.5465 169.065 36.3706 168.894 36.2278L166.877 34.438L167.904 30.6033Z" fill="#6E8F1B"/>
<path fill-rule="evenodd" clip-rule="evenodd" d="M163.996 16.7641C164.761 16.3221 165.671 16.2023 166.525 16.4311L172.964 18.1565C173.818 18.3854 174.546 18.944 174.988 19.7096C175.43 20.4752 175.55 21.3851 175.321 22.239L173.812 27.8736C173.573 28.7627 172.66 29.2903 171.77 29.0521C170.881 28.8139 170.354 27.9 170.592 27.0109L172.102 21.3763L165.662 19.6508L164.152 25.2854C163.914 26.1745 163 26.7022 162.111 26.4639C161.222 26.2257 160.694 25.3118 160.933 24.4227L162.442 18.7881C162.671 17.9342 163.23 17.2061 163.996 16.7641ZM158.229 40.9528C159.118 41.191 159.646 42.1049 159.407 42.994L157.898 48.6286L164.337 50.3541L165.847 44.7195C166.085 43.8304 166.999 43.3028 167.888 43.541C168.777 43.7792 169.305 44.6931 169.067 45.5822L167.557 51.2168C167.328 52.0707 166.769 52.7988 166.004 53.2408C165.238 53.6829 164.328 53.8026 163.474 53.5738L157.035 51.8484C156.181 51.6196 155.453 51.0609 155.011 50.2953C154.569 49.5297 154.449 48.6198 154.678 47.7659L156.188 42.1313C156.426 41.2422 157.34 40.7146 158.229 40.9528Z" fill="#6E8F1B"/>
</g>
<path fill-rule="evenodd" clip-rule="evenodd" d="M93.992 10.2772C94.5156 9.54999 95.3824 9 96.6663 9C97.9307 9 98.926 9.53016 99.5997 10.1907C99.7452 10.3333 99.8793 10.4858 99.9997 10.6443C100.12 10.4858 100.254 10.3333 100.4 10.1907C101.073 9.53016 102.069 9 103.333 9C104.617 9 105.484 9.54999 106.007 10.2772C106.506 10.9705 106.666 11.7823 106.666 12.3333C106.666 14.9492 104.996 17.1153 103.457 18.568C102.676 19.3064 101.897 19.8903 101.314 20.2895C101.022 20.4896 100.778 20.6443 100.605 20.7498C100.519 20.8026 100.45 20.8432 100.402 20.8711C100.378 20.885 100.359 20.8958 100.346 20.9033L100.331 20.9121L100.326 20.9147L100.324 20.9156C100.324 20.9156 100.323 20.9161 99.9997 20.3333C99.6759 20.9161 99.6755 20.9159 99.6755 20.9159L99.6735 20.9147L99.6688 20.9121L99.6532 20.9033C99.6399 20.8958 99.6211 20.885 99.5972 20.8711C99.5493 20.8432 99.4806 20.8026 99.3942 20.7498C99.2215 20.6443 98.9773 20.4896 98.6854 20.2895C98.1027 19.8903 97.3237 19.3064 96.5419 18.568C95.0037 17.1153 93.333 14.9492 93.333 12.3333C93.333 11.7823 93.4929 10.9705 93.992 10.2772ZM99.9997 20.3333L99.6755 20.9159C99.8769 21.0277 100.122 21.028 100.323 20.9161L99.9997 20.3333ZM99.9997 19.5567C100.147 19.465 100.338 19.3419 100.56 19.1896C101.103 18.818 101.824 18.277 102.542 17.5987C104.004 16.2181 105.333 14.3842 105.333 12.3333C105.333 11.9957 105.226 11.4742 104.925 11.0563C104.649 10.6723 104.182 10.3333 103.333 10.3333C102.464 10.3333 101.793 10.6922 101.333 11.1428C100.845 11.621 100.666 12.1267 100.666 12.3333C100.666 12.7015 100.368 13 99.9997 13C99.6315 13 99.333 12.7015 99.333 12.3333C99.333 12.1267 99.1541 11.621 98.6663 11.1428C98.2067 10.6922 97.5353 10.3333 96.6663 10.3333C95.817 10.3333 95.3505 10.6723 95.074 11.0563C94.7731 11.4742 94.6663 11.9957 94.6663 12.3333C94.6663 14.3842 95.9956 16.2181 97.4574 17.5987C98.1756 18.277 98.8966 18.818 99.439 19.1896C99.6612 19.3419 99.8524 19.465 99.9997 19.5567Z" fill="#A7DC22"/>
<path d="M100.56 19.1896C100.338 19.3419 100.147 19.465 99.9997 19.5567C99.8524 19.465 99.6612 19.3419 99.439 19.1896C98.8966 18.818 98.1756 18.277 97.4574 17.5987C95.9956 16.2181 94.6663 14.3842 94.6663 12.3333C94.6663 11.9957 94.7731 11.4742 95.074 11.0563C95.3505 10.6723 95.817 10.3333 96.6663 10.3333C97.5353 10.3333 98.2067 10.6922 98.6663 11.1428C99.1541 11.621 99.333 12.1267 99.333 12.3333C99.333 12.7015 99.6315 13 99.9997 13C100.368 13 100.666 12.7015 100.666 12.3333C100.666 12.1267 100.845 11.621 101.333 11.1428C101.793 10.6922 102.464 10.3333 103.333 10.3333C104.182 10.3333 104.649 10.6723 104.925 11.0563C105.226 11.4742 105.333 11.9957 105.333 12.3333C105.333 14.3842 104.004 16.2181 102.542 17.5987C101.824 18.277 101.103 18.818 100.56 19.1896Z" fill="#A7DC22"/>
<defs>
<filter id="filter0_d_3874_6904" x="-1.29346" y="-0.292969" width="72.5859" height="72.5859" filterUnits="userSpaceOnUse" color-interpolation-filters="sRGB">
<feFlood flood-opacity="0" result="BackgroundImageFix"/>
<feColorMatrix in="SourceAlpha" type="matrix" values="0 0 0 0 0 0 0 0 0 0 0 0 0 0 0 0 0 0 127 0" result="hardAlpha"/>
<feOffset dy="1"/>
<feGaussianBlur stdDeviation="1"/>
<feColorMatrix type="matrix" values="0 0 0 0 0.392998 0 0 0 0 0.495382 0 0 0 0 0.13403 0 0 0 0.2 0"/>
<feBlend mode="normal" in2="BackgroundImageFix" result="effect1_dropShadow_3874_6904"/>
<feBlend mode="normal" in="SourceGraphic" in2="effect1_dropShadow_3874_6904" result="shape"/>
</filter>
<clipPath id="clip0_3874_6904">
<rect width="40" height="40" fill="white" transform="translate(150.858 10.5059) rotate(15)"/>
</clipPath>
</defs>
</svg>
