<svg width="23" height="18" viewBox="0 0 23 18" fill="none" xmlns="http://www.w3.org/2000/svg">
<path d="M4.8252 0L3.09442 6.29374L2.5175 3.93359C3.26925 3.93359 3.88114 4.15212 4.35317 4.58919C4.8252 5.02625 5.06122 5.6294 5.06122 6.39864C5.06122 7.15039 4.81646 7.76228 4.32695 8.23431C3.85492 8.68886 3.26051 8.91613 2.54372 8.91613C1.80945 8.91613 1.19756 8.68886 0.708046 8.23431C0.236015 7.76228 0 7.15039 0 6.39864C0 6.17136 0.0174826 5.95283 0.0524478 5.74304C0.0874131 5.51576 0.157344 5.25352 0.262239 4.95632C0.367135 4.65912 0.515737 4.26576 0.708046 3.77624L2.22903 0H4.8252ZM11.014 0L9.28327 6.29374L8.70634 3.93359C9.45809 3.93359 10.07 4.15212 10.542 4.58919C11.014 5.02625 11.2501 5.6294 11.2501 6.39864C11.2501 7.15039 11.0053 7.76228 10.5158 8.23431C10.0438 8.68886 9.44935 8.91613 8.73256 8.91613C7.99829 8.91613 7.3864 8.68886 6.89689 8.23431C6.42486 7.76228 6.18884 7.15039 6.18884 6.39864C6.18884 6.17136 6.20633 5.95283 6.24129 5.74304C6.27626 5.51576 6.34619 5.25352 6.45108 4.95632C6.55598 4.65912 6.70458 4.26576 6.89689 3.77624L8.41788 0H11.014Z" fill="#A0D025"/>
<path d="M17.6748 17.832L19.4056 11.5383L19.9825 13.8984C19.2308 13.8984 18.6189 13.6799 18.1468 13.2428C17.6748 12.8058 17.4388 12.2026 17.4388 11.4334C17.4388 10.6816 17.6835 10.0698 18.1731 9.59772C18.6451 9.14317 19.2395 8.9159 19.9563 8.9159C20.6905 8.9159 21.3024 9.14317 21.792 9.59772C22.264 10.0698 22.5 10.6816 22.5 11.4334C22.5 11.6607 22.4825 11.8792 22.4476 12.089C22.4126 12.3163 22.3427 12.5785 22.2378 12.8757C22.1329 13.1729 21.9843 13.5663 21.792 14.0558L20.271 17.832H17.6748ZM11.486 17.832L13.2167 11.5383L13.7937 13.8984C13.0419 13.8984 12.43 13.6799 11.958 13.2428C11.486 12.8058 11.2499 12.2026 11.2499 11.4334C11.2499 10.6816 11.4947 10.0698 11.9842 9.59772C12.4562 9.14317 13.0506 8.9159 13.7674 8.9159C14.5017 8.9159 15.1136 9.14317 15.6031 9.59772C16.0751 10.0698 16.3112 10.6816 16.3112 11.4334C16.3112 11.6607 16.2937 11.8792 16.2587 12.089C16.2237 12.3163 16.1538 12.5785 16.0489 12.8757C15.944 13.1729 15.7954 13.5663 15.6031 14.0558L14.0821 17.832H11.486Z" fill="#A0D025"/>
</svg>
