<svg width="24" height="24" viewBox="0 0 24 24" fill="none" xmlns="http://www.w3.org/2000/svg">
<path d="M21.2187 15.3754C21.5637 14.9441 22.1937 14.8741 22.6249 15.2191C23.0562 15.5641 23.1262 16.1941 22.7812 16.6254L18.7812 21.6254C18.6036 21.8474 18.3394 21.9826 18.0556 21.9984C17.7716 22.0142 17.494 21.9086 17.2929 21.7074L15.2929 19.7074C14.9024 19.3169 14.9024 18.6839 15.2929 18.2934C15.6834 17.9028 16.3164 17.9028 16.707 18.2934L17.9159 19.5023L21.2187 15.3754Z" fill="#A0D025"/>
<path d="M10.7998 3.65137C11.146 3.39172 11.5673 3.25098 12 3.25098C12.4327 3.25098 12.854 3.39172 13.2002 3.65137L20.2002 8.90137C20.4484 9.08763 20.6503 9.32886 20.7891 9.60645C20.9279 9.88415 21 10.1905 21 10.501V12.4565C21 12.9796 20.4396 13.3258 19.9346 13.1894C19.4773 13.066 18.9964 13 18.5 13C16.5152 13 14.776 14.0513 13.8089 15.6274C13.6713 15.8515 13.4337 16.001 13.1708 16.001H13H11V19.001C11 19.5314 10.7891 20.04 10.4141 20.415C10.039 20.7901 9.53043 21.001 9 21.001H5C4.46957 21.001 3.96101 20.7901 3.58594 20.415C3.21087 20.04 3 19.5314 3 19.001V10.501C3 10.1905 3.07208 9.88416 3.21094 9.60645C3.34973 9.32885 3.55156 9.08763 3.7998 8.90137L10.7998 3.65137Z" fill="#A0D025"/>
</svg>
