<svg width="108" height="48" viewBox="0 0 108 48" fill="none" xmlns="http://www.w3.org/2000/svg">
<rect width="108" height="48" rx="12" fill="#F3FBDE"/>
<path fill-rule="evenodd" clip-rule="evenodd" d="M30.6555 15.6657C30.968 15.3533 31.3919 15.1777 31.8338 15.1777C32.2758 15.1777 32.6996 15.3533 33.0122 15.6657L34.3338 16.9874C34.6463 17.2999 34.8218 17.7238 34.8218 18.1657C34.8218 18.6077 34.6463 19.0315 34.3338 19.344L33.0122 20.6657L29.3338 16.9874L30.6555 15.6657ZM28.1555 18.1657L23.9888 22.3324C23.6762 22.6449 23.5006 23.0687 23.5005 23.5107V24.8324C23.5005 25.2744 23.6761 25.6983 23.9886 26.0109C24.3012 26.3235 24.7251 26.499 25.1672 26.499H26.4888C26.9308 26.499 27.3547 26.3233 27.6672 26.0107L31.8338 21.844L28.1555 18.1657Z" fill="#A7DC22"/>
<path d="M21.0005 25.666H20.1672C19.7251 25.666 19.3012 25.8416 18.9886 26.1542C18.6761 26.4667 18.5005 26.8907 18.5005 27.3327C18.5005 27.7747 18.6761 28.1986 18.9886 28.5112C19.3012 28.8238 19.7251 28.9993 20.1672 28.9993H31.8338C32.2758 28.9993 32.6998 29.1749 33.0123 29.4875C33.3249 29.8001 33.5005 30.224 33.5005 30.666C33.5005 31.108 33.3249 31.532 33.0123 31.8445C32.6998 32.1571 32.2758 32.3327 31.8338 32.3327H28.5005" stroke="#A7DC22" stroke-width="1.66667" stroke-linecap="round" stroke-linejoin="round"/>
<path d="M47.648 29.5V19.996H44.208V18.3H52.944V19.996H49.504V29.5H47.648ZM56.7006 29.692C55.922 29.692 55.2286 29.516 54.6206 29.164C54.0233 28.8013 53.5486 28.3053 53.1966 27.676C52.8553 27.0467 52.6846 26.3213 52.6846 25.5C52.6846 24.6787 52.8606 23.9533 53.2126 23.324C53.5646 22.6947 54.0446 22.204 54.6526 21.852C55.2713 21.4893 55.9753 21.308 56.7646 21.308C57.4793 21.308 58.1246 21.4947 58.7006 21.868C59.2766 22.2307 59.73 22.7587 60.0606 23.452C60.402 24.1453 60.5726 24.972 60.5726 25.932H54.2846L54.5246 25.708C54.5246 26.1987 54.6313 26.6253 54.8446 26.988C55.058 27.34 55.3406 27.612 55.6926 27.804C56.0446 27.996 56.434 28.092 56.8606 28.092C57.3513 28.092 57.7566 27.9853 58.0766 27.772C58.3966 27.548 58.6473 27.26 58.8286 26.908L60.4126 27.58C60.1886 28.0067 59.9006 28.38 59.5486 28.7C59.2073 29.02 58.7966 29.2653 58.3166 29.436C57.8473 29.6067 57.3086 29.692 56.7006 29.692ZM54.6366 24.78L54.3806 24.556H58.8926L58.6526 24.78C58.6526 24.3427 58.5566 23.9853 58.3646 23.708C58.1726 23.42 57.9273 23.2067 57.6286 23.068C57.3406 22.9187 57.0366 22.844 56.7166 22.844C56.3966 22.844 56.0766 22.9187 55.7566 23.068C55.4366 23.2067 55.17 23.42 54.9566 23.708C54.7433 23.9853 54.6366 24.3427 54.6366 24.78ZM55.5326 20.46L57.3886 18.3H59.4686L57.4046 20.46H55.5326ZM61.9764 29.5V21.5H63.6564L63.7364 22.572C63.9817 22.156 64.2964 21.8413 64.6804 21.628C65.0644 21.4147 65.5017 21.308 65.9924 21.308C66.6324 21.308 67.1764 21.452 67.6244 21.74C68.0724 22.028 68.3977 22.4653 68.6004 23.052C68.835 22.4867 69.1657 22.0547 69.5924 21.756C70.019 21.4573 70.5204 21.308 71.0964 21.308C72.0244 21.308 72.739 21.6067 73.2404 22.204C73.7417 22.7907 73.987 23.6973 73.9764 24.924V29.5H72.2004V25.404C72.2004 24.764 72.131 24.2733 71.9924 23.932C71.8537 23.58 71.667 23.3347 71.4324 23.196C71.1977 23.0573 70.9257 22.988 70.6164 22.988C70.0617 22.9773 69.6297 23.1747 69.3204 23.58C69.0217 23.9853 68.8724 24.5667 68.8724 25.324V29.5H67.0804V25.404C67.0804 24.764 67.011 24.2733 66.8724 23.932C66.7444 23.58 66.563 23.3347 66.3284 23.196C66.0937 23.0573 65.8217 22.988 65.5124 22.988C64.9577 22.9773 64.5257 23.1747 64.2164 23.58C63.9177 23.9853 63.7684 24.5667 63.7684 25.324V29.5H61.9764ZM80.6845 29.5L80.6045 27.996V25.388C80.6045 24.844 80.5458 24.3907 80.4285 24.028C80.3218 23.6547 80.1405 23.372 79.8845 23.18C79.6392 22.9773 79.3085 22.876 78.8925 22.876C78.5085 22.876 78.1725 22.956 77.8845 23.116C77.5965 23.276 77.3512 23.5267 77.1485 23.868L75.5805 23.292C75.7512 22.94 75.9752 22.6147 76.2525 22.316C76.5405 22.0067 76.8978 21.7613 77.3245 21.58C77.7618 21.3987 78.2845 21.308 78.8925 21.308C79.6712 21.308 80.3218 21.4627 80.8445 21.772C81.3672 22.0707 81.7512 22.5027 81.9965 23.068C82.2525 23.6333 82.3805 24.316 82.3805 25.116L82.3325 29.5H80.6845ZM78.3805 29.692C77.4205 29.692 76.6738 29.4787 76.1405 29.052C75.6178 28.6253 75.3565 28.0227 75.3565 27.244C75.3565 26.412 75.6338 25.7773 76.1885 25.34C76.7538 24.9027 77.5378 24.684 78.5405 24.684H80.6845V26.06H79.1165C78.4018 26.06 77.9005 26.1613 77.6125 26.364C77.3245 26.556 77.1805 26.8333 77.1805 27.196C77.1805 27.5053 77.3032 27.7507 77.5485 27.932C77.8045 28.1027 78.1565 28.188 78.6045 28.188C79.0098 28.188 79.3618 28.0973 79.6605 27.916C79.9592 27.7347 80.1885 27.4947 80.3485 27.196C80.5192 26.8973 80.6045 26.5613 80.6045 26.188H81.1325C81.1325 27.276 80.9138 28.1347 80.4765 28.764C80.0392 29.3827 79.3405 29.692 78.3805 29.692ZM77.5965 20.46L79.4525 18.3H81.5325L79.4685 20.46H77.5965ZM85.829 27.26L84.741 26.028L88.901 21.5H91.061L85.829 27.26ZM84.117 29.5V18.3H85.909V29.5H84.117ZM89.205 29.5L86.389 25.356L87.557 24.108L91.333 29.5H89.205Z" fill="#394C0A"/>
</svg>
