<svg width="198" height="48" viewBox="0 0 198 48" fill="none" xmlns="http://www.w3.org/2000/svg">
<rect width="198" height="48" rx="12" fill="#F3FBDE"/>
<path fill-rule="evenodd" clip-rule="evenodd" d="M25.9998 15.668C21.3973 15.668 17.6665 19.3988 17.6665 24.0013C17.6665 28.6038 21.3973 32.3346 25.9998 32.3346C30.6023 32.3346 34.3332 28.6038 34.3332 24.0013C34.3332 19.3988 30.6023 15.668 25.9998 15.668ZM25.9998 21.5013C25.7788 21.5013 25.5669 21.5891 25.4106 21.7454C25.2543 21.9017 25.1665 22.1136 25.1665 22.3346C25.1665 22.5556 25.0787 22.7676 24.9224 22.9239C24.7661 23.0802 24.5542 23.168 24.3332 23.168C24.1122 23.168 23.9002 23.0802 23.7439 22.9239C23.5876 22.7676 23.4998 22.5556 23.4998 22.3346C23.5 21.8934 23.617 21.4601 23.8388 21.0787C24.0606 20.6973 24.3795 20.3814 24.7629 20.1631C25.1464 19.9448 25.5808 19.8318 26.022 19.8357C26.4632 19.8396 26.8955 19.9602 27.275 20.1853C27.6545 20.4104 27.9677 20.7319 28.1828 21.1171C28.3978 21.5024 28.5071 21.9377 28.4995 22.3789C28.4918 22.8201 28.3676 23.2513 28.1393 23.6289C27.911 24.0065 27.5869 24.317 27.1998 24.5288C27.0804 24.5899 26.9725 24.6711 26.8807 24.7688C26.8609 24.7895 26.8448 24.8135 26.8332 24.8396V25.2513C26.8332 25.4723 26.7454 25.6843 26.5891 25.8406C26.4328 25.9968 26.2209 26.0846 25.9998 26.0846C25.7788 26.0846 25.5669 25.9968 25.4106 25.8406C25.2543 25.6843 25.1665 25.4723 25.1665 25.2513V24.8346C25.1665 24.3513 25.3773 23.9621 25.6157 23.6846C25.8498 23.4096 26.1407 23.208 26.399 23.0663C26.5616 22.9776 26.6901 22.8373 26.7641 22.6675C26.8381 22.4978 26.8534 22.3081 26.8076 22.1287C26.7618 21.9492 26.6576 21.7901 26.5113 21.6765C26.365 21.5629 26.1851 21.5012 25.9998 21.5013ZM26.8323 24.8438V24.8405V24.8446V24.8438ZM25.9998 26.5013C25.7788 26.5013 25.5669 26.5891 25.4106 26.7454C25.2543 26.9017 25.1665 27.1136 25.1665 27.3346C25.1665 27.5556 25.2543 27.7676 25.4106 27.9239C25.5669 28.0802 25.7788 28.168 25.9998 28.168H26.0082C26.2292 28.168 26.4411 28.0802 26.5974 27.9239C26.7537 27.7676 26.8415 27.5556 26.8415 27.3346C26.8415 27.1136 26.7537 26.9017 26.5974 26.7454C26.4411 26.5891 26.2292 26.5013 26.0082 26.5013H25.9998Z" fill="#A7DC22"/>
<path d="M45.328 29.5V18.3H47.312L50.832 23.484L54.32 18.3H56.32V29.5H54.464V21.228L50.816 26.62L47.184 21.26V29.5H45.328ZM62.2006 29.692C61.422 29.692 60.7286 29.516 60.1206 29.164C59.5233 28.8013 59.0486 28.3053 58.6966 27.676C58.3553 27.0467 58.1846 26.3213 58.1846 25.5C58.1846 24.6787 58.3606 23.9533 58.7126 23.324C59.0646 22.6947 59.5446 22.204 60.1526 21.852C60.7713 21.4893 61.4753 21.308 62.2646 21.308C62.9793 21.308 63.6246 21.4947 64.2006 21.868C64.7766 22.2307 65.23 22.7587 65.5606 23.452C65.902 24.1453 66.0726 24.972 66.0726 25.932H59.7846L60.0246 25.708C60.0246 26.1987 60.1313 26.6253 60.3446 26.988C60.558 27.34 60.8406 27.612 61.1926 27.804C61.5446 27.996 61.934 28.092 62.3606 28.092C62.8513 28.092 63.2566 27.9853 63.5766 27.772C63.8966 27.548 64.1473 27.26 64.3286 26.908L65.9126 27.58C65.6886 28.0067 65.4006 28.38 65.0486 28.7C64.7073 29.02 64.2966 29.2653 63.8166 29.436C63.3473 29.6067 62.8086 29.692 62.2006 29.692ZM60.1366 24.78L59.8806 24.556H64.3926L64.1526 24.78C64.1526 24.3427 64.0566 23.9853 63.8646 23.708C63.6726 23.42 63.4273 23.2067 63.1286 23.068C62.8406 22.9187 62.5366 22.844 62.2166 22.844C61.8966 22.844 61.5766 22.9187 61.2566 23.068C60.9366 23.2067 60.67 23.42 60.4566 23.708C60.2433 23.9853 60.1366 24.3427 60.1366 24.78ZM70.8851 32.908C70.3198 32.908 69.8078 32.86 69.3491 32.764C68.9011 32.668 68.5225 32.556 68.2131 32.428C67.9038 32.3 67.6638 32.1773 67.4931 32.06L68.1811 30.62C68.3305 30.6947 68.5278 30.7853 68.7731 30.892C69.0291 31.0093 69.3278 31.1107 69.6691 31.196C70.0105 31.2813 70.3945 31.324 70.8211 31.324C71.2798 31.324 71.6905 31.228 72.0531 31.036C72.4158 30.8547 72.6985 30.572 72.9011 30.188C73.1038 29.804 73.2051 29.3133 73.2051 28.716V21.5H74.9971V28.668C74.9971 29.5747 74.8265 30.3427 74.4851 30.972C74.1438 31.612 73.6638 32.092 73.0451 32.412C72.4265 32.7427 71.7065 32.908 70.8851 32.908ZM70.6131 29.34C69.8878 29.34 69.2531 29.1747 68.7091 28.844C68.1758 28.5133 67.7545 28.0547 67.4451 27.468C67.1465 26.8707 66.9971 26.1827 66.9971 25.404C66.9971 24.572 67.1465 23.852 67.4451 23.244C67.7545 22.636 68.1758 22.1613 68.7091 21.82C69.2531 21.4787 69.8878 21.308 70.6131 21.308C71.2638 21.308 71.8291 21.4787 72.3091 21.82C72.7998 22.1613 73.1785 22.6413 73.4451 23.26C73.7118 23.868 73.8451 24.588 73.8451 25.42C73.8451 26.2093 73.7118 26.8973 73.4451 27.484C73.1785 28.0707 72.7998 28.5293 72.3091 28.86C71.8291 29.18 71.2638 29.34 70.6131 29.34ZM71.1091 27.82C71.5145 27.82 71.8665 27.7133 72.1651 27.5C72.4745 27.2867 72.7145 26.9987 72.8851 26.636C73.0558 26.2627 73.1411 25.836 73.1411 25.356C73.1411 24.8653 73.0558 24.4387 72.8851 24.076C72.7145 23.7027 72.4745 23.4147 72.1651 23.212C71.8558 22.9987 71.4985 22.892 71.0931 22.892C70.6665 22.892 70.2878 22.9987 69.9571 23.212C69.6371 23.4147 69.3811 23.7027 69.1891 24.076C69.0078 24.4387 68.9171 24.8653 68.9171 25.356C68.9171 25.836 69.0078 26.2627 69.1891 26.636C69.3811 26.9987 69.6425 27.2867 69.9731 27.5C70.3038 27.7133 70.6825 27.82 71.1091 27.82ZM76.9764 29.5V18.3H78.7684V29.5H76.9764ZM84.3256 29.692C83.547 29.692 82.8536 29.516 82.2456 29.164C81.6483 28.8013 81.1736 28.3053 80.8216 27.676C80.4803 27.0467 80.3096 26.3213 80.3096 25.5C80.3096 24.6787 80.4856 23.9533 80.8376 23.324C81.1896 22.6947 81.6696 22.204 82.2776 21.852C82.8963 21.4893 83.6003 21.308 84.3896 21.308C85.1043 21.308 85.7496 21.4947 86.3256 21.868C86.9016 22.2307 87.355 22.7587 87.6856 23.452C88.027 24.1453 88.1976 24.972 88.1976 25.932H81.9096L82.1496 25.708C82.1496 26.1987 82.2563 26.6253 82.4696 26.988C82.683 27.34 82.9656 27.612 83.3176 27.804C83.6696 27.996 84.059 28.092 84.4856 28.092C84.9763 28.092 85.3816 27.9853 85.7016 27.772C86.0216 27.548 86.2723 27.26 86.4536 26.908L88.0376 27.58C87.8136 28.0067 87.5256 28.38 87.1736 28.7C86.8323 29.02 86.4216 29.2653 85.9416 29.436C85.4723 29.6067 84.9336 29.692 84.3256 29.692ZM82.2616 24.78L82.0056 24.556H86.5176L86.2776 24.78C86.2776 24.3427 86.1816 23.9853 85.9896 23.708C85.7976 23.42 85.5523 23.2067 85.2536 23.068C84.9656 22.9187 84.6616 22.844 84.3416 22.844C84.0216 22.844 83.7016 22.9187 83.3816 23.068C83.0616 23.2067 82.795 23.42 82.5816 23.708C82.3683 23.9853 82.2616 24.3427 82.2616 24.78ZM89.6501 32.7V21.5H91.3301L91.4421 22.972V32.7H89.6501ZM93.9701 29.692C93.2981 29.692 92.7168 29.5213 92.2261 29.18C91.7461 28.828 91.3781 28.3373 91.1221 27.708C90.8661 27.0787 90.7381 26.3427 90.7381 25.5C90.7381 24.6467 90.8661 23.9107 91.1221 23.292C91.3781 22.6627 91.7461 22.1773 92.2261 21.836C92.7168 21.484 93.2981 21.308 93.9701 21.308C94.6955 21.308 95.3248 21.484 95.8581 21.836C96.4021 22.1773 96.8235 22.6627 97.1221 23.292C97.4315 23.9107 97.5861 24.6467 97.5861 25.5C97.5861 26.3427 97.4315 27.0787 97.1221 27.708C96.8235 28.3373 96.4021 28.828 95.8581 29.18C95.3248 29.5213 94.6955 29.692 93.9701 29.692ZM93.5221 28.06C93.9488 28.06 94.3275 27.9533 94.6581 27.74C94.9888 27.516 95.2501 27.212 95.4421 26.828C95.6448 26.444 95.7461 26.0013 95.7461 25.5C95.7461 24.9987 95.6501 24.556 95.4581 24.172C95.2768 23.788 95.0208 23.4893 94.6901 23.276C94.3595 23.0627 93.9755 22.956 93.5381 22.956C93.1328 22.956 92.7701 23.0627 92.4501 23.276C92.1301 23.4893 91.8795 23.788 91.6981 24.172C91.5275 24.556 91.4421 24.9987 91.4421 25.5C91.4421 26.0013 91.5275 26.444 91.6981 26.828C91.8795 27.212 92.1248 27.516 92.4341 27.74C92.7541 27.9533 93.1168 28.06 93.5221 28.06ZM102.685 29.692C101.906 29.692 101.213 29.516 100.605 29.164C100.008 28.8013 99.533 28.3053 99.181 27.676C98.8397 27.0467 98.669 26.3213 98.669 25.5C98.669 24.6787 98.845 23.9533 99.197 23.324C99.549 22.6947 100.029 22.204 100.637 21.852C101.256 21.4893 101.96 21.308 102.749 21.308C103.464 21.308 104.109 21.4947 104.685 21.868C105.261 22.2307 105.714 22.7587 106.045 23.452C106.386 24.1453 106.557 24.972 106.557 25.932H100.269L100.509 25.708C100.509 26.1987 100.616 26.6253 100.829 26.988C101.042 27.34 101.325 27.612 101.677 27.804C102.029 27.996 102.418 28.092 102.845 28.092C103.336 28.092 103.741 27.9853 104.061 27.772C104.381 27.548 104.632 27.26 104.813 26.908L106.397 27.58C106.173 28.0067 105.885 28.38 105.533 28.7C105.192 29.02 104.781 29.2653 104.301 29.436C103.832 29.6067 103.293 29.692 102.685 29.692ZM100.621 24.78L100.365 24.556H104.877L104.637 24.78C104.637 24.3427 104.541 23.9853 104.349 23.708C104.157 23.42 103.912 23.2067 103.613 23.068C103.325 22.9187 103.021 22.844 102.701 22.844C102.381 22.844 102.061 22.9187 101.741 23.068C101.421 23.2067 101.154 23.42 100.941 23.708C100.728 23.9853 100.621 24.3427 100.621 24.78ZM111.114 29.692C110.271 29.692 109.626 29.484 109.178 29.068C108.74 28.6413 108.522 28.0333 108.522 27.244V19.004H110.298V26.908C110.298 27.2813 110.383 27.564 110.554 27.756C110.735 27.948 110.996 28.044 111.338 28.044C111.444 28.044 111.562 28.0227 111.69 27.98C111.818 27.9373 111.962 27.8573 112.122 27.74L112.778 29.1C112.5 29.292 112.223 29.436 111.946 29.532C111.668 29.6387 111.391 29.692 111.114 29.692ZM107.194 23.036V21.5H112.458V23.036H107.194ZM117.669 29.692C116.891 29.692 116.197 29.516 115.589 29.164C114.992 28.8013 114.517 28.3053 114.165 27.676C113.824 27.0467 113.653 26.3213 113.653 25.5C113.653 24.6787 113.829 23.9533 114.181 23.324C114.533 22.6947 115.013 22.204 115.621 21.852C116.24 21.4893 116.944 21.308 117.733 21.308C118.448 21.308 119.093 21.4947 119.669 21.868C120.245 22.2307 120.699 22.7587 121.029 23.452C121.371 24.1453 121.541 24.972 121.541 25.932H115.253L115.493 25.708C115.493 26.1987 115.6 26.6253 115.813 26.988C116.027 27.34 116.309 27.612 116.661 27.804C117.013 27.996 117.403 28.092 117.829 28.092C118.32 28.092 118.725 27.9853 119.045 27.772C119.365 27.548 119.616 27.26 119.797 26.908L121.381 27.58C121.157 28.0067 120.869 28.38 120.517 28.7C120.176 29.02 119.765 29.2653 119.285 29.436C118.816 29.6067 118.277 29.692 117.669 29.692ZM115.605 24.78L115.349 24.556H119.861L119.621 24.78C119.621 24.3427 119.525 23.9853 119.333 23.708C119.141 23.42 118.896 23.2067 118.597 23.068C118.309 22.9187 118.005 22.844 117.685 22.844C117.365 22.844 117.045 22.9187 116.725 23.068C116.405 23.2067 116.139 23.42 115.925 23.708C115.712 23.9853 115.605 24.3427 115.605 24.78ZM116.501 20.46L118.357 18.3H120.437L118.373 20.46H116.501ZM125.857 29.692C125.324 29.692 124.833 29.612 124.385 29.452C123.937 29.292 123.553 29.068 123.233 28.78C122.913 28.4813 122.668 28.1347 122.497 27.74L124.049 27.052C124.209 27.3507 124.444 27.6013 124.753 27.804C125.073 28.0067 125.425 28.108 125.809 28.108C126.225 28.108 126.556 28.0387 126.801 27.9C127.057 27.7507 127.185 27.548 127.185 27.292C127.185 27.0467 127.089 26.86 126.897 26.732C126.705 26.5933 126.433 26.4813 126.081 26.396L125.329 26.188C124.572 25.996 123.98 25.692 123.553 25.276C123.126 24.8493 122.913 24.364 122.913 23.82C122.913 23.02 123.169 22.4013 123.681 21.964C124.204 21.5267 124.95 21.308 125.921 21.308C126.412 21.308 126.86 21.3827 127.265 21.532C127.681 21.6707 128.038 21.8733 128.337 22.14C128.636 22.396 128.844 22.7 128.961 23.052L127.473 23.724C127.366 23.4573 127.164 23.2547 126.865 23.116C126.566 22.9667 126.236 22.892 125.873 22.892C125.51 22.892 125.228 22.972 125.025 23.132C124.822 23.2813 124.721 23.4947 124.721 23.772C124.721 23.932 124.812 24.0813 124.993 24.22C125.174 24.348 125.436 24.4547 125.777 24.54L126.721 24.764C127.244 24.892 127.67 25.0947 128.001 25.372C128.332 25.6387 128.577 25.9427 128.737 26.284C128.897 26.6147 128.977 26.9507 128.977 27.292C128.977 27.772 128.838 28.1933 128.561 28.556C128.294 28.9187 127.926 29.2013 127.457 29.404C126.988 29.596 126.454 29.692 125.857 29.692ZM135.762 20.012C135.463 20.012 135.207 19.9053 134.994 19.692C134.791 19.4787 134.69 19.228 134.69 18.94C134.69 18.6413 134.791 18.3907 134.994 18.188C135.207 17.9747 135.463 17.868 135.762 17.868C136.05 17.868 136.3 17.9747 136.514 18.188C136.727 18.3907 136.834 18.6413 136.834 18.94C136.834 19.228 136.727 19.4787 136.514 19.692C136.3 19.9053 136.05 20.012 135.762 20.012ZM133.986 32.94C133.463 32.94 132.908 32.7853 132.322 32.476L133.042 30.988C133.234 31.084 133.41 31.1533 133.57 31.196C133.73 31.2493 133.863 31.276 133.97 31.276C134.567 31.276 134.866 30.892 134.866 30.124V21.5H136.642V30.22C136.642 31.0947 136.412 31.7667 135.954 32.236C135.506 32.7053 134.85 32.94 133.986 32.94ZM142.341 29.692C141.563 29.692 140.869 29.516 140.261 29.164C139.664 28.8013 139.189 28.3053 138.837 27.676C138.496 27.0467 138.325 26.3213 138.325 25.5C138.325 24.6787 138.501 23.9533 138.853 23.324C139.205 22.6947 139.685 22.204 140.293 21.852C140.912 21.4893 141.616 21.308 142.405 21.308C143.12 21.308 143.765 21.4947 144.341 21.868C144.917 22.2307 145.371 22.7587 145.701 23.452C146.043 24.1453 146.213 24.972 146.213 25.932H139.925L140.165 25.708C140.165 26.1987 140.272 26.6253 140.485 26.988C140.699 27.34 140.981 27.612 141.333 27.804C141.685 27.996 142.075 28.092 142.501 28.092C142.992 28.092 143.397 27.9853 143.717 27.772C144.037 27.548 144.288 27.26 144.469 26.908L146.053 27.58C145.829 28.0067 145.541 28.38 145.189 28.7C144.848 29.02 144.437 29.2653 143.957 29.436C143.488 29.6067 142.949 29.692 142.341 29.692ZM140.277 24.78L140.021 24.556H144.533L144.293 24.78C144.293 24.3427 144.197 23.9853 144.005 23.708C143.813 23.42 143.568 23.2067 143.269 23.068C142.981 22.9187 142.677 22.844 142.357 22.844C142.037 22.844 141.717 22.9187 141.397 23.068C141.077 23.2067 140.811 23.42 140.597 23.708C140.384 23.9853 140.277 24.3427 140.277 24.78ZM151.026 32.908C150.46 32.908 149.948 32.86 149.49 32.764C149.042 32.668 148.663 32.556 148.354 32.428C148.044 32.3 147.804 32.1773 147.634 32.06L148.322 30.62C148.471 30.6947 148.668 30.7853 148.914 30.892C149.17 31.0093 149.468 31.1107 149.81 31.196C150.151 31.2813 150.535 31.324 150.962 31.324C151.42 31.324 151.831 31.228 152.194 31.036C152.556 30.8547 152.839 30.572 153.042 30.188C153.244 29.804 153.346 29.3133 153.346 28.716V21.5H155.138V28.668C155.138 29.5747 154.967 30.3427 154.626 30.972C154.284 31.612 153.804 32.092 153.186 32.412C152.567 32.7427 151.847 32.908 151.026 32.908ZM150.754 29.34C150.028 29.34 149.394 29.1747 148.85 28.844C148.316 28.5133 147.895 28.0547 147.586 27.468C147.287 26.8707 147.138 26.1827 147.138 25.404C147.138 24.572 147.287 23.852 147.586 23.244C147.895 22.636 148.316 22.1613 148.85 21.82C149.394 21.4787 150.028 21.308 150.754 21.308C151.404 21.308 151.97 21.4787 152.45 21.82C152.94 22.1613 153.319 22.6413 153.586 23.26C153.852 23.868 153.986 24.588 153.986 25.42C153.986 26.2093 153.852 26.8973 153.586 27.484C153.319 28.0707 152.94 28.5293 152.45 28.86C151.97 29.18 151.404 29.34 150.754 29.34ZM151.25 27.82C151.655 27.82 152.007 27.7133 152.306 27.5C152.615 27.2867 152.855 26.9987 153.026 26.636C153.196 26.2627 153.282 25.836 153.282 25.356C153.282 24.8653 153.196 24.4387 153.026 24.076C152.855 23.7027 152.615 23.4147 152.306 23.212C151.996 22.9987 151.639 22.892 151.234 22.892C150.807 22.892 150.428 22.9987 150.098 23.212C149.778 23.4147 149.522 23.7027 149.33 24.076C149.148 24.4387 149.058 24.8653 149.058 25.356C149.058 25.836 149.148 26.2627 149.33 26.636C149.522 26.9987 149.783 27.2867 150.114 27.5C150.444 27.7133 150.823 27.82 151.25 27.82ZM158.381 32.892C158.125 32.892 157.837 32.844 157.517 32.748C157.208 32.652 156.909 32.5293 156.621 32.38L157.293 30.924C157.496 31.02 157.682 31.0947 157.853 31.148C158.024 31.212 158.162 31.244 158.269 31.244C158.525 31.244 158.738 31.1747 158.909 31.036C159.09 30.908 159.234 30.716 159.341 30.46L160.285 28.252L162.989 21.5H164.941L161.229 30.348C161.005 30.86 160.776 31.308 160.541 31.692C160.317 32.076 160.034 32.3693 159.693 32.572C159.352 32.7853 158.914 32.892 158.381 32.892ZM159.805 29.5L156.221 21.5H158.173L160.957 28.236L161.533 29.5H159.805ZM169.357 29.692C168.578 29.692 167.885 29.516 167.277 29.164C166.68 28.8013 166.205 28.3053 165.853 27.676C165.512 27.0467 165.341 26.3213 165.341 25.5C165.341 24.6787 165.517 23.9533 165.869 23.324C166.221 22.6947 166.701 22.204 167.309 21.852C167.928 21.4893 168.632 21.308 169.421 21.308C170.136 21.308 170.781 21.4947 171.357 21.868C171.933 22.2307 172.386 22.7587 172.717 23.452C173.058 24.1453 173.229 24.972 173.229 25.932H166.941L167.181 25.708C167.181 26.1987 167.288 26.6253 167.501 26.988C167.714 27.34 167.997 27.612 168.349 27.804C168.701 27.996 169.09 28.092 169.517 28.092C170.008 28.092 170.413 27.9853 170.733 27.772C171.053 27.548 171.304 27.26 171.485 26.908L173.069 27.58C172.845 28.0067 172.557 28.38 172.205 28.7C171.864 29.02 171.453 29.2653 170.973 29.436C170.504 29.6067 169.965 29.692 169.357 29.692ZM167.293 24.78L167.037 24.556H171.549L171.309 24.78C171.309 24.3427 171.213 23.9853 171.021 23.708C170.829 23.42 170.584 23.2067 170.285 23.068C169.997 22.9187 169.693 22.844 169.373 22.844C169.053 22.844 168.733 22.9187 168.413 23.068C168.093 23.2067 167.826 23.42 167.613 23.708C167.4 23.9853 167.293 24.3427 167.293 24.78ZM176.313 27.26L175.225 26.028L179.385 21.5H181.545L176.313 27.26ZM174.601 29.5V18.3H176.393V29.5H174.601ZM179.689 29.5L176.873 25.356L178.041 24.108L181.817 29.5H179.689Z" fill="#394C0A"/>
</svg>
