<svg width="108" height="48" viewBox="0 0 108 48" fill="none" xmlns="http://www.w3.org/2000/svg">
<rect width="108" height="48" rx="12" fill="#F3FBDE"/>
<path fill-rule="evenodd" clip-rule="evenodd" d="M26.8026 15.9055C26.7524 15.8382 26.6891 15.7817 26.6166 15.7394C26.544 15.6971 26.4637 15.6699 26.3804 15.6593C26.2971 15.6487 26.2125 15.655 26.1317 15.6778C26.0509 15.7007 25.9755 15.7396 25.9101 15.7922C24.3129 17.0742 23.2594 18.9127 22.9609 20.9388C22.4141 20.5413 21.9344 20.0589 21.5401 19.5097C21.4866 19.4349 21.4173 19.3729 21.3371 19.328C21.2569 19.2831 21.1678 19.2564 21.0761 19.2499C20.9845 19.2434 20.8925 19.2572 20.8067 19.2902C20.721 19.3233 20.6436 19.3749 20.5801 19.4413C19.4795 20.5926 18.774 22.0644 18.5658 23.6435C18.3576 25.2225 18.6575 26.8268 19.4221 28.2241C20.1866 29.6213 21.3761 30.7388 22.8182 31.4148C24.2604 32.0908 25.8803 32.2902 27.4433 31.984C29.0063 31.6778 30.4312 30.882 31.5117 29.7118C32.5922 28.5416 33.2721 27.0579 33.453 25.4755C33.6338 23.893 33.3062 22.2941 32.5176 20.9104C31.729 19.5266 30.5204 18.4298 29.0667 17.7788C28.1732 17.3443 27.3967 16.7019 26.8026 15.9055ZM29.1251 25.8755C29.1248 26.3275 29.0264 26.7741 28.8367 27.1844C28.6471 27.5948 28.3707 27.959 28.0266 28.2522C27.6825 28.5453 27.2789 28.7603 26.8437 28.8823C26.4084 29.0044 25.9519 29.0305 25.5056 28.959C25.0592 28.8875 24.6337 28.7199 24.2584 28.468C23.8831 28.2161 23.5669 27.8857 23.3317 27.4998C23.0964 27.1138 22.9477 26.6814 22.8958 26.2323C22.8438 25.7833 22.8899 25.3283 23.0309 24.8988C23.5542 25.2863 24.1559 25.5738 24.8084 25.7322C24.986 24.5915 25.5528 23.5475 26.4126 22.7772C27.1634 22.8772 27.8524 23.2465 28.3513 23.8164C28.8503 24.3863 29.1252 25.118 29.1251 25.8755Z" fill="#A7DC22"/>
<path d="M49.008 29.692C48.4213 29.692 47.8827 29.6227 47.392 29.484C46.912 29.3453 46.4853 29.1533 46.112 28.908C45.7493 28.6627 45.4453 28.3907 45.2 28.092C44.9653 27.7827 44.8 27.4627 44.704 27.132L46.528 26.572C46.6667 26.9667 46.9387 27.3133 47.344 27.612C47.7493 27.9107 48.2507 28.0653 48.848 28.076C49.5413 28.076 50.0907 27.932 50.496 27.644C50.9013 27.356 51.104 26.9773 51.104 26.508C51.104 26.0813 50.9333 25.7347 50.592 25.468C50.2507 25.1907 49.792 24.9773 49.216 24.828L47.84 24.476C47.3173 24.3373 46.8427 24.1347 46.416 23.868C46 23.6013 45.6693 23.2653 45.424 22.86C45.1893 22.4547 45.072 21.9747 45.072 21.42C45.072 20.3747 45.4133 19.564 46.096 18.988C46.7787 18.4013 47.7547 18.108 49.024 18.108C49.7387 18.108 50.3627 18.22 50.896 18.444C51.44 18.6573 51.888 18.956 52.24 19.34C52.592 19.7133 52.8533 20.14 53.024 20.62L51.232 21.196C51.072 20.7693 50.7947 20.4173 50.4 20.14C50.0053 19.8627 49.5147 19.724 48.928 19.724C48.32 19.724 47.84 19.868 47.488 20.156C47.1467 20.444 46.976 20.844 46.976 21.356C46.976 21.772 47.1093 22.0973 47.376 22.332C47.6533 22.556 48.0267 22.7267 48.496 22.844L49.872 23.18C50.8747 23.4253 51.6533 23.8467 52.208 24.444C52.7627 25.0413 53.04 25.7027 53.04 26.428C53.04 27.068 52.8853 27.6333 52.576 28.124C52.2667 28.6147 51.808 28.9987 51.2 29.276C50.6027 29.5533 49.872 29.692 49.008 29.692ZM57.9416 29.692C57.099 29.692 56.4536 29.484 56.0056 29.068C55.5683 28.6413 55.3496 28.0333 55.3496 27.244V19.004H57.1256V26.908C57.1256 27.2813 57.211 27.564 57.3816 27.756C57.563 27.948 57.8243 28.044 58.1656 28.044C58.2723 28.044 58.3896 28.0227 58.5176 27.98C58.6456 27.9373 58.7896 27.8573 58.9496 27.74L59.6056 29.1C59.3283 29.292 59.051 29.436 58.7736 29.532C58.4963 29.6387 58.219 29.692 57.9416 29.692ZM54.0216 23.036V21.5H59.2856V23.036H54.0216ZM62.2229 25.244C62.2229 24.38 62.3882 23.6707 62.7189 23.116C63.0495 22.5613 63.4762 22.1507 63.9989 21.884C64.5322 21.6067 65.0869 21.468 65.6629 21.468V23.18C65.1722 23.18 64.7082 23.2493 64.2709 23.388C63.8442 23.516 63.4975 23.7293 63.2309 24.028C62.9642 24.3267 62.8309 24.7213 62.8309 25.212L62.2229 25.244ZM61.0389 29.5V21.5H62.8309V29.5H61.0389ZM70.4194 29.692C69.6407 29.692 68.9474 29.516 68.3394 29.164C67.742 28.8013 67.2674 28.3053 66.9154 27.676C66.574 27.0467 66.4034 26.3213 66.4034 25.5C66.4034 24.6787 66.5794 23.9533 66.9314 23.324C67.2834 22.6947 67.7634 22.204 68.3714 21.852C68.99 21.4893 69.694 21.308 70.4834 21.308C71.198 21.308 71.8434 21.4947 72.4194 21.868C72.9954 22.2307 73.4487 22.7587 73.7794 23.452C74.1207 24.1453 74.2914 24.972 74.2914 25.932H68.0034L68.2434 25.708C68.2434 26.1987 68.35 26.6253 68.5634 26.988C68.7767 27.34 69.0594 27.612 69.4114 27.804C69.7634 27.996 70.1527 28.092 70.5794 28.092C71.07 28.092 71.4754 27.9853 71.7954 27.772C72.1154 27.548 72.366 27.26 72.5474 26.908L74.1314 27.58C73.9074 28.0067 73.6194 28.38 73.2674 28.7C72.926 29.02 72.5154 29.2653 72.0354 29.436C71.566 29.6067 71.0274 29.692 70.4194 29.692ZM68.3554 24.78L68.0994 24.556H72.6114L72.3714 24.78C72.3714 24.3427 72.2754 23.9853 72.0834 23.708C71.8914 23.42 71.646 23.2067 71.3474 23.068C71.0594 22.9187 70.7554 22.844 70.4354 22.844C70.1154 22.844 69.7954 22.9187 69.4754 23.068C69.1554 23.2067 68.8887 23.42 68.6754 23.708C68.462 23.9853 68.3554 24.3427 68.3554 24.78ZM80.5439 29.5L80.4639 27.996V25.388C80.4639 24.844 80.4052 24.3907 80.2879 24.028C80.1812 23.6547 79.9999 23.372 79.7439 23.18C79.4985 22.9773 79.1679 22.876 78.7519 22.876C78.3679 22.876 78.0319 22.956 77.7439 23.116C77.4559 23.276 77.2105 23.5267 77.0079 23.868L75.4399 23.292C75.6105 22.94 75.8345 22.6147 76.1119 22.316C76.3999 22.0067 76.7572 21.7613 77.1839 21.58C77.6212 21.3987 78.1439 21.308 78.7519 21.308C79.5305 21.308 80.1812 21.4627 80.7039 21.772C81.2265 22.0707 81.6105 22.5027 81.8559 23.068C82.1119 23.6333 82.2399 24.316 82.2399 25.116L82.1919 29.5H80.5439ZM78.2399 29.692C77.2799 29.692 76.5332 29.4787 75.9999 29.052C75.4772 28.6253 75.2159 28.0227 75.2159 27.244C75.2159 26.412 75.4932 25.7773 76.0479 25.34C76.6132 24.9027 77.3972 24.684 78.3999 24.684H80.5439V26.06H78.9759C78.2612 26.06 77.7599 26.1613 77.4719 26.364C77.1839 26.556 77.0399 26.8333 77.0399 27.196C77.0399 27.5053 77.1625 27.7507 77.4079 27.932C77.6639 28.1027 78.0159 28.188 78.4639 28.188C78.8692 28.188 79.2212 28.0973 79.5199 27.916C79.8185 27.7347 80.0479 27.4947 80.2079 27.196C80.3785 26.8973 80.4639 26.5613 80.4639 26.188H80.9919C80.9919 27.276 80.7732 28.1347 80.3359 28.764C79.8985 29.3827 79.1999 29.692 78.2399 29.692ZM85.7665 27.26L84.6785 26.028L88.8385 21.5H90.9985L85.7665 27.26ZM84.0545 29.5V18.3H85.8465V29.5H84.0545ZM89.1425 29.5L86.3265 25.356L87.4945 24.108L91.2705 29.5H89.1425Z" fill="#394C0A"/>
</svg>
