<svg width="189" height="48" viewBox="0 0 189 48" fill="none" xmlns="http://www.w3.org/2000/svg">
<rect width="189" height="48" rx="12" fill="#F3FBDE"/>
<path d="M23.4998 20.666C22.1107 21.2218 18.9998 22.916 17.6665 25.2493M25.5832 23.166C23.639 24.2768 19.3332 27.666 17.6665 32.3327M26.4165 26.0827C25.444 27.0552 23.2498 29.4993 22.2498 31.4993" stroke="#A7DC22" stroke-width="1.66667" stroke-linecap="round" stroke-linejoin="round"/>
<path d="M28.2285 19.3752L28.7894 16.6377L30.6435 18.7294L33.166 18.4844L31.6927 21.036L33.1452 23.2352L30.4069 22.6744L28.3152 24.5285L28.4735 21.8985L25.9219 20.4252L28.2285 19.3752Z" fill="#A7DC22" stroke="#A7DC22" stroke-width="1.66667" stroke-linecap="round" stroke-linejoin="round"/>
<path d="M49.008 29.692C48.4213 29.692 47.8827 29.6227 47.392 29.484C46.912 29.3453 46.4853 29.1533 46.112 28.908C45.7493 28.6627 45.4453 28.3907 45.2 28.092C44.9653 27.7827 44.8 27.4627 44.704 27.132L46.528 26.572C46.6667 26.9667 46.9387 27.3133 47.344 27.612C47.7493 27.9107 48.2507 28.0653 48.848 28.076C49.5413 28.076 50.0907 27.932 50.496 27.644C50.9013 27.356 51.104 26.9773 51.104 26.508C51.104 26.0813 50.9333 25.7347 50.592 25.468C50.2507 25.1907 49.792 24.9773 49.216 24.828L47.84 24.476C47.3173 24.3373 46.8427 24.1347 46.416 23.868C46 23.6013 45.6693 23.2653 45.424 22.86C45.1893 22.4547 45.072 21.9747 45.072 21.42C45.072 20.3747 45.4133 19.564 46.096 18.988C46.7787 18.4013 47.7547 18.108 49.024 18.108C49.7387 18.108 50.3627 18.22 50.896 18.444C51.44 18.6573 51.888 18.956 52.24 19.34C52.592 19.7133 52.8533 20.14 53.024 20.62L51.232 21.196C51.072 20.7693 50.7947 20.4173 50.4 20.14C50.0053 19.8627 49.5147 19.724 48.928 19.724C48.32 19.724 47.84 19.868 47.488 20.156C47.1467 20.444 46.976 20.844 46.976 21.356C46.976 21.772 47.1093 22.0973 47.376 22.332C47.6533 22.556 48.0267 22.7267 48.496 22.844L49.872 23.18C50.8747 23.4253 51.6533 23.8467 52.208 24.444C52.7627 25.0413 53.04 25.7027 53.04 26.428C53.04 27.068 52.8853 27.6333 52.576 28.124C52.2667 28.6147 51.808 28.9987 51.2 29.276C50.6027 29.5533 49.872 29.692 49.008 29.692ZM54.3576 29.5V28.172L58.6136 23.004H54.3576V21.5H60.8696V22.812L56.6136 28.012H60.9016V29.5H54.3576ZM66.06 29.692C65.2813 29.692 64.588 29.516 63.98 29.164C63.3827 28.8013 62.908 28.3053 62.556 27.676C62.2147 27.0467 62.044 26.3213 62.044 25.5C62.044 24.6787 62.22 23.9533 62.572 23.324C62.924 22.6947 63.404 22.204 64.012 21.852C64.6307 21.4893 65.3347 21.308 66.124 21.308C66.8387 21.308 67.484 21.4947 68.06 21.868C68.636 22.2307 69.0893 22.7587 69.42 23.452C69.7613 24.1453 69.932 24.972 69.932 25.932H63.644L63.884 25.708C63.884 26.1987 63.9907 26.6253 64.204 26.988C64.4173 27.34 64.7 27.612 65.052 27.804C65.404 27.996 65.7933 28.092 66.22 28.092C66.7107 28.092 67.116 27.9853 67.436 27.772C67.756 27.548 68.0067 27.26 68.188 26.908L69.772 27.58C69.548 28.0067 69.26 28.38 68.908 28.7C68.5667 29.02 68.156 29.2653 67.676 29.436C67.2067 29.6067 66.668 29.692 66.06 29.692ZM63.996 24.78L63.74 24.556H68.252L68.012 24.78C68.012 24.3427 67.916 23.9853 67.724 23.708C67.532 23.42 67.2867 23.2067 66.988 23.068C66.7 22.9187 66.396 22.844 66.076 22.844C65.756 22.844 65.436 22.9187 65.116 23.068C64.796 23.2067 64.5293 23.42 64.316 23.708C64.1027 23.9853 63.996 24.3427 63.996 24.78ZM71.3045 29.5V21.5H72.9845L73.0645 22.572C73.3098 22.156 73.6245 21.8413 74.0085 21.628C74.3925 21.4147 74.8298 21.308 75.3205 21.308C75.9605 21.308 76.5045 21.452 76.9525 21.74C77.4005 22.028 77.7258 22.4653 77.9285 23.052C78.1632 22.4867 78.4938 22.0547 78.9205 21.756C79.3472 21.4573 79.8485 21.308 80.4245 21.308C81.3525 21.308 82.0672 21.6067 82.5685 22.204C83.0698 22.7907 83.3152 23.6973 83.3045 24.924V29.5H81.5285V25.404C81.5285 24.764 81.4592 24.2733 81.3205 23.932C81.1818 23.58 80.9952 23.3347 80.7605 23.196C80.5258 23.0573 80.2538 22.988 79.9445 22.988C79.3898 22.9773 78.9578 23.1747 78.6485 23.58C78.3498 23.9853 78.2005 24.5667 78.2005 25.324V29.5H76.4085V25.404C76.4085 24.764 76.3392 24.2733 76.2005 23.932C76.0725 23.58 75.8912 23.3347 75.6565 23.196C75.4218 23.0573 75.1498 22.988 74.8405 22.988C74.2858 22.9773 73.8538 23.1747 73.5445 23.58C73.2458 23.9853 73.0965 24.5667 73.0965 25.324V29.5H71.3045ZM88.7006 29.692C87.922 29.692 87.2286 29.516 86.6206 29.164C86.0233 28.8013 85.5486 28.3053 85.1966 27.676C84.8553 27.0467 84.6846 26.3213 84.6846 25.5C84.6846 24.6787 84.8606 23.9533 85.2126 23.324C85.5646 22.6947 86.0446 22.204 86.6526 21.852C87.2713 21.4893 87.9753 21.308 88.7646 21.308C89.4793 21.308 90.1246 21.4947 90.7006 21.868C91.2766 22.2307 91.73 22.7587 92.0606 23.452C92.402 24.1453 92.5726 24.972 92.5726 25.932H86.2846L86.5246 25.708C86.5246 26.1987 86.6313 26.6253 86.8446 26.988C87.058 27.34 87.3406 27.612 87.6926 27.804C88.0446 27.996 88.434 28.092 88.8606 28.092C89.3513 28.092 89.7566 27.9853 90.0766 27.772C90.3966 27.548 90.6473 27.26 90.8286 26.908L92.4126 27.58C92.1886 28.0067 91.9006 28.38 91.5486 28.7C91.2073 29.02 90.7966 29.2653 90.3166 29.436C89.8473 29.6067 89.3086 29.692 88.7006 29.692ZM86.6366 24.78L86.3806 24.556H90.8926L90.6526 24.78C90.6526 24.3427 90.5566 23.9853 90.3646 23.708C90.1726 23.42 89.9273 23.2067 89.6286 23.068C89.3406 22.9187 89.0366 22.844 88.7166 22.844C88.3966 22.844 88.0766 22.9187 87.7566 23.068C87.4366 23.2067 87.17 23.42 86.9566 23.708C86.7433 23.9853 86.6366 24.3427 86.6366 24.78ZM87.5326 20.46L89.3886 18.3H91.4686L89.4046 20.46H87.5326ZM93.9764 29.5V18.3H95.7684V29.5H93.9764ZM99.0216 32.892C98.7656 32.892 98.4776 32.844 98.1576 32.748C97.8483 32.652 97.5496 32.5293 97.2616 32.38L97.9336 30.924C98.1363 31.02 98.323 31.0947 98.4936 31.148C98.6643 31.212 98.803 31.244 98.9096 31.244C99.1656 31.244 99.379 31.1747 99.5496 31.036C99.731 30.908 99.875 30.716 99.9816 30.46L100.926 28.252L103.63 21.5H105.582L101.87 30.348C101.646 30.86 101.416 31.308 101.182 31.692C100.958 32.076 100.675 32.3693 100.334 32.572C99.9923 32.7853 99.555 32.892 99.0216 32.892ZM100.446 29.5L96.8616 21.5H98.8136L101.598 28.236L102.174 29.5H100.446ZM107.832 25.244C107.832 24.38 107.998 23.6707 108.328 23.116C108.659 22.5613 109.086 22.1507 109.608 21.884C110.142 21.6067 110.696 21.468 111.272 21.468V23.18C110.782 23.18 110.318 23.2493 109.88 23.388C109.454 23.516 109.107 23.7293 108.84 24.028C108.574 24.3267 108.44 24.7213 108.44 25.212L107.832 25.244ZM106.648 29.5V21.5H108.44V29.5H106.648ZM116.029 29.692C115.25 29.692 114.557 29.516 113.949 29.164C113.351 28.8013 112.877 28.3053 112.525 27.676C112.183 27.0467 112.013 26.3213 112.013 25.5C112.013 24.6787 112.189 23.9533 112.541 23.324C112.893 22.6947 113.373 22.204 113.981 21.852C114.599 21.4893 115.303 21.308 116.093 21.308C116.807 21.308 117.453 21.4947 118.029 21.868C118.605 22.2307 119.058 22.7587 119.389 23.452C119.73 24.1453 119.901 24.972 119.901 25.932H113.613L113.853 25.708C113.853 26.1987 113.959 26.6253 114.173 26.988C114.386 27.34 114.669 27.612 115.021 27.804C115.373 27.996 115.762 28.092 116.189 28.092C116.679 28.092 117.085 27.9853 117.405 27.772C117.725 27.548 117.975 27.26 118.157 26.908L119.741 27.58C119.517 28.0067 119.229 28.38 118.877 28.7C118.535 29.02 118.125 29.2653 117.645 29.436C117.175 29.6067 116.637 29.692 116.029 29.692ZM113.965 24.78L113.709 24.556H118.221L117.981 24.78C117.981 24.3427 117.885 23.9853 117.693 23.708C117.501 23.42 117.255 23.2067 116.957 23.068C116.669 22.9187 116.365 22.844 116.045 22.844C115.725 22.844 115.405 22.9187 115.085 23.068C114.765 23.2067 114.498 23.42 114.285 23.708C114.071 23.9853 113.965 24.3427 113.965 24.78ZM128.045 29.692C127.511 29.692 127.021 29.612 126.573 29.452C126.125 29.292 125.741 29.068 125.421 28.78C125.101 28.4813 124.855 28.1347 124.685 27.74L126.237 27.052C126.397 27.3507 126.631 27.6013 126.941 27.804C127.261 28.0067 127.613 28.108 127.997 28.108C128.413 28.108 128.743 28.0387 128.989 27.9C129.245 27.7507 129.373 27.548 129.373 27.292C129.373 27.0467 129.277 26.86 129.085 26.732C128.893 26.5933 128.621 26.4813 128.269 26.396L127.517 26.188C126.759 25.996 126.167 25.692 125.741 25.276C125.314 24.8493 125.101 24.364 125.101 23.82C125.101 23.02 125.357 22.4013 125.869 21.964C126.391 21.5267 127.138 21.308 128.109 21.308C128.599 21.308 129.047 21.3827 129.453 21.532C129.869 21.6707 130.226 21.8733 130.525 22.14C130.823 22.396 131.031 22.7 131.149 23.052L129.661 23.724C129.554 23.4573 129.351 23.2547 129.053 23.116C128.754 22.9667 128.423 22.892 128.061 22.892C127.698 22.892 127.415 22.972 127.213 23.132C127.01 23.2813 126.909 23.4947 126.909 23.772C126.909 23.932 126.999 24.0813 127.181 24.22C127.362 24.348 127.623 24.4547 127.965 24.54L128.909 24.764C129.431 24.892 129.858 25.0947 130.189 25.372C130.519 25.6387 130.765 25.9427 130.925 26.284C131.085 26.6147 131.165 26.9507 131.165 27.292C131.165 27.772 131.026 28.1933 130.749 28.556C130.482 28.9187 130.114 29.2013 129.645 29.404C129.175 29.596 128.642 29.692 128.045 29.692ZM132.186 29.5V28.172L136.442 23.004H132.186V21.5H138.698V22.812L134.442 28.012H138.73V29.5H132.186ZM145.2 29.5L145.12 27.996V25.388C145.12 24.844 145.061 24.3907 144.944 24.028C144.837 23.6547 144.656 23.372 144.4 23.18C144.155 22.9773 143.824 22.876 143.408 22.876C143.024 22.876 142.688 22.956 142.4 23.116C142.112 23.276 141.867 23.5267 141.664 23.868L140.096 23.292C140.267 22.94 140.491 22.6147 140.768 22.316C141.056 22.0067 141.413 21.7613 141.84 21.58C142.277 21.3987 142.8 21.308 143.408 21.308C144.187 21.308 144.837 21.4627 145.36 21.772C145.883 22.0707 146.267 22.5027 146.512 23.068C146.768 23.6333 146.896 24.316 146.896 25.116L146.848 29.5H145.2ZM142.896 29.692C141.936 29.692 141.189 29.4787 140.656 29.052C140.133 28.6253 139.872 28.0227 139.872 27.244C139.872 26.412 140.149 25.7773 140.704 25.34C141.269 24.9027 142.053 24.684 143.056 24.684H145.2V26.06H143.632C142.917 26.06 142.416 26.1613 142.128 26.364C141.84 26.556 141.696 26.8333 141.696 27.196C141.696 27.5053 141.819 27.7507 142.064 27.932C142.32 28.1027 142.672 28.188 143.12 28.188C143.525 28.188 143.877 28.0973 144.176 27.916C144.475 27.7347 144.704 27.4947 144.864 27.196C145.035 26.8973 145.12 26.5613 145.12 26.188H145.648C145.648 27.276 145.429 28.1347 144.992 28.764C144.555 29.3827 143.856 29.692 142.896 29.692ZM148.711 29.5V18.3H150.503V28.012L150.407 29.5H148.711ZM153.031 29.692C152.359 29.692 151.777 29.5213 151.287 29.18C150.807 28.828 150.439 28.3373 150.183 27.708C149.927 27.0787 149.799 26.3427 149.799 25.5C149.799 24.6467 149.927 23.9107 150.183 23.292C150.439 22.6627 150.807 22.1773 151.287 21.836C151.777 21.484 152.359 21.308 153.031 21.308C153.756 21.308 154.385 21.484 154.919 21.836C155.463 22.1773 155.884 22.6627 156.183 23.292C156.492 23.9107 156.647 24.6467 156.647 25.5C156.647 26.3427 156.492 27.0787 156.183 27.708C155.884 28.3373 155.463 28.828 154.919 29.18C154.385 29.5213 153.756 29.692 153.031 29.692ZM152.583 28.06C153.009 28.06 153.388 27.9533 153.719 27.74C154.049 27.516 154.311 27.212 154.503 26.828C154.705 26.444 154.807 26.0013 154.807 25.5C154.807 24.9987 154.711 24.556 154.519 24.172C154.337 23.788 154.081 23.4893 153.751 23.276C153.42 23.0627 153.036 22.956 152.599 22.956C152.193 22.956 151.831 23.0627 151.511 23.276C151.191 23.4893 150.94 23.788 150.759 24.172C150.588 24.556 150.503 24.9987 150.503 25.5C150.503 26.0013 150.588 26.444 150.759 26.828C150.94 27.212 151.185 27.516 151.495 27.74C151.815 27.9533 152.177 28.06 152.583 28.06ZM163.06 29.5L162.98 27.996V25.388C162.98 24.844 162.921 24.3907 162.804 24.028C162.697 23.6547 162.516 23.372 162.26 23.18C162.014 22.9773 161.684 22.876 161.268 22.876C160.884 22.876 160.548 22.956 160.26 23.116C159.972 23.276 159.726 23.5267 159.524 23.868L157.956 23.292C158.126 22.94 158.35 22.6147 158.628 22.316C158.916 22.0067 159.273 21.7613 159.7 21.58C160.137 21.3987 160.66 21.308 161.268 21.308C162.046 21.308 162.697 21.4627 163.22 21.772C163.742 22.0707 164.126 22.5027 164.372 23.068C164.628 23.6333 164.756 24.316 164.756 25.116L164.708 29.5H163.06ZM160.756 29.692C159.796 29.692 159.049 29.4787 158.516 29.052C157.993 28.6253 157.732 28.0227 157.732 27.244C157.732 26.412 158.009 25.7773 158.564 25.34C159.129 24.9027 159.913 24.684 160.916 24.684H163.06V26.06H161.492C160.777 26.06 160.276 26.1613 159.988 26.364C159.7 26.556 159.556 26.8333 159.556 27.196C159.556 27.5053 159.678 27.7507 159.924 27.932C160.18 28.1027 160.532 28.188 160.98 28.188C161.385 28.188 161.737 28.0973 162.036 27.916C162.334 27.7347 162.564 27.4947 162.724 27.196C162.894 26.8973 162.98 26.5613 162.98 26.188H163.508C163.508 27.276 163.289 28.1347 162.852 28.764C162.414 29.3827 161.716 29.692 160.756 29.692ZM159.972 20.46L161.828 18.3H163.908L161.844 20.46H159.972ZM169.404 29.692C168.871 29.692 168.38 29.612 167.932 29.452C167.484 29.292 167.1 29.068 166.78 28.78C166.46 28.4813 166.215 28.1347 166.044 27.74L167.596 27.052C167.756 27.3507 167.991 27.6013 168.3 27.804C168.62 28.0067 168.972 28.108 169.356 28.108C169.772 28.108 170.103 28.0387 170.348 27.9C170.604 27.7507 170.732 27.548 170.732 27.292C170.732 27.0467 170.636 26.86 170.444 26.732C170.252 26.5933 169.98 26.4813 169.628 26.396L168.876 26.188C168.119 25.996 167.527 25.692 167.1 25.276C166.673 24.8493 166.46 24.364 166.46 23.82C166.46 23.02 166.716 22.4013 167.228 21.964C167.751 21.5267 168.497 21.308 169.468 21.308C169.959 21.308 170.407 21.3827 170.812 21.532C171.228 21.6707 171.585 21.8733 171.884 22.14C172.183 22.396 172.391 22.7 172.508 23.052L171.02 23.724C170.913 23.4573 170.711 23.2547 170.412 23.116C170.113 22.9667 169.783 22.892 169.42 22.892C169.057 22.892 168.775 22.972 168.572 23.132C168.369 23.2813 168.268 23.4947 168.268 23.772C168.268 23.932 168.359 24.0813 168.54 24.22C168.721 24.348 168.983 24.4547 169.324 24.54L170.268 24.764C170.791 24.892 171.217 25.0947 171.548 25.372C171.879 25.6387 172.124 25.9427 172.284 26.284C172.444 26.6147 172.524 26.9507 172.524 27.292C172.524 27.772 172.385 28.1933 172.108 28.556C171.841 28.9187 171.473 29.2013 171.004 29.404C170.535 29.596 170.001 29.692 169.404 29.692Z" fill="#394C0A"/>
</svg>
