<svg width="145" height="48" viewBox="0 0 145 48" fill="none" xmlns="http://www.w3.org/2000/svg">
<rect width="145" height="48" rx="12" fill="#F3FBDE"/>
<path d="M31.8332 18.168H20.1665V25.668H31.8332V18.168Z" fill="#A7DC22"/>
<path d="M20.1665 30.6673V25.6673M20.1665 25.6673H31.8332V18.1673H20.1665M20.1665 25.6673V18.1673M20.1665 18.1673V17.334" stroke="#A7DC22" stroke-width="1.66667" stroke-linecap="round" stroke-linejoin="round"/>
<path d="M50.176 29.692C49.0987 29.692 48.1387 29.4467 47.296 28.956C46.464 28.4547 45.808 27.772 45.328 26.908C44.8587 26.0333 44.624 25.0307 44.624 23.9C44.624 22.7693 44.8587 21.772 45.328 20.908C45.808 20.0333 46.464 19.3507 47.296 18.86C48.128 18.3587 49.0827 18.108 50.16 18.108C50.8853 18.108 51.568 18.2413 52.208 18.508C52.848 18.764 53.4133 19.1213 53.904 19.58C54.4053 20.0387 54.7893 20.572 55.056 21.18L53.36 21.868C53.168 21.4627 52.9067 21.1053 52.576 20.796C52.256 20.476 51.888 20.2307 51.472 20.06C51.056 19.8893 50.6187 19.804 50.16 19.804C49.456 19.804 48.8267 19.98 48.272 20.332C47.728 20.684 47.296 21.1693 46.976 21.788C46.6667 22.396 46.512 23.1 46.512 23.9C46.512 24.7 46.6667 25.4093 46.976 26.028C47.296 26.6467 47.7333 27.132 48.288 27.484C48.8533 27.836 49.4933 28.012 50.208 28.012C50.6773 28.012 51.1147 27.9213 51.52 27.74C51.936 27.548 52.304 27.2867 52.624 26.956C52.9547 26.6253 53.216 26.2413 53.408 25.804L55.104 26.492C54.8373 27.1213 54.4587 27.6813 53.968 28.172C53.4773 28.652 52.9067 29.0253 52.256 29.292C51.6053 29.5587 50.912 29.692 50.176 29.692ZM60.1225 29.692C59.3438 29.692 58.6505 29.516 58.0425 29.164C57.4452 28.8013 56.9705 28.3053 56.6185 27.676C56.2772 27.0467 56.1065 26.3213 56.1065 25.5C56.1065 24.6787 56.2825 23.9533 56.6345 23.324C56.9865 22.6947 57.4665 22.204 58.0745 21.852C58.6932 21.4893 59.3972 21.308 60.1865 21.308C60.9012 21.308 61.5465 21.4947 62.1225 21.868C62.6985 22.2307 63.1518 22.7587 63.4825 23.452C63.8238 24.1453 63.9945 24.972 63.9945 25.932H57.7065L57.9465 25.708C57.9465 26.1987 58.0532 26.6253 58.2665 26.988C58.4798 27.34 58.7625 27.612 59.1145 27.804C59.4665 27.996 59.8558 28.092 60.2825 28.092C60.7732 28.092 61.1785 27.9853 61.4985 27.772C61.8185 27.548 62.0692 27.26 62.2505 26.908L63.8345 27.58C63.6105 28.0067 63.3225 28.38 62.9705 28.7C62.6292 29.02 62.2185 29.2653 61.7385 29.436C61.2692 29.6067 60.7305 29.692 60.1225 29.692ZM58.0585 24.78L57.8025 24.556H62.3145L62.0745 24.78C62.0745 24.3427 61.9785 23.9853 61.7865 23.708C61.5945 23.42 61.3492 23.2067 61.0505 23.068C60.7625 22.9187 60.4585 22.844 60.1385 22.844C59.8185 22.844 59.4985 22.9187 59.1785 23.068C58.8585 23.2067 58.5918 23.42 58.3785 23.708C58.1652 23.9853 58.0585 24.3427 58.0585 24.78ZM58.9545 20.46L60.8105 18.3H62.8905L60.8265 20.46H58.9545ZM65.3983 29.5V18.3H67.1903V29.5H65.3983ZM74.7509 27.26L73.6629 26.028L77.8229 21.5H79.9829L74.7509 27.26ZM73.0389 29.5V18.3H74.8309V29.5H73.0389ZM78.1269 29.5L75.3109 25.356L76.4789 24.108L80.2549 29.5H78.1269ZM84.672 29.692C83.872 29.692 83.1573 29.516 82.528 29.164C81.9093 28.8013 81.424 28.3053 81.072 27.676C80.72 27.0467 80.544 26.3213 80.544 25.5C80.544 24.6787 80.7147 23.9533 81.056 23.324C81.408 22.6947 81.8933 22.204 82.512 21.852C83.1307 21.4893 83.84 21.308 84.64 21.308C85.44 21.308 86.1493 21.4893 86.768 21.852C87.3867 22.204 87.8667 22.6947 88.208 23.324C88.56 23.9533 88.736 24.6787 88.736 25.5C88.736 26.3213 88.5653 27.0467 88.224 27.676C87.8827 28.3053 87.4027 28.8013 86.784 29.164C86.1653 29.516 85.4613 29.692 84.672 29.692ZM84.672 28.044C85.1093 28.044 85.4987 27.9373 85.84 27.724C86.1813 27.5 86.448 27.2013 86.64 26.828C86.832 26.444 86.928 26.0013 86.928 25.5C86.928 24.9987 86.8267 24.5613 86.624 24.188C86.432 23.804 86.1653 23.5053 85.824 23.292C85.4827 23.068 85.088 22.956 84.64 22.956C84.192 22.956 83.7973 23.0627 83.456 23.276C83.1147 23.4893 82.848 23.788 82.656 24.172C82.464 24.556 82.368 24.9987 82.368 25.5C82.368 26.0013 82.464 26.444 82.656 26.828C82.8587 27.2013 83.1307 27.5 83.472 27.724C83.824 27.9373 84.224 28.044 84.672 28.044ZM86.64 19.836C86.384 19.836 86.16 19.74 85.968 19.548C85.776 19.356 85.68 19.132 85.68 18.876C85.68 18.6093 85.776 18.38 85.968 18.188C86.16 17.996 86.384 17.9 86.64 17.9C86.9067 17.9 87.136 17.996 87.328 18.188C87.52 18.38 87.616 18.6093 87.616 18.876C87.616 19.132 87.52 19.356 87.328 19.548C87.136 19.74 86.9067 19.836 86.64 19.836ZM82.576 19.836C82.32 19.836 82.096 19.74 81.904 19.548C81.712 19.356 81.616 19.132 81.616 18.876C81.616 18.5987 81.712 18.3693 81.904 18.188C82.096 17.996 82.32 17.9 82.576 17.9C82.8427 17.9 83.072 17.996 83.264 18.188C83.456 18.3693 83.552 18.5987 83.552 18.876C83.552 19.132 83.456 19.356 83.264 19.548C83.072 19.74 82.8427 19.836 82.576 19.836ZM92.568 29.5L95.688 21.5H97.544L94.248 29.5H92.568ZM92.44 29.5L89.128 21.5H90.968L94.104 29.5H92.44ZM102.013 29.692C101.234 29.692 100.541 29.516 99.9331 29.164C99.3358 28.8013 98.8611 28.3053 98.5091 27.676C98.1678 27.0467 97.9971 26.3213 97.9971 25.5C97.9971 24.6787 98.1731 23.9533 98.5251 23.324C98.8771 22.6947 99.3571 22.204 99.9651 21.852C100.584 21.4893 101.288 21.308 102.077 21.308C102.792 21.308 103.437 21.4947 104.013 21.868C104.589 22.2307 105.042 22.7587 105.373 23.452C105.714 24.1453 105.885 24.972 105.885 25.932H99.5971L99.8371 25.708C99.8371 26.1987 99.9438 26.6253 100.157 26.988C100.37 27.34 100.653 27.612 101.005 27.804C101.357 27.996 101.746 28.092 102.173 28.092C102.664 28.092 103.069 27.9853 103.389 27.772C103.709 27.548 103.96 27.26 104.141 26.908L105.725 27.58C105.501 28.0067 105.213 28.38 104.861 28.7C104.52 29.02 104.109 29.2653 103.629 29.436C103.16 29.6067 102.621 29.692 102.013 29.692ZM99.9491 24.78L99.6931 24.556H104.205L103.965 24.78C103.965 24.3427 103.869 23.9853 103.677 23.708C103.485 23.42 103.24 23.2067 102.941 23.068C102.653 22.9187 102.349 22.844 102.029 22.844C101.709 22.844 101.389 22.9187 101.069 23.068C100.749 23.2067 100.482 23.42 100.269 23.708C100.056 23.9853 99.9491 24.3427 99.9491 24.78ZM110.442 29.692C109.599 29.692 108.954 29.484 108.506 29.068C108.068 28.6413 107.85 28.0333 107.85 27.244V19.004H109.626V26.908C109.626 27.2813 109.711 27.564 109.882 27.756C110.063 27.948 110.324 28.044 110.666 28.044C110.772 28.044 110.89 28.0227 111.018 27.98C111.146 27.9373 111.29 27.8573 111.45 27.74L112.106 29.1C111.828 29.292 111.551 29.436 111.274 29.532C110.996 29.6387 110.719 29.692 110.442 29.692ZM106.522 23.036V21.5H111.786V23.036H106.522ZM116.998 29.692C116.219 29.692 115.526 29.516 114.918 29.164C114.32 28.8013 113.846 28.3053 113.493 27.676C113.152 27.0467 112.982 26.3213 112.982 25.5C112.982 24.6787 113.158 23.9533 113.51 23.324C113.862 22.6947 114.342 22.204 114.95 21.852C115.568 21.4893 116.272 21.308 117.062 21.308C117.776 21.308 118.422 21.4947 118.998 21.868C119.574 22.2307 120.027 22.7587 120.358 23.452C120.699 24.1453 120.87 24.972 120.87 25.932H114.582L114.822 25.708C114.822 26.1987 114.928 26.6253 115.142 26.988C115.355 27.34 115.638 27.612 115.99 27.804C116.342 27.996 116.731 28.092 117.158 28.092C117.648 28.092 118.054 27.9853 118.374 27.772C118.694 27.548 118.944 27.26 119.126 26.908L120.71 27.58C120.486 28.0067 120.198 28.38 119.846 28.7C119.504 29.02 119.094 29.2653 118.614 29.436C118.144 29.6067 117.606 29.692 116.998 29.692ZM114.934 24.78L114.678 24.556H119.19L118.95 24.78C118.95 24.3427 118.854 23.9853 118.662 23.708C118.47 23.42 118.224 23.2067 117.926 23.068C117.638 22.9187 117.334 22.844 117.014 22.844C116.694 22.844 116.374 22.9187 116.054 23.068C115.734 23.2067 115.467 23.42 115.254 23.708C115.04 23.9853 114.934 24.3427 114.934 24.78ZM115.83 20.46L117.686 18.3H119.766L117.702 20.46H115.83ZM125.185 29.692C124.652 29.692 124.161 29.612 123.713 29.452C123.265 29.292 122.881 29.068 122.561 28.78C122.241 28.4813 121.996 28.1347 121.825 27.74L123.377 27.052C123.537 27.3507 123.772 27.6013 124.081 27.804C124.401 28.0067 124.753 28.108 125.137 28.108C125.553 28.108 125.884 28.0387 126.129 27.9C126.385 27.7507 126.513 27.548 126.513 27.292C126.513 27.0467 126.417 26.86 126.225 26.732C126.033 26.5933 125.761 26.4813 125.409 26.396L124.657 26.188C123.9 25.996 123.308 25.692 122.881 25.276C122.455 24.8493 122.241 24.364 122.241 23.82C122.241 23.02 122.497 22.4013 123.009 21.964C123.532 21.5267 124.279 21.308 125.249 21.308C125.74 21.308 126.188 21.3827 126.593 21.532C127.009 21.6707 127.367 21.8733 127.665 22.14C127.964 22.396 128.172 22.7 128.289 23.052L126.801 23.724C126.695 23.4573 126.492 23.2547 126.193 23.116C125.895 22.9667 125.564 22.892 125.201 22.892C124.839 22.892 124.556 22.972 124.353 23.132C124.151 23.2813 124.049 23.4947 124.049 23.772C124.049 23.932 124.14 24.0813 124.321 24.22C124.503 24.348 124.764 24.4547 125.105 24.54L126.049 24.764C126.572 24.892 126.999 25.0947 127.329 25.372C127.66 25.6387 127.905 25.9427 128.065 26.284C128.225 26.6147 128.305 26.9507 128.305 27.292C128.305 27.772 128.167 28.1933 127.889 28.556C127.623 28.9187 127.255 29.2013 126.785 29.404C126.316 29.596 125.783 29.692 125.185 29.692Z" fill="#394C0A"/>
</svg>
