<svg width="215" height="48" viewBox="0 0 215 48" fill="none" xmlns="http://www.w3.org/2000/svg">
<rect width="215" height="48" rx="12" fill="#F3FBDE"/>
<g clip-path="url(#clip0_6819_4935)">
<path d="M31.8335 27.334V29.834M31.8335 29.834V32.334M31.8335 29.834H34.3335M31.8335 29.834H29.3335" stroke="#A7DC22" stroke-width="1.66667" stroke-linecap="round" stroke-linejoin="round"/>
<path d="M19.3335 19.8327V21.4993H32.6668V19.8327C32.6668 19.3907 32.4912 18.9667 32.1787 18.6542C31.8661 18.3416 31.4422 18.166 31.0002 18.166H21.0002C20.5581 18.166 20.1342 18.3416 19.8217 18.6542C19.5091 18.9667 19.3335 19.3907 19.3335 19.8327Z" fill="#A7DC22"/>
<path d="M29.3335 18.1667H31.0002C31.4422 18.1667 31.8661 18.3423 32.1787 18.6548C32.4912 18.9674 32.6668 19.3913 32.6668 19.8333V21.5H19.3335V19.8333C19.3335 19.3913 19.5091 18.9674 19.8217 18.6548C20.1342 18.3423 20.5581 18.1667 21.0002 18.1667H22.6668M29.3335 18.1667V16.5M29.3335 18.1667H22.6668M22.6668 18.1667V16.5M19.3335 21.9167V29.8333C19.3335 30.2754 19.5091 30.6993 19.8217 31.0118C20.1342 31.3244 20.5581 31.5 21.0002 31.5H26.8335M32.6668 21.9167V24.2083" stroke="#A7DC22" stroke-width="1.66667" stroke-linecap="round" stroke-linejoin="round"/>
</g>
<path d="M45.328 29.5V18.3H47.248L53.2 26.396V18.3H55.056V29.5H53.2L47.184 21.308V29.5H45.328ZM62.2626 29.5L62.1826 27.996V25.388C62.1826 24.844 62.124 24.3907 62.0066 24.028C61.9 23.6547 61.7186 23.372 61.4626 23.18C61.2173 22.9773 60.8866 22.876 60.4706 22.876C60.0866 22.876 59.7506 22.956 59.4626 23.116C59.1746 23.276 58.9293 23.5267 58.7266 23.868L57.1586 23.292C57.3293 22.94 57.5533 22.6147 57.8306 22.316C58.1186 22.0067 58.476 21.7613 58.9026 21.58C59.34 21.3987 59.8626 21.308 60.4706 21.308C61.2493 21.308 61.9 21.4627 62.4226 21.772C62.9453 22.0707 63.3293 22.5027 63.5746 23.068C63.8306 23.6333 63.9586 24.316 63.9586 25.116L63.9106 29.5H62.2626ZM59.9586 29.692C58.9986 29.692 58.252 29.4787 57.7186 29.052C57.196 28.6253 56.9346 28.0227 56.9346 27.244C56.9346 26.412 57.212 25.7773 57.7666 25.34C58.332 24.9027 59.116 24.684 60.1186 24.684H62.2626V26.06H60.6946C59.98 26.06 59.4786 26.1613 59.1906 26.364C58.9026 26.556 58.7586 26.8333 58.7586 27.196C58.7586 27.5053 58.8813 27.7507 59.1266 27.932C59.3826 28.1027 59.7346 28.188 60.1826 28.188C60.588 28.188 60.94 28.0973 61.2386 27.916C61.5373 27.7347 61.7666 27.4947 61.9266 27.196C62.0973 26.8973 62.1826 26.5613 62.1826 26.188H62.7106C62.7106 27.276 62.492 28.1347 62.0546 28.764C61.6173 29.3827 60.9186 29.692 59.9586 29.692ZM65.8532 32.7V21.5H67.5332L67.6452 22.972V32.7H65.8532ZM70.1732 29.692C69.5012 29.692 68.9199 29.5213 68.4292 29.18C67.9492 28.828 67.5812 28.3373 67.3252 27.708C67.0692 27.0787 66.9412 26.3427 66.9412 25.5C66.9412 24.6467 67.0692 23.9107 67.3252 23.292C67.5812 22.6627 67.9492 22.1773 68.4292 21.836C68.9199 21.484 69.5012 21.308 70.1732 21.308C70.8986 21.308 71.5279 21.484 72.0612 21.836C72.6052 22.1773 73.0266 22.6627 73.3252 23.292C73.6346 23.9107 73.7892 24.6467 73.7892 25.5C73.7892 26.3427 73.6346 27.0787 73.3252 27.708C73.0266 28.3373 72.6052 28.828 72.0612 29.18C71.5279 29.5213 70.8986 29.692 70.1732 29.692ZM69.7252 28.06C70.1519 28.06 70.5306 27.9533 70.8612 27.74C71.1919 27.516 71.4532 27.212 71.6452 26.828C71.8479 26.444 71.9492 26.0013 71.9492 25.5C71.9492 24.9987 71.8532 24.556 71.6612 24.172C71.4799 23.788 71.2239 23.4893 70.8932 23.276C70.5626 23.0627 70.1786 22.956 69.7412 22.956C69.3359 22.956 68.9732 23.0627 68.6532 23.276C68.3332 23.4893 68.0826 23.788 67.9012 24.172C67.7306 24.556 67.6452 24.9987 67.6452 25.5C67.6452 26.0013 67.7306 26.444 67.9012 26.828C68.0826 27.212 68.3279 27.516 68.6372 27.74C68.9572 27.9533 69.3199 28.06 69.7252 28.06ZM78.5041 29.692C77.6615 29.692 77.0161 29.484 76.5681 29.068C76.1308 28.6413 75.9121 28.0333 75.9121 27.244V19.004H77.6881V26.908C77.6881 27.2813 77.7735 27.564 77.9441 27.756C78.1255 27.948 78.3868 28.044 78.7281 28.044C78.8348 28.044 78.9521 28.0227 79.0801 27.98C79.2081 27.9373 79.3521 27.8573 79.5121 27.74L80.1681 29.1C79.8908 29.292 79.6135 29.436 79.3361 29.532C79.0588 29.6387 78.7815 29.692 78.5041 29.692ZM74.5841 23.036V21.5H79.8481V23.036H74.5841ZM86.372 29.5L86.292 27.996V25.388C86.292 24.844 86.2333 24.3907 86.116 24.028C86.0093 23.6547 85.828 23.372 85.572 23.18C85.3267 22.9773 84.996 22.876 84.58 22.876C84.196 22.876 83.86 22.956 83.572 23.116C83.284 23.276 83.0387 23.5267 82.836 23.868L81.268 23.292C81.4387 22.94 81.6627 22.6147 81.94 22.316C82.228 22.0067 82.5853 21.7613 83.012 21.58C83.4493 21.3987 83.972 21.308 84.58 21.308C85.3587 21.308 86.0093 21.4627 86.532 21.772C87.0547 22.0707 87.4387 22.5027 87.684 23.068C87.94 23.6333 88.068 24.316 88.068 25.116L88.02 29.5H86.372ZM84.068 29.692C83.108 29.692 82.3613 29.4787 81.828 29.052C81.3053 28.6253 81.044 28.0227 81.044 27.244C81.044 26.412 81.3213 25.7773 81.876 25.34C82.4413 24.9027 83.2253 24.684 84.228 24.684H86.372V26.06H84.804C84.0893 26.06 83.588 26.1613 83.3 26.364C83.012 26.556 82.868 26.8333 82.868 27.196C82.868 27.5053 82.9907 27.7507 83.236 27.932C83.492 28.1027 83.844 28.188 84.292 28.188C84.6973 28.188 85.0493 28.0973 85.348 27.916C85.6467 27.7347 85.876 27.4947 86.036 27.196C86.2067 26.8973 86.292 26.5613 86.292 26.188H86.82C86.82 27.276 86.6013 28.1347 86.164 28.764C85.7267 29.3827 85.028 29.692 84.068 29.692ZM83.284 20.46L85.14 18.3H87.22L85.156 20.46H83.284ZM90.9885 25.244C90.9885 24.38 91.1538 23.6707 91.4845 23.116C91.8152 22.5613 92.2418 22.1507 92.7645 21.884C93.2978 21.6067 93.8525 21.468 94.4285 21.468V23.18C93.9378 23.18 93.4738 23.2493 93.0365 23.388C92.6098 23.516 92.2632 23.7293 91.9965 24.028C91.7298 24.3267 91.5965 24.7213 91.5965 25.212L90.9885 25.244ZM89.8045 29.5V21.5H91.5965V29.5H89.8045ZM102.388 29.692C101.855 29.692 101.364 29.612 100.916 29.452C100.468 29.292 100.084 29.068 99.7644 28.78C99.4444 28.4813 99.199 28.1347 99.0284 27.74L100.58 27.052C100.74 27.3507 100.975 27.6013 101.284 27.804C101.604 28.0067 101.956 28.108 102.34 28.108C102.756 28.108 103.087 28.0387 103.332 27.9C103.588 27.7507 103.716 27.548 103.716 27.292C103.716 27.0467 103.62 26.86 103.428 26.732C103.236 26.5933 102.964 26.4813 102.612 26.396L101.86 26.188C101.103 25.996 100.511 25.692 100.084 25.276C99.6577 24.8493 99.4444 24.364 99.4444 23.82C99.4444 23.02 99.7004 22.4013 100.212 21.964C100.735 21.5267 101.482 21.308 102.452 21.308C102.943 21.308 103.391 21.3827 103.796 21.532C104.212 21.6707 104.57 21.8733 104.868 22.14C105.167 22.396 105.375 22.7 105.492 23.052L104.004 23.724C103.898 23.4573 103.695 23.2547 103.396 23.116C103.098 22.9667 102.767 22.892 102.404 22.892C102.042 22.892 101.759 22.972 101.556 23.132C101.354 23.2813 101.252 23.4947 101.252 23.772C101.252 23.932 101.343 24.0813 101.524 24.22C101.706 24.348 101.967 24.4547 102.308 24.54L103.252 24.764C103.775 24.892 104.202 25.0947 104.532 25.372C104.863 25.6387 105.108 25.9427 105.268 26.284C105.428 26.6147 105.508 26.9507 105.508 27.292C105.508 27.772 105.37 28.1933 105.092 28.556C104.826 28.9187 104.458 29.2013 103.988 29.404C103.519 29.596 102.986 29.692 102.388 29.692ZM106.529 29.5V28.172L110.785 23.004H106.529V21.5H113.041V22.812L108.785 28.012H113.073V29.5H106.529ZM114.776 29.5V21.5H116.552V29.5H114.776ZM115.672 19.98C115.384 19.98 115.133 19.8787 114.92 19.676C114.717 19.4627 114.616 19.212 114.616 18.924C114.616 18.636 114.717 18.3907 114.92 18.188C115.133 17.9853 115.384 17.884 115.672 17.884C115.96 17.884 116.205 17.9853 116.408 18.188C116.621 18.3907 116.728 18.636 116.728 18.924C116.728 19.212 116.621 19.4627 116.408 19.676C116.205 19.8787 115.96 19.98 115.672 19.98ZM118.664 29.5V21.5H120.344L120.456 22.972V29.5H118.664ZM124.088 29.5V25.404H125.88V29.5H124.088ZM124.088 25.404C124.088 24.764 124.013 24.2733 123.864 23.932C123.725 23.58 123.523 23.3347 123.256 23.196C123 23.0573 122.696 22.988 122.344 22.988C121.747 22.9773 121.283 23.1747 120.952 23.58C120.621 23.9853 120.456 24.5667 120.456 25.324H119.784C119.784 24.4813 119.907 23.7613 120.152 23.164C120.397 22.556 120.749 22.0973 121.208 21.788C121.667 21.468 122.211 21.308 122.84 21.308C123.48 21.308 124.024 21.436 124.472 21.692C124.931 21.948 125.277 22.348 125.512 22.892C125.757 23.4253 125.88 24.124 125.88 24.988V25.404H124.088ZM129.407 27.26L128.319 26.028L132.479 21.5H134.639L129.407 27.26ZM127.695 29.5V18.3H129.487V29.5H127.695ZM132.783 29.5L129.967 25.356L131.135 24.108L134.911 29.5H132.783ZM137.145 25.244C137.145 24.38 137.31 23.6707 137.641 23.116C137.971 22.5613 138.398 22.1507 138.921 21.884C139.454 21.6067 140.009 21.468 140.585 21.468V23.18C140.094 23.18 139.63 23.2493 139.193 23.388C138.766 23.516 138.419 23.7293 138.153 24.028C137.886 24.3267 137.753 24.7213 137.753 25.212L137.145 25.244ZM135.961 29.5V21.5H137.753V29.5H135.961ZM145.453 29.692C144.653 29.692 143.939 29.516 143.309 29.164C142.691 28.8013 142.205 28.3053 141.853 27.676C141.501 27.0467 141.325 26.3213 141.325 25.5C141.325 24.6787 141.496 23.9533 141.837 23.324C142.189 22.6947 142.675 22.204 143.293 21.852C143.912 21.4893 144.621 21.308 145.421 21.308C146.221 21.308 146.931 21.4893 147.549 21.852C148.168 22.204 148.648 22.6947 148.989 23.324C149.341 23.9533 149.517 24.6787 149.517 25.5C149.517 26.3213 149.347 27.0467 149.005 27.676C148.664 28.3053 148.184 28.8013 147.565 29.164C146.947 29.516 146.243 29.692 145.453 29.692ZM145.453 28.044C145.891 28.044 146.28 27.9373 146.621 27.724C146.963 27.5 147.229 27.2013 147.421 26.828C147.613 26.444 147.709 26.0013 147.709 25.5C147.709 24.9987 147.608 24.5613 147.405 24.188C147.213 23.804 146.947 23.5053 146.605 23.292C146.264 23.068 145.869 22.956 145.421 22.956C144.973 22.956 144.579 23.0627 144.237 23.276C143.896 23.4893 143.629 23.788 143.437 24.172C143.245 24.556 143.149 24.9987 143.149 25.5C143.149 26.0013 143.245 26.444 143.437 26.828C143.64 27.2013 143.912 27.5 144.253 27.724C144.605 27.9373 145.005 28.044 145.453 28.044ZM151.07 29.5V21.5H152.75L152.862 22.972V29.5H151.07ZM156.494 29.5V25.404H158.286V29.5H156.494ZM156.494 25.404C156.494 24.764 156.419 24.2733 156.27 23.932C156.131 23.58 155.929 23.3347 155.662 23.196C155.406 23.0573 155.102 22.988 154.75 22.988C154.153 22.9773 153.689 23.1747 153.358 23.58C153.027 23.9853 152.862 24.5667 152.862 25.324H152.19C152.19 24.4813 152.313 23.7613 152.558 23.164C152.803 22.556 153.155 22.0973 153.614 21.788C154.073 21.468 154.617 21.308 155.246 21.308C155.886 21.308 156.43 21.436 156.878 21.692C157.337 21.948 157.683 22.348 157.918 22.892C158.163 23.4253 158.286 24.124 158.286 24.988V25.404H156.494ZM160.213 29.5V21.5H161.989V29.5H160.213ZM161.109 19.98C160.821 19.98 160.571 19.8787 160.357 19.676C160.155 19.4627 160.053 19.212 160.053 18.924C160.053 18.636 160.155 18.3907 160.357 18.188C160.571 17.9853 160.821 17.884 161.109 17.884C161.397 17.884 161.643 17.9853 161.845 18.188C162.059 18.3907 162.165 18.636 162.165 18.924C162.165 19.212 162.059 19.4627 161.845 19.676C161.643 19.8787 161.397 19.98 161.109 19.98ZM163.701 29.5V28.172L167.957 23.004H163.701V21.5H170.213V22.812L165.957 28.012H170.245V29.5H163.701ZM176.716 29.5L176.636 27.996V25.388C176.636 24.844 176.577 24.3907 176.46 24.028C176.353 23.6547 176.172 23.372 175.916 23.18C175.67 22.9773 175.34 22.876 174.924 22.876C174.54 22.876 174.204 22.956 173.916 23.116C173.628 23.276 173.382 23.5267 173.18 23.868L171.612 23.292C171.782 22.94 172.006 22.6147 172.284 22.316C172.572 22.0067 172.929 21.7613 173.356 21.58C173.793 21.3987 174.316 21.308 174.924 21.308C175.702 21.308 176.353 21.4627 176.876 21.772C177.398 22.0707 177.782 22.5027 178.028 23.068C178.284 23.6333 178.412 24.316 178.412 25.116L178.364 29.5H176.716ZM174.412 29.692C173.452 29.692 172.705 29.4787 172.172 29.052C171.649 28.6253 171.388 28.0227 171.388 27.244C171.388 26.412 171.665 25.7773 172.22 25.34C172.785 24.9027 173.569 24.684 174.572 24.684H176.716V26.06H175.148C174.433 26.06 173.932 26.1613 173.644 26.364C173.356 26.556 173.212 26.8333 173.212 27.196C173.212 27.5053 173.334 27.7507 173.58 27.932C173.836 28.1027 174.188 28.188 174.636 28.188C175.041 28.188 175.393 28.0973 175.692 27.916C175.99 27.7347 176.22 27.4947 176.38 27.196C176.55 26.8973 176.636 26.5613 176.636 26.188H177.164C177.164 27.276 176.945 28.1347 176.508 28.764C176.07 29.3827 175.372 29.692 174.412 29.692ZM173.628 20.46L175.484 18.3H177.564L175.5 20.46H173.628ZM180.148 29.5V18.3H181.94V29.5H180.148ZM188.809 29.5L188.729 27.996V25.388C188.729 24.844 188.671 24.3907 188.553 24.028C188.447 23.6547 188.265 23.372 188.009 23.18C187.764 22.9773 187.433 22.876 187.017 22.876C186.633 22.876 186.297 22.956 186.009 23.116C185.721 23.276 185.476 23.5267 185.273 23.868L183.705 23.292C183.876 22.94 184.1 22.6147 184.377 22.316C184.665 22.0067 185.023 21.7613 185.449 21.58C185.887 21.3987 186.409 21.308 187.017 21.308C187.796 21.308 188.447 21.4627 188.969 21.772C189.492 22.0707 189.876 22.5027 190.121 23.068C190.377 23.6333 190.505 24.316 190.505 25.116L190.457 29.5H188.809ZM186.505 29.692C185.545 29.692 184.799 29.4787 184.265 29.052C183.743 28.6253 183.481 28.0227 183.481 27.244C183.481 26.412 183.759 25.7773 184.313 25.34C184.879 24.9027 185.663 24.684 186.665 24.684H188.809V26.06H187.241C186.527 26.06 186.025 26.1613 185.737 26.364C185.449 26.556 185.305 26.8333 185.305 27.196C185.305 27.5053 185.428 27.7507 185.673 27.932C185.929 28.1027 186.281 28.188 186.729 28.188C187.135 28.188 187.487 28.0973 187.785 27.916C188.084 27.7347 188.313 27.4947 188.473 27.196C188.644 26.8973 188.729 26.5613 188.729 26.188H189.257C189.257 27.276 189.039 28.1347 188.601 28.764C188.164 29.3827 187.465 29.692 186.505 29.692ZM185.721 20.46L187.577 18.3H189.657L187.593 20.46H185.721ZM195.154 29.692C194.621 29.692 194.13 29.612 193.682 29.452C193.234 29.292 192.85 29.068 192.53 28.78C192.21 28.4813 191.965 28.1347 191.794 27.74L193.346 27.052C193.506 27.3507 193.741 27.6013 194.05 27.804C194.37 28.0067 194.722 28.108 195.106 28.108C195.522 28.108 195.853 28.0387 196.098 27.9C196.354 27.7507 196.482 27.548 196.482 27.292C196.482 27.0467 196.386 26.86 196.194 26.732C196.002 26.5933 195.73 26.4813 195.378 26.396L194.626 26.188C193.869 25.996 193.277 25.692 192.85 25.276C192.423 24.8493 192.21 24.364 192.21 23.82C192.21 23.02 192.466 22.4013 192.978 21.964C193.501 21.5267 194.247 21.308 195.218 21.308C195.709 21.308 196.157 21.3827 196.562 21.532C196.978 21.6707 197.335 21.8733 197.634 22.14C197.933 22.396 198.141 22.7 198.258 23.052L196.77 23.724C196.663 23.4573 196.461 23.2547 196.162 23.116C195.863 22.9667 195.533 22.892 195.17 22.892C194.807 22.892 194.525 22.972 194.322 23.132C194.119 23.2813 194.018 23.4947 194.018 23.772C194.018 23.932 194.109 24.0813 194.29 24.22C194.471 24.348 194.733 24.4547 195.074 24.54L196.018 24.764C196.541 24.892 196.967 25.0947 197.298 25.372C197.629 25.6387 197.874 25.9427 198.034 26.284C198.194 26.6147 198.274 26.9507 198.274 27.292C198.274 27.772 198.135 28.1933 197.858 28.556C197.591 28.9187 197.223 29.2013 196.754 29.404C196.285 29.596 195.751 29.692 195.154 29.692Z" fill="#394C0A"/>
<defs>
<clipPath id="clip0_6819_4935">
<rect width="20" height="20" fill="white" transform="translate(16 14)"/>
</clipPath>
</defs>
</svg>
