<svg width="270" height="48" viewBox="0 0 270 48" fill="none" xmlns="http://www.w3.org/2000/svg">
<rect width="270" height="48" rx="12" fill="#F3FBDE"/>
<path fill-rule="evenodd" clip-rule="evenodd" d="M28.9883 16.4997C29.3009 16.1872 29.7247 16.0117 30.1667 16.0117C30.6086 16.0117 31.0325 16.1872 31.345 16.4997L33.5 18.6547C33.8125 18.9672 33.988 19.3911 33.988 19.833C33.988 20.275 33.8125 20.6988 33.5 21.0114L32.1783 22.333L27.6667 17.8214L28.9883 16.4997ZM26.4883 18.9997L18.9883 26.4997C18.6758 26.8122 18.5001 27.236 18.5 27.678V29.833C18.5 30.2751 18.6756 30.699 18.9882 31.0115C19.3007 31.3241 19.7246 31.4997 20.1667 31.4997H22.3217C22.7637 31.4996 23.1875 31.3239 23.5 31.0114L31 23.5114L26.4883 18.9997Z" fill="#A7DC22"/>
<path d="M47.648 29.5V19.996H44.208V18.3H52.944V19.996H49.504V29.5H47.648ZM58.0126 29.5L57.9326 27.996V25.388C57.9326 24.844 57.874 24.3907 57.7566 24.028C57.65 23.6547 57.4686 23.372 57.2126 23.18C56.9673 22.9773 56.6366 22.876 56.2206 22.876C55.8366 22.876 55.5006 22.956 55.2126 23.116C54.9246 23.276 54.6793 23.5267 54.4766 23.868L52.9086 23.292C53.0793 22.94 53.3033 22.6147 53.5806 22.316C53.8686 22.0067 54.226 21.7613 54.6526 21.58C55.09 21.3987 55.6126 21.308 56.2206 21.308C56.9993 21.308 57.65 21.4627 58.1726 21.772C58.6953 22.0707 59.0793 22.5027 59.3246 23.068C59.5806 23.6333 59.7086 24.316 59.7086 25.116L59.6606 29.5H58.0126ZM55.7086 29.692C54.7486 29.692 54.002 29.4787 53.4686 29.052C52.946 28.6253 52.6846 28.0227 52.6846 27.244C52.6846 26.412 52.962 25.7773 53.5166 25.34C54.082 24.9027 54.866 24.684 55.8686 24.684H58.0126V26.06H56.4446C55.73 26.06 55.2286 26.1613 54.9406 26.364C54.6526 26.556 54.5086 26.8333 54.5086 27.196C54.5086 27.5053 54.6313 27.7507 54.8766 27.932C55.1326 28.1027 55.4846 28.188 55.9326 28.188C56.338 28.188 56.69 28.0973 56.9886 27.916C57.2873 27.7347 57.5166 27.4947 57.6766 27.196C57.8473 26.8973 57.9326 26.5613 57.9326 26.188H58.4606C58.4606 27.276 58.242 28.1347 57.8046 28.764C57.3673 29.3827 56.6686 29.692 55.7086 29.692ZM61.5233 29.5V21.5H63.2033L63.3153 22.972V29.5H61.5233ZM66.9473 29.5V25.404H68.7393V29.5H66.9473ZM66.9473 25.404C66.9473 24.764 66.8726 24.2733 66.7233 23.932C66.5846 23.58 66.3819 23.3347 66.1153 23.196C65.8593 23.0573 65.5553 22.988 65.2033 22.988C64.6059 22.9773 64.1419 23.1747 63.8113 23.58C63.4806 23.9853 63.3153 24.5667 63.3153 25.324H62.6432C62.6432 24.4813 62.7659 23.7613 63.0113 23.164C63.2566 22.556 63.6086 22.0973 64.0673 21.788C64.5259 21.468 65.0699 21.308 65.6993 21.308C66.3393 21.308 66.8833 21.436 67.3313 21.692C67.7899 21.948 68.1366 22.348 68.3713 22.892C68.6166 23.4253 68.7393 24.124 68.7393 24.988V25.404H66.9473ZM75.4345 29.5L75.3545 27.996V25.388C75.3545 24.844 75.2958 24.3907 75.1785 24.028C75.0718 23.6547 74.8905 23.372 74.6345 23.18C74.3892 22.9773 74.0585 22.876 73.6425 22.876C73.2585 22.876 72.9225 22.956 72.6345 23.116C72.3465 23.276 72.1012 23.5267 71.8985 23.868L70.3305 23.292C70.5012 22.94 70.7252 22.6147 71.0025 22.316C71.2905 22.0067 71.6478 21.7613 72.0745 21.58C72.5118 21.3987 73.0345 21.308 73.6425 21.308C74.4212 21.308 75.0718 21.4627 75.5945 21.772C76.1172 22.0707 76.5012 22.5027 76.7465 23.068C77.0025 23.6333 77.1305 24.316 77.1305 25.116L77.0825 29.5H75.4345ZM73.1305 29.692C72.1705 29.692 71.4238 29.4787 70.8905 29.052C70.3678 28.6253 70.1065 28.0227 70.1065 27.244C70.1065 26.412 70.3838 25.7773 70.9385 25.34C71.5038 24.9027 72.2878 24.684 73.2905 24.684H75.4345V26.06H73.8665C73.1518 26.06 72.6505 26.1613 72.3625 26.364C72.0745 26.556 71.9305 26.8333 71.9305 27.196C71.9305 27.5053 72.0532 27.7507 72.2985 27.932C72.5545 28.1027 72.9065 28.188 73.3545 28.188C73.7598 28.188 74.1118 28.0973 74.4105 27.916C74.7092 27.7347 74.9385 27.4947 75.0985 27.196C75.2692 26.8973 75.3545 26.5613 75.3545 26.188H75.8825C75.8825 27.276 75.6638 28.1347 75.2265 28.764C74.7892 29.3827 74.0905 29.692 73.1305 29.692ZM72.3465 20.46L74.2025 18.3H76.2825L74.2185 20.46H72.3465ZM80.051 25.244C80.051 24.38 80.2163 23.6707 80.547 23.116C80.8777 22.5613 81.3043 22.1507 81.827 21.884C82.3603 21.6067 82.915 21.468 83.491 21.468V23.18C83.0003 23.18 82.5363 23.2493 82.099 23.388C81.6723 23.516 81.3257 23.7293 81.059 24.028C80.7923 24.3267 80.659 24.7213 80.659 25.212L80.051 25.244ZM78.867 29.5V21.5H80.659V29.5H78.867ZM84.5835 25.516V23.964H89.3835V25.516H84.5835ZM98.685 29.692C97.9063 29.692 97.213 29.516 96.605 29.164C96.0077 28.8013 95.533 28.3053 95.181 27.676C94.8397 27.0467 94.669 26.3213 94.669 25.5C94.669 24.6787 94.845 23.9533 95.197 23.324C95.549 22.6947 96.029 22.204 96.637 21.852C97.2557 21.4893 97.9597 21.308 98.749 21.308C99.4637 21.308 100.109 21.4947 100.685 21.868C101.261 22.2307 101.714 22.7587 102.045 23.452C102.386 24.1453 102.557 24.972 102.557 25.932H96.269L96.509 25.708C96.509 26.1987 96.6157 26.6253 96.829 26.988C97.0423 27.34 97.325 27.612 97.677 27.804C98.029 27.996 98.4183 28.092 98.845 28.092C99.3357 28.092 99.741 27.9853 100.061 27.772C100.381 27.548 100.632 27.26 100.813 26.908L102.397 27.58C102.173 28.0067 101.885 28.38 101.533 28.7C101.192 29.02 100.781 29.2653 100.301 29.436C99.8317 29.6067 99.293 29.692 98.685 29.692ZM96.621 24.78L96.365 24.556H100.877L100.637 24.78C100.637 24.3427 100.541 23.9853 100.349 23.708C100.157 23.42 99.9117 23.2067 99.613 23.068C99.325 22.9187 99.021 22.844 98.701 22.844C98.381 22.844 98.061 22.9187 97.741 23.068C97.421 23.2067 97.1543 23.42 96.941 23.708C96.7277 23.9853 96.621 24.3427 96.621 24.78ZM97.517 20.46L99.373 18.3H101.453L99.389 20.46H97.517ZM106.873 29.692C106.339 29.692 105.849 29.612 105.401 29.452C104.953 29.292 104.569 29.068 104.249 28.78C103.929 28.4813 103.683 28.1347 103.513 27.74L105.065 27.052C105.225 27.3507 105.459 27.6013 105.769 27.804C106.089 28.0067 106.441 28.108 106.825 28.108C107.241 28.108 107.571 28.0387 107.817 27.9C108.073 27.7507 108.201 27.548 108.201 27.292C108.201 27.0467 108.105 26.86 107.913 26.732C107.721 26.5933 107.449 26.4813 107.097 26.396L106.345 26.188C105.587 25.996 104.995 25.692 104.569 25.276C104.142 24.8493 103.929 24.364 103.929 23.82C103.929 23.02 104.185 22.4013 104.697 21.964C105.219 21.5267 105.966 21.308 106.937 21.308C107.427 21.308 107.875 21.3827 108.281 21.532C108.697 21.6707 109.054 21.8733 109.353 22.14C109.651 22.396 109.859 22.7 109.977 23.052L108.489 23.724C108.382 23.4573 108.179 23.2547 107.881 23.116C107.582 22.9667 107.251 22.892 106.889 22.892C106.526 22.892 106.243 22.972 106.041 23.132C105.838 23.2813 105.737 23.4947 105.737 23.772C105.737 23.932 105.827 24.0813 106.009 24.22C106.19 24.348 106.451 24.4547 106.793 24.54L107.737 24.764C108.259 24.892 108.686 25.0947 109.017 25.372C109.347 25.6387 109.593 25.9427 109.753 26.284C109.913 26.6147 109.993 26.9507 109.993 27.292C109.993 27.772 109.854 28.1933 109.577 28.556C109.31 28.9187 108.942 29.2013 108.473 29.404C108.003 29.596 107.47 29.692 106.873 29.692ZM118.457 29.692C117.615 29.692 116.969 29.484 116.521 29.068C116.084 28.6413 115.865 28.0333 115.865 27.244V19.004H117.641V26.908C117.641 27.2813 117.727 27.564 117.897 27.756C118.079 27.948 118.34 28.044 118.681 28.044C118.788 28.044 118.905 28.0227 119.033 27.98C119.161 27.9373 119.305 27.8573 119.465 27.74L120.121 29.1C119.844 29.292 119.567 29.436 119.289 29.532C119.012 29.6387 118.735 29.692 118.457 29.692ZM114.537 23.036V21.5H119.801V23.036H114.537ZM126.325 29.5L126.245 27.996V25.388C126.245 24.844 126.186 24.3907 126.069 24.028C125.962 23.6547 125.781 23.372 125.525 23.18C125.28 22.9773 124.949 22.876 124.533 22.876C124.149 22.876 123.813 22.956 123.525 23.116C123.237 23.276 122.992 23.5267 122.789 23.868L121.221 23.292C121.392 22.94 121.616 22.6147 121.893 22.316C122.181 22.0067 122.538 21.7613 122.965 21.58C123.402 21.3987 123.925 21.308 124.533 21.308C125.312 21.308 125.962 21.4627 126.485 21.772C127.008 22.0707 127.392 22.5027 127.637 23.068C127.893 23.6333 128.021 24.316 128.021 25.116L127.973 29.5H126.325ZM124.021 29.692C123.061 29.692 122.314 29.4787 121.781 29.052C121.258 28.6253 120.997 28.0227 120.997 27.244C120.997 26.412 121.274 25.7773 121.829 25.34C122.394 24.9027 123.178 24.684 124.181 24.684H126.325V26.06H124.757C124.042 26.06 123.541 26.1613 123.253 26.364C122.965 26.556 122.821 26.8333 122.821 27.196C122.821 27.5053 122.944 27.7507 123.189 27.932C123.445 28.1027 123.797 28.188 124.245 28.188C124.65 28.188 125.002 28.0973 125.301 27.916C125.6 27.7347 125.829 27.4947 125.989 27.196C126.16 26.8973 126.245 26.5613 126.245 26.188H126.773C126.773 27.276 126.554 28.1347 126.117 28.764C125.68 29.3827 124.981 29.692 124.021 29.692ZM129.836 29.5V21.5H131.516L131.628 22.972V29.5H129.836ZM135.26 29.5V25.404H137.052V29.5H135.26ZM135.26 25.404C135.26 24.764 135.185 24.2733 135.036 23.932C134.897 23.58 134.694 23.3347 134.428 23.196C134.172 23.0573 133.868 22.988 133.516 22.988C132.918 22.9773 132.454 23.1747 132.124 23.58C131.793 23.9853 131.628 24.5667 131.628 25.324H130.956C130.956 24.4813 131.078 23.7613 131.324 23.164C131.569 22.556 131.921 22.0973 132.38 21.788C132.838 21.468 133.382 21.308 134.012 21.308C134.652 21.308 135.196 21.436 135.644 21.692C136.102 21.948 136.449 22.348 136.684 22.892C136.929 23.4253 137.052 24.124 137.052 24.988V25.404H135.26ZM142.051 29.692C141.208 29.692 140.563 29.484 140.115 29.068C139.678 28.6413 139.459 28.0333 139.459 27.244V19.004H141.235V26.908C141.235 27.2813 141.32 27.564 141.491 27.756C141.672 27.948 141.934 28.044 142.275 28.044C142.382 28.044 142.499 28.0227 142.627 27.98C142.755 27.9373 142.899 27.8573 143.059 27.74L143.715 29.1C143.438 29.292 143.16 29.436 142.883 29.532C142.606 29.6387 142.328 29.692 142.051 29.692ZM138.131 23.036V21.5H143.395V23.036H138.131ZM149.919 29.5L149.839 27.996V25.388C149.839 24.844 149.78 24.3907 149.663 24.028C149.556 23.6547 149.375 23.372 149.119 23.18C148.874 22.9773 148.543 22.876 148.127 22.876C147.743 22.876 147.407 22.956 147.119 23.116C146.831 23.276 146.586 23.5267 146.383 23.868L144.815 23.292C144.986 22.94 145.21 22.6147 145.487 22.316C145.775 22.0067 146.132 21.7613 146.559 21.58C146.996 21.3987 147.519 21.308 148.127 21.308C148.906 21.308 149.556 21.4627 150.079 21.772C150.602 22.0707 150.986 22.5027 151.231 23.068C151.487 23.6333 151.615 24.316 151.615 25.116L151.567 29.5H149.919ZM147.615 29.692C146.655 29.692 145.908 29.4787 145.375 29.052C144.852 28.6253 144.591 28.0227 144.591 27.244C144.591 26.412 144.868 25.7773 145.423 25.34C145.988 24.9027 146.772 24.684 147.775 24.684H149.919V26.06H148.351C147.636 26.06 147.135 26.1613 146.847 26.364C146.559 26.556 146.415 26.8333 146.415 27.196C146.415 27.5053 146.538 27.7507 146.783 27.932C147.039 28.1027 147.391 28.188 147.839 28.188C148.244 28.188 148.596 28.0973 148.895 27.916C149.194 27.7347 149.423 27.4947 149.583 27.196C149.754 26.8973 149.839 26.5613 149.839 26.188H150.367C150.367 27.276 150.148 28.1347 149.711 28.764C149.274 29.3827 148.575 29.692 147.615 29.692ZM146.831 20.46L148.687 18.3H150.767L148.703 20.46H146.831ZM154.535 25.244C154.535 24.38 154.701 23.6707 155.031 23.116C155.362 22.5613 155.789 22.1507 156.311 21.884C156.845 21.6067 157.399 21.468 157.975 21.468V23.18C157.485 23.18 157.021 23.2493 156.583 23.388C156.157 23.516 155.81 23.7293 155.543 24.028C155.277 24.3267 155.143 24.7213 155.143 25.212L154.535 25.244ZM153.351 29.5V21.5H155.143V29.5H153.351ZM162.604 32.908C162.039 32.908 161.527 32.86 161.068 32.764C160.62 32.668 160.241 32.556 159.932 32.428C159.623 32.3 159.383 32.1773 159.212 32.06L159.9 30.62C160.049 30.6947 160.247 30.7853 160.492 30.892C160.748 31.0093 161.047 31.1107 161.388 31.196C161.729 31.2813 162.113 31.324 162.54 31.324C162.999 31.324 163.409 31.228 163.772 31.036C164.135 30.8547 164.417 30.572 164.62 30.188C164.823 29.804 164.924 29.3133 164.924 28.716V21.5H166.716V28.668C166.716 29.5747 166.545 30.3427 166.204 30.972C165.863 31.612 165.383 32.092 164.764 32.412C164.145 32.7427 163.425 32.908 162.604 32.908ZM162.332 29.34C161.607 29.34 160.972 29.1747 160.428 28.844C159.895 28.5133 159.473 28.0547 159.164 27.468C158.865 26.8707 158.716 26.1827 158.716 25.404C158.716 24.572 158.865 23.852 159.164 23.244C159.473 22.636 159.895 22.1613 160.428 21.82C160.972 21.4787 161.607 21.308 162.332 21.308C162.983 21.308 163.548 21.4787 164.028 21.82C164.519 22.1613 164.897 22.6413 165.164 23.26C165.431 23.868 165.564 24.588 165.564 25.42C165.564 26.2093 165.431 26.8973 165.164 27.484C164.897 28.0707 164.519 28.5293 164.028 28.86C163.548 29.18 162.983 29.34 162.332 29.34ZM162.828 27.82C163.233 27.82 163.585 27.7133 163.884 27.5C164.193 27.2867 164.433 26.9987 164.604 26.636C164.775 26.2627 164.86 25.836 164.86 25.356C164.86 24.8653 164.775 24.4387 164.604 24.076C164.433 23.7027 164.193 23.4147 163.884 23.212C163.575 22.9987 163.217 22.892 162.812 22.892C162.385 22.892 162.007 22.9987 161.676 23.212C161.356 23.4147 161.1 23.7027 160.908 24.076C160.727 24.4387 160.636 24.8653 160.636 25.356C160.636 25.836 160.727 26.2627 160.908 26.636C161.1 26.9987 161.361 27.2867 161.692 27.5C162.023 27.7133 162.401 27.82 162.828 27.82ZM169.959 32.892C169.703 32.892 169.415 32.844 169.095 32.748C168.786 32.652 168.487 32.5293 168.199 32.38L168.871 30.924C169.074 31.02 169.26 31.0947 169.431 31.148C169.602 31.212 169.74 31.244 169.847 31.244C170.103 31.244 170.316 31.1747 170.487 31.036C170.668 30.908 170.812 30.716 170.919 30.46L171.863 28.252L174.567 21.5H176.519L172.807 30.348C172.583 30.86 172.354 31.308 172.119 31.692C171.895 32.076 171.612 32.3693 171.271 32.572C170.93 32.7853 170.492 32.892 169.959 32.892ZM171.383 29.5L167.799 21.5H169.751L172.535 28.236L173.111 29.5H171.383ZM186.325 29.5L186.245 27.996V25.388C186.245 24.844 186.186 24.3907 186.069 24.028C185.962 23.6547 185.781 23.372 185.525 23.18C185.28 22.9773 184.949 22.876 184.533 22.876C184.149 22.876 183.813 22.956 183.525 23.116C183.237 23.276 182.992 23.5267 182.789 23.868L181.221 23.292C181.392 22.94 181.616 22.6147 181.893 22.316C182.181 22.0067 182.538 21.7613 182.965 21.58C183.402 21.3987 183.925 21.308 184.533 21.308C185.312 21.308 185.962 21.4627 186.485 21.772C187.008 22.0707 187.392 22.5027 187.637 23.068C187.893 23.6333 188.021 24.316 188.021 25.116L187.973 29.5H186.325ZM184.021 29.692C183.061 29.692 182.314 29.4787 181.781 29.052C181.258 28.6253 180.997 28.0227 180.997 27.244C180.997 26.412 181.274 25.7773 181.829 25.34C182.394 24.9027 183.178 24.684 184.181 24.684H186.325V26.06H184.757C184.042 26.06 183.541 26.1613 183.253 26.364C182.965 26.556 182.821 26.8333 182.821 27.196C182.821 27.5053 182.944 27.7507 183.189 27.932C183.445 28.1027 183.797 28.188 184.245 28.188C184.65 28.188 185.002 28.0973 185.301 27.916C185.6 27.7347 185.829 27.4947 185.989 27.196C186.16 26.8973 186.245 26.5613 186.245 26.188H186.773C186.773 27.276 186.554 28.1347 186.117 28.764C185.68 29.3827 184.981 29.692 184.021 29.692ZM183.237 20.46L185.093 18.3H187.173L185.109 20.46H183.237ZM192.942 29.692C192.099 29.692 191.454 29.484 191.006 29.068C190.568 28.6413 190.35 28.0333 190.35 27.244V19.004H192.126V26.908C192.126 27.2813 192.211 27.564 192.382 27.756C192.563 27.948 192.824 28.044 193.166 28.044C193.272 28.044 193.39 28.0227 193.518 27.98C193.646 27.9373 193.79 27.8573 193.95 27.74L194.606 29.1C194.328 29.292 194.051 29.436 193.774 29.532C193.496 29.6387 193.219 29.692 192.942 29.692ZM189.022 23.036V21.5H194.286V23.036H189.022ZM196.039 29.5V21.5H197.719L197.831 22.972V29.5H196.039ZM201.463 29.5V25.404H203.255V29.5H201.463ZM201.463 25.404C201.463 24.764 201.388 24.2733 201.239 23.932C201.1 23.58 200.898 23.3347 200.631 23.196C200.375 23.0573 200.071 22.988 199.719 22.988C199.122 22.9773 198.658 23.1747 198.327 23.58C197.996 23.9853 197.831 24.5667 197.831 25.324H197.159C197.159 24.4813 197.282 23.7613 197.527 23.164C197.772 22.556 198.124 22.0973 198.583 21.788C199.042 21.468 199.586 21.308 200.215 21.308C200.855 21.308 201.399 21.436 201.847 21.692C202.306 21.948 202.652 22.348 202.887 22.892C203.132 23.4253 203.255 24.124 203.255 24.988V25.404H201.463ZM208.638 29.692C207.859 29.692 207.166 29.516 206.558 29.164C205.961 28.8013 205.486 28.3053 205.134 27.676C204.793 27.0467 204.622 26.3213 204.622 25.5C204.622 24.6787 204.798 23.9533 205.15 23.324C205.502 22.6947 205.982 22.204 206.59 21.852C207.209 21.4893 207.913 21.308 208.702 21.308C209.417 21.308 210.062 21.4947 210.638 21.868C211.214 22.2307 211.667 22.7587 211.998 23.452C212.339 24.1453 212.51 24.972 212.51 25.932H206.222L206.462 25.708C206.462 26.1987 206.569 26.6253 206.782 26.988C206.995 27.34 207.278 27.612 207.63 27.804C207.982 27.996 208.371 28.092 208.798 28.092C209.289 28.092 209.694 27.9853 210.014 27.772C210.334 27.548 210.585 27.26 210.766 26.908L212.35 27.58C212.126 28.0067 211.838 28.38 211.486 28.7C211.145 29.02 210.734 29.2653 210.254 29.436C209.785 29.6067 209.246 29.692 208.638 29.692ZM206.574 24.78L206.318 24.556H210.83L210.59 24.78C210.59 24.3427 210.494 23.9853 210.302 23.708C210.11 23.42 209.865 23.2067 209.566 23.068C209.278 22.9187 208.974 22.844 208.654 22.844C208.334 22.844 208.014 22.9187 207.694 23.068C207.374 23.2067 207.107 23.42 206.894 23.708C206.681 23.9853 206.574 24.3427 206.574 24.78ZM216.162 29.5L219.282 21.5H221.138L217.842 29.5H216.162ZM216.034 29.5L212.722 21.5H214.562L217.698 29.5H216.034ZM225.607 29.692C224.828 29.692 224.135 29.516 223.527 29.164C222.93 28.8013 222.455 28.3053 222.103 27.676C221.762 27.0467 221.591 26.3213 221.591 25.5C221.591 24.6787 221.767 23.9533 222.119 23.324C222.471 22.6947 222.951 22.204 223.559 21.852C224.178 21.4893 224.882 21.308 225.671 21.308C226.386 21.308 227.031 21.4947 227.607 21.868C228.183 22.2307 228.636 22.7587 228.967 23.452C229.308 24.1453 229.479 24.972 229.479 25.932H223.191L223.431 25.708C223.431 26.1987 223.538 26.6253 223.751 26.988C223.964 27.34 224.247 27.612 224.599 27.804C224.951 27.996 225.34 28.092 225.767 28.092C226.258 28.092 226.663 27.9853 226.983 27.772C227.303 27.548 227.554 27.26 227.735 26.908L229.319 27.58C229.095 28.0067 228.807 28.38 228.455 28.7C228.114 29.02 227.703 29.2653 227.223 29.436C226.754 29.6067 226.215 29.692 225.607 29.692ZM223.543 24.78L223.287 24.556H227.799L227.559 24.78C227.559 24.3427 227.463 23.9853 227.271 23.708C227.079 23.42 226.834 23.2067 226.535 23.068C226.247 22.9187 225.943 22.844 225.623 22.844C225.303 22.844 224.983 22.9187 224.663 23.068C224.343 23.2067 224.076 23.42 223.863 23.708C223.65 23.9853 223.543 24.3427 223.543 24.78ZM230.451 29.5V28.172L234.707 23.004H230.451V21.5H236.963V22.812L232.707 28.012H236.995V29.5H230.451ZM242.154 29.692C241.375 29.692 240.682 29.516 240.074 29.164C239.476 28.8013 239.002 28.3053 238.65 27.676C238.308 27.0467 238.138 26.3213 238.138 25.5C238.138 24.6787 238.314 23.9533 238.666 23.324C239.018 22.6947 239.498 22.204 240.106 21.852C240.724 21.4893 241.428 21.308 242.218 21.308C242.932 21.308 243.578 21.4947 244.154 21.868C244.73 22.2307 245.183 22.7587 245.514 23.452C245.855 24.1453 246.026 24.972 246.026 25.932H239.738L239.978 25.708C239.978 26.1987 240.084 26.6253 240.298 26.988C240.511 27.34 240.794 27.612 241.146 27.804C241.498 27.996 241.887 28.092 242.314 28.092C242.804 28.092 243.21 27.9853 243.53 27.772C243.85 27.548 244.1 27.26 244.282 26.908L245.866 27.58C245.642 28.0067 245.354 28.38 245.002 28.7C244.66 29.02 244.25 29.2653 243.77 29.436C243.3 29.6067 242.762 29.692 242.154 29.692ZM240.09 24.78L239.834 24.556H244.346L244.106 24.78C244.106 24.3427 244.01 23.9853 243.818 23.708C243.626 23.42 243.38 23.2067 243.082 23.068C242.794 22.9187 242.49 22.844 242.17 22.844C241.85 22.844 241.53 22.9187 241.21 23.068C240.89 23.2067 240.623 23.42 240.41 23.708C240.196 23.9853 240.09 24.3427 240.09 24.78ZM240.986 20.46L242.842 18.3H244.922L242.858 20.46H240.986ZM250.342 29.692C249.808 29.692 249.318 29.612 248.87 29.452C248.422 29.292 248.038 29.068 247.718 28.78C247.398 28.4813 247.152 28.1347 246.982 27.74L248.534 27.052C248.694 27.3507 248.928 27.6013 249.238 27.804C249.558 28.0067 249.91 28.108 250.294 28.108C250.71 28.108 251.04 28.0387 251.286 27.9C251.542 27.7507 251.67 27.548 251.67 27.292C251.67 27.0467 251.574 26.86 251.382 26.732C251.19 26.5933 250.918 26.4813 250.566 26.396L249.814 26.188C249.056 25.996 248.464 25.692 248.038 25.276C247.611 24.8493 247.398 24.364 247.398 23.82C247.398 23.02 247.654 22.4013 248.166 21.964C248.688 21.5267 249.435 21.308 250.406 21.308C250.896 21.308 251.344 21.3827 251.75 21.532C252.166 21.6707 252.523 21.8733 252.822 22.14C253.12 22.396 253.328 22.7 253.446 23.052L251.958 23.724C251.851 23.4573 251.648 23.2547 251.35 23.116C251.051 22.9667 250.72 22.892 250.358 22.892C249.995 22.892 249.712 22.972 249.51 23.132C249.307 23.2813 249.206 23.4947 249.206 23.772C249.206 23.932 249.296 24.0813 249.478 24.22C249.659 24.348 249.92 24.4547 250.262 24.54L251.206 24.764C251.728 24.892 252.155 25.0947 252.486 25.372C252.816 25.6387 253.062 25.9427 253.222 26.284C253.382 26.6147 253.462 26.9507 253.462 27.292C253.462 27.772 253.323 28.1933 253.046 28.556C252.779 28.9187 252.411 29.2013 251.942 29.404C251.472 29.596 250.939 29.692 250.342 29.692Z" fill="#394C0A"/>
</svg>
